Khula-wt719.83.ufo
<glyph name="colon.deva" format="1">
  <advance width="526"/>
  <unicode hex="003A"/>
  <outline>
    <contour>
      <point x="105" y="129" type="curve" smooth="yes"/>
      <point x="105" y="229"/>
      <point x="160" y="282"/>
      <point x="264" y="282" type="curve" smooth="yes"/>
      <point x="363" y="282"/>
      <point x="420" y="226"/>
      <point x="420" y="129" type="curve" smooth="yes"/>
      <point x="420" y="34"/>
      <point x="361" y="-24"/>
      <point x="264" y="-24" type="curve" smooth="yes"/>
      <point x="163" y="-24"/>
      <point x="105" y="32"/>
    </contour>
    <contour>
      <point x="105" y="872" type="curve" smooth="yes"/>
      <point x="105" y="973"/>
      <point x="160" y="1025"/>
      <point x="264" y="1025" type="curve" smooth="yes"/>
      <point x="363" y="1025"/>
      <point x="420" y="971"/>
      <point x="420" y="872" type="curve" smooth="yes"/>
      <point x="420" y="775"/>
      <point x="361" y="719"/>
      <point x="264" y="719" type="curve" smooth="yes"/>
      <point x="163" y="719"/>
      <point x="105" y="773"/>
    </contour>
  </outline>
</glyph>
<glyph name="A" format="1">
  <advance width="1272"/>
  <unicode hex="0041"/>
  <outline>
    <contour>
      <point x="971" y="0" type="line"/>
      <point x="876" y="313" type="line"/>
      <point x="396" y="313" type="line"/>
      <point x="301" y="0" type="line"/>
      <point x="0" y="0" type="line"/>
      <point x="464" y="1321" type="line"/>
      <point x="805" y="1321" type="line"/>
      <point x="1272" y="0" type="line"/>
    </contour>
    <contour>
      <point x="809" y="547" type="line"/>
      <point x="660" y="1028" type="line" smooth="yes"/>
      <point x="649" y="1065"/>
      <point x="641" y="1095"/>
      <point x="636" y="1117" type="curve"/>
      <point x="617" y="1040"/>
      <point x="560" y="850"/>
      <point x="466" y="547" type="curve"/>
    </contour>
  </outline>
</glyph>
<glyph name="X" format="1">
  <advance width="1229"/>
  <unicode hex="0058"/>
  <outline>
    <contour>
      <point x="1229" y="0" type="line"/>
      <point x="911" y="0" type="line"/>
      <point x="605" y="498" type="line"/>
      <point x="299" y="0" type="line"/>
      <point x="0" y="0" type="line"/>
      <point x="436" y="679" type="line"/>
      <point x="28" y="1316" type="line"/>
      <point x="336" y="1316" type="line"/>
      <point x="619" y="842" type="line"/>
      <point x="897" y="1316" type="line"/>
      <point x="1198" y="1316" type="line"/>
      <point x="785" y="663" type="line"/>
    </contour>
  </outline>
</glyph>
<glyph name="Z" format="1">
  <advance width="1067"/>
  <unicode hex="005A"/>
  <outline>
    <contour>
      <point x="1023" y="0" type="line"/>
      <point x="44" y="0" type="line"/>
      <point x="44" y="181" type="line"/>
      <point x="675" y="1085" type="line"/>
      <point x="61" y="1085" type="line"/>
      <point x="61" y="1316" type="line"/>
      <point x="1006" y="1316" type="line"/>
      <point x="1006" y="1136" type="line"/>
      <point x="376" y="230" type="line"/>
      <point x="1023" y="230" type="line"/>
    </contour>
  </outline>
</glyph>
<glyph name="grave" format="1">
  <advance width="1092"/>
  <unicode hex="0060"/>
  <outline>
    <contour>
      <point x="646" y="1241" type="line"/>
      <point x="617" y="1260"/>
      <point x="555" y="1290"/>
      <point x="497" y="1330" type="curve"/>
      <point x="424" y="1385"/>
      <point x="358" y="1436"/>
      <point x="302" y="1483" type="curve"/>
      <point x="286" y="1499"/>
      <point x="276" y="1524"/>
      <point x="270" y="1532" type="curve"/>
      <point x="549" y="1536" type="line"/>
      <point x="571" y="1506"/>
      <point x="650" y="1456"/>
      <point x="716" y="1386" type="curve"/>
      <point x="720" y="1377"/>
      <point x="767" y="1322"/>
      <point x="779" y="1307" type="curve" smooth="yes"/>
      <point x="791" y="1291"/>
      <point x="803" y="1258"/>
      <point x="815" y="1245" type="curve"/>
    </contour>
  </outline>
</glyph>
<glyph name="h" format="1">
  <advance width="1211"/>
  <unicode hex="0068"/>
  <outline>
    <contour>
      <point x="1073" y="0" type="line"/>
      <point x="798" y="0" type="line"/>
      <point x="798" y="588" type="line" smooth="yes"/>
      <point x="798" y="733"/>
      <point x="744" y="805"/>
      <point x="636" y="805" type="curve" smooth="yes"/>
      <point x="483" y="805"/>
      <point x="418" y="708"/>
      <point x="418" y="473" type="curve" smooth="yes"/>
      <point x="418" y="0" type="line"/>
      <point x="144" y="0" type="line"/>
      <point x="144" y="1400" type="line"/>
      <point x="418" y="1400" type="line"/>
      <point x="418" y="1115" type="line" smooth="yes"/>
      <point x="418" y="1093"/>
      <point x="416" y="1041"/>
      <point x="412" y="958" type="curve"/>
      <point x="406" y="877" type="line"/>
      <point x="420" y="877" type="line"/>
      <point x="481" y="976"/>
      <point x="579" y="1025"/>
      <point x="712" y="1025" type="curve" smooth="yes"/>
      <point x="948" y="1025"/>
      <point x="1073" y="893"/>
      <point x="1073" y="656" type="curve" smooth="yes"/>
    </contour>
  </outline>
</glyph>
<glyph name="q" format="1">
  <advance width="1166"/>
  <unicode hex="0071"/>
  <outline>
    <contour>
      <point x="561" y="197" type="curve" smooth="yes"/>
      <point x="630" y="197"/>
      <point x="681" y="217"/>
      <point x="713" y="257" type="curve" smooth="yes"/>
      <point x="746" y="297"/>
      <point x="764" y="367"/>
      <point x="767" y="466" type="curve"/>
      <point x="767" y="499" type="line" smooth="yes"/>
      <point x="767" y="715"/>
      <point x="704" y="802"/>
      <point x="556" y="802" type="curve" smooth="yes"/>
      <point x="427" y="802"/>
      <point x="363" y="701"/>
      <point x="363" y="498" type="curve" smooth="yes"/>
      <point x="363" y="295"/>
      <point x="425" y="197"/>
    </contour>
    <contour>
      <point x="463" y="-18" type="curve" smooth="yes"/>
      <point x="344" y="-18"/>
      <point x="250" y="28"/>
      <point x="183" y="119" type="curve" smooth="yes"/>
      <point x="116" y="210"/>
      <point x="83" y="338"/>
      <point x="83" y="501" type="curve" smooth="yes"/>
      <point x="83" y="666"/>
      <point x="117" y="794"/>
      <point x="186" y="886" type="curve" smooth="yes"/>
      <point x="255" y="979"/>
      <point x="349" y="1025"/>
      <point x="468" y="1025" type="curve" smooth="yes"/>
      <point x="595" y="1025"/>
      <point x="688" y="978"/>
      <point x="760" y="877" type="curve"/>
      <point x="767" y="877" type="line"/>
      <point x="791" y="1006" type="line"/>
      <point x="1023" y="1006" type="line"/>
      <point x="1023" y="-443" type="line"/>
      <point x="748" y="-443" type="line"/>
      <point x="748" y="-21" type="line" smooth="yes"/>
      <point x="748" y="16"/>
      <point x="752" y="66"/>
      <point x="760" y="130" type="curve"/>
      <point x="748" y="130" type="line"/>
      <point x="689" y="34"/>
      <point x="590" y="-18"/>
    </contour>
  </outline>
</glyph>
<glyph name="aadeva" format="1">
  <advance width="2289"/>
  <unicode hex="0906"/>
  <outline>
    <contour>
      <point x="362" y="601" type="line"/>
      <point x="311" y="816" type="line"/>
      <point x="323" y="817" type="line"/>
      <point x="611" y="832"/>
      <point x="672" y="894"/>
      <point x="672" y="984" type="curve" smooth="yes"/>
      <point x="672" y="1042"/>
      <point x="630" y="1085"/>
      <point x="535" y="1085" type="curve" smooth="yes"/>
      <point x="445" y="1085"/>
      <point x="354" y="1055"/>
      <point x="244" y="998" type="curve"/>
      <point x="177" y="1214" type="line"/>
      <point x="290" y="1267"/>
      <point x="404" y="1297"/>
      <point x="545" y="1297" type="curve" smooth="yes"/>
      <point x="802" y="1297"/>
      <point x="930" y="1153"/>
      <point x="930" y="954" type="curve" smooth="yes"/>
      <point x="930" y="748"/>
      <point x="747" y="623"/>
      <point x="383" y="602" type="curve" smooth="yes"/>
    </contour>
    <contour>
      <point x="1799" y="1132" type="line"/>
      <point x="2088" y="1132" type="line"/>
      <point x="2088" y="0" type="line"/>
      <point x="1799" y="0" type="line"/>
    </contour>
    <contour>
      <point x="721" y="783" type="line"/>
      <point x="867" y="718"/>
      <point x="983" y="597"/>
      <point x="983" y="429" type="curve" smooth="yes"/>
      <point x="983" y="248"/>
      <point x="843" y="99"/>
      <point x="605" y="99" type="curve" smooth="yes"/>
      <point x="446" y="99"/>
      <point x="312" y="146"/>
      <point x="127" y="260" type="curve"/>
      <point x="184" y="470" type="line"/>
      <point x="332" y="364"/>
      <point x="422" y="331"/>
      <point x="526" y="331" type="curve" smooth="yes"/>
      <point x="647" y="331"/>
      <point x="719" y="394"/>
      <point x="719" y="486" type="curve" smooth="yes"/>
      <point x="719" y="558"/>
      <point x="663" y="631"/>
      <point x="568" y="665" type="curve"/>
    </contour>
    <contour>
      <point x="784" y="688" type="line"/>
      <point x="825" y="665"/>
      <point x="966" y="654"/>
      <point x="1014" y="654" type="curve" smooth="yes"/>
      <point x="1083" y="654"/>
      <point x="1183" y="682"/>
      <point x="1247" y="738" type="curve"/>
      <point x="1247" y="471" type="line"/>
      <point x="1213" y="460"/>
      <point x="1136" y="447"/>
      <point x="1093" y="447" type="curve" smooth="yes"/>
      <point x="1036" y="447"/>
      <point x="871" y="462"/>
      <point x="826" y="486" type="curve"/>
    </contour>
    <contour>
      <point x="1209" y="1132" type="line"/>
      <point x="1498" y="1132" type="line"/>
      <point x="1498" y="0" type="line"/>
      <point x="1209" y="0" type="line"/>
    </contour>
    <contour>
      <point x="2311" y="1096" type="line"/>
      <point x="1026" y="1096" type="line"/>
      <point x="1026" y="1288" type="line"/>
      <point x="2311" y="1288" type="line"/>
    </contour>
  </outline>
</glyph>
<glyph name="udeva" format="1">
  <advance width="1120"/>
  <unicode hex="0909"/>
  <outline>
    <contour>
      <point x="340" y="579" type="line"/>
      <point x="290" y="810" type="line"/>
      <point x="311" y="811" type="line"/>
      <point x="586" y="825"/>
      <point x="650" y="893"/>
      <point x="650" y="984" type="curve" smooth="yes"/>
      <point x="650" y="1056"/>
      <point x="603" y="1103"/>
      <point x="498" y="1103" type="curve"/>
      <point x="551" y="1263" type="line"/>
      <point x="769" y="1263"/>
      <point x="913" y="1117"/>
      <point x="913" y="940" type="curve" smooth="yes"/>
      <point x="913" y="749"/>
      <point x="750" y="596"/>
      <point x="367" y="580" type="curve"/>
    </contour>
    <contour>
      <point x="691" y="750" type="line"/>
      <point x="876" y="678"/>
      <point x="992" y="546"/>
      <point x="992" y="378" type="curve" smooth="yes"/>
      <point x="992" y="162"/>
      <point x="833" y="32"/>
      <point x="603" y="32" type="curve" smooth="yes"/>
      <point x="427" y="32"/>
      <point x="253" y="85"/>
      <point x="71" y="207" type="curve"/>
      <point x="130" y="423" type="line"/>
      <point x="290" y="310"/>
      <point x="421" y="269"/>
      <point x="515" y="269" type="curve" smooth="yes"/>
      <point x="641" y="269"/>
      <point x="715" y="337"/>
      <point x="715" y="427" type="curve" smooth="yes"/>
      <point x="715" y="504"/>
      <point x="645" y="592"/>
      <point x="520" y="613" type="curve"/>
    </contour>
    <contour>
      <point x="-49" y="1096" type="line"/>
      <point x="-49" y="1288" type="line"/>
      <point x="1157" y="1288" type="line"/>
      <point x="1157" y="1096" type="line"/>
    </contour>
    <contour>
      <point x="727" y="1282" type="move" name="mark0"/>
    </contour>
    <contour>
      <point x="-105" y="8" type="move" name="x36"/>
    </contour>
  </outline>
</glyph>
<glyph name="uudeva" format="1">
  <advance width="1523"/>
  <unicode hex="090A"/>
  <outline>
    <contour>
      <point x="875" y="373" type="curve"/>
      <point x="744" y="656" type="line"/>
      <point x="845" y="707"/>
      <point x="939" y="742"/>
      <point x="1097" y="742" type="curve" smooth="yes"/>
      <point x="1337" y="742"/>
      <point x="1503" y="582"/>
      <point x="1503" y="371" type="curve" smooth="yes"/>
      <point x="1503" y="238"/>
      <point x="1455" y="124"/>
      <point x="1368" y="16" type="curve"/>
      <point x="1118" y="115" type="line"/>
      <point x="1197" y="225"/>
      <point x="1239" y="311"/>
      <point x="1239" y="401" type="curve" smooth="yes"/>
      <point x="1239" y="473"/>
      <point x="1188" y="511"/>
      <point x="1118" y="511" type="curve" smooth="yes"/>
      <point x="1034" y="511"/>
      <point x="952" y="464"/>
    </contour>
    <contour>
      <point x="1083" y="1096" type="line"/>
      <point x="1083" y="1288" type="line"/>
      <point x="1548" y="1288" type="line"/>
      <point x="1548" y="1096" type="line"/>
    </contour>
    <component base="udeva"/>
    <contour>
      <point x="878" y="1282" type="move" name="mark0"/>
    </contour>
    <contour>
      <point x="46" y="8" type="move" name="x53"/>
    </contour>
  </outline>
</glyph>
<glyph name="cadeva" format="1">
  <advance width="1400"/>
  <unicode hex="091A"/>
  <outline>
    <contour>
      <point x="35" y="673" type="line"/>
      <point x="35" y="892" type="line"/>
      <point x="772" y="892" type="line"/>
      <point x="772" y="673" type="line"/>
    </contour>
    <contour>
      <point x="950" y="621" type="curve"/>
      <point x="950" y="235" type="line"/>
      <point x="878" y="196"/>
      <point x="807" y="168"/>
      <point x="694" y="168" type="curve" smooth="yes"/>
      <point x="427" y="168"/>
      <point x="252" y="326"/>
      <point x="252" y="537" type="curve" smooth="yes"/>
      <point x="252" y="722"/>
      <point x="377" y="880"/>
      <point x="671" y="880" type="curve"/>
      <point x="702" y="675" type="line"/>
      <point x="579" y="677"/>
      <point x="516" y="587"/>
      <point x="516" y="512" type="curve" smooth="yes"/>
      <point x="516" y="443"/>
      <point x="578" y="394"/>
      <point x="653" y="394" type="curve" smooth="yes"/>
      <point x="760" y="394"/>
      <point x="892" y="460"/>
    </contour>
    <contour>
      <point x="-20" y="1096" type="line"/>
      <point x="-20" y="1288" type="line"/>
      <point x="1421" y="1288" type="line"/>
      <point x="1421" y="1096" type="line"/>
    </contour>
    <contour>
      <point x="909" y="1132" type="line"/>
      <point x="1197" y="1132" type="line"/>
      <point x="1197" y="0" type="line"/>
      <point x="909" y="0" type="line"/>
    </contour>
  </outline>
</glyph>
<glyph name="jhadeva" format="1">
  <advance width="1702"/>
  <unicode hex="091D"/>
  <outline>
    <contour>
      <point x="1258" y="327" type="line"/>
      <point x="1228" y="316"/>
      <point x="1159" y="306"/>
      <point x="1109" y="306" type="curve" smooth="yes"/>
      <point x="1026" y="308"/>
      <point x="932" y="321"/>
      <point x="894" y="328" type="curve"/>
      <point x="894" y="382"/>
      <point x="886" y="450"/>
      <point x="886" y="539" type="curve"/>
      <point x="920" y="525"/>
      <point x="977" y="517"/>
      <point x="1022" y="517" type="curve" smooth="yes"/>
      <point x="1095" y="517"/>
      <point x="1187" y="546"/>
      <point x="1258" y="605" type="curve"/>
    </contour>
    <contour>
      <point x="1211" y="1132" type="line"/>
      <point x="1500" y="1132" type="line"/>
      <point x="1500" y="0" type="line"/>
      <point x="1211" y="0" type="line"/>
    </contour>
    <contour>
      <point x="1723" y="1096" type="line"/>
      <point x="1028" y="1096" type="line"/>
      <point x="1028" y="1288" type="line"/>
      <point x="1723" y="1288" type="line"/>
    </contour>
    <component base="ideva"/>
  </outline>
</glyph>
<glyph name="nyadeva" format="1">
  <advance width="1636"/>
  <unicode hex="091E"/>
  <outline>
    <contour>
      <point x="839" y="452" type="curve"/>
      <point x="839" y="677" type="line"/>
      <point x="873" y="666"/>
      <point x="955" y="661"/>
      <point x="1000" y="661" type="curve" smooth="yes"/>
      <point x="1063" y="661"/>
      <point x="1131" y="674"/>
      <point x="1210" y="712" type="curve"/>
      <point x="1210" y="450" type="line"/>
      <point x="1176" y="439"/>
      <point x="1113" y="428"/>
      <point x="1060" y="428" type="curve" smooth="yes"/>
      <point x="992" y="428"/>
      <point x="894" y="440"/>
    </contour>
    <contour>
      <point x="935" y="530" type="curve" smooth="yes"/>
      <point x="935" y="279"/>
      <point x="769" y="133"/>
      <point x="552" y="133" type="curve" smooth="yes"/>
      <point x="345" y="133"/>
      <point x="186" y="220"/>
      <point x="-14" y="404" type="curve"/>
      <point x="70" y="601" type="line"/>
      <point x="251" y="433"/>
      <point x="376" y="377"/>
      <point x="487" y="377" type="curve" smooth="yes"/>
      <point x="615" y="377"/>
      <point x="688" y="450"/>
      <point x="687" y="550" type="curve" smooth="yes"/>
      <point x="686" y="639"/>
      <point x="608" y="707"/>
      <point x="500" y="707" type="curve" smooth="yes"/>
      <point x="428" y="707"/>
      <point x="357" y="681"/>
      <point x="290" y="637" type="curve"/>
      <point x="191" y="838" type="line"/>
      <point x="265" y="892"/>
      <point x="370" y="935"/>
      <point x="485" y="935" type="curve" smooth="yes"/>
      <point x="719" y="935"/>
      <point x="935" y="776"/>
    </contour>
    <contour>
      <point x="-46" y="1096" type="line"/>
      <point x="-46" y="1288" type="line"/>
      <point x="1658" y="1288" type="line"/>
      <point x="1658" y="1096" type="line"/>
    </contour>
    <contour>
      <point x="1145" y="1132" type="line"/>
      <point x="1434" y="1132" type="line"/>
      <point x="1434" y="0" type="line"/>
      <point x="1145" y="0" type="line"/>
    </contour>
  </outline>
</glyph>
<glyph name="ttadeva" format="1">
  <advance width="1163"/>
  <unicode hex="091F"/>
  <outline>
    <contour>
      <point x="669" y="1134" type="line"/>
      <point x="943" y="1134" type="line"/>
      <point x="943" y="689" type="line"/>
      <point x="663" y="689" type="line"/>
      <point x="457" y="689"/>
      <point x="379" y="595"/>
      <point x="379" y="482" type="curve" smooth="yes"/>
      <point x="379" y="366"/>
      <point x="500" y="281"/>
      <point x="635" y="281" type="curve" smooth="yes"/>
      <point x="755" y="281"/>
      <point x="847" y="301"/>
      <point x="1001" y="356" type="curve"/>
      <point x="1057" y="120" type="line"/>
      <point x="901" y="74"/>
      <point x="812" y="62"/>
      <point x="671" y="62" type="curve" smooth="yes"/>
      <point x="323" y="62"/>
      <point x="96" y="271"/>
      <point x="96" y="517" type="curve" smooth="yes"/>
      <point x="96" y="723"/>
      <point x="241" y="891"/>
      <point x="570" y="891" type="curve" smooth="yes"/>
      <point x="709" y="891" type="line"/>
      <point x="669" y="853" type="line"/>
    </contour>
    <contour>
      <point x="1191" y="1096" type="line"/>
      <point x="-38" y="1096" type="line"/>
      <point x="-38" y="1288" type="line"/>
      <point x="1191" y="1288" type="line"/>
    </contour>
    <contour>
      <point x="580" y="8" type="move" name="mark0"/>
    </contour>
    <contour>
      <point x="1155" y="8" type="move" name="x29"/>
    </contour>
    <contour>
      <point x="-37" y="8" type="move" name="x28"/>
    </contour>
  </outline>
</glyph>
<glyph name="thadeva" format="1">
  <advance width="1435"/>
  <unicode hex="0925"/>
  <outline>
    <contour>
      <point x="748" y="912" type="curve" smooth="yes"/>
      <point x="748" y="735"/>
      <point x="583" y="556"/>
      <point x="366" y="484" type="curve"/>
      <point x="368" y="564" type="line"/>
      <point x="439" y="473"/>
      <point x="535" y="427"/>
      <point x="649" y="427" type="curve" smooth="yes"/>
      <point x="793" y="427"/>
      <point x="916" y="493"/>
      <point x="998" y="655" type="curve"/>
      <point x="999" y="264" type="line"/>
      <point x="930" y="219"/>
      <point x="850" y="196"/>
      <point x="734" y="196" type="curve" smooth="yes"/>
      <point x="472" y="196"/>
      <point x="214" y="332"/>
      <point x="91" y="608" type="curve"/>
      <point x="91" y="612" type="line"/>
      <point x="320" y="689"/>
      <point x="502" y="832"/>
      <point x="502" y="972" type="curve" smooth="yes"/>
      <point x="502" y="1071"/>
      <point x="441" y="1133"/>
      <point x="368" y="1133" type="curve" smooth="yes"/>
      <point x="313" y="1133"/>
      <point x="281" y="1090"/>
      <point x="283" y="1039" type="curve" smooth="yes"/>
      <point x="285" y="962"/>
      <point x="354" y="899"/>
      <point x="494" y="847" type="curve"/>
      <point x="409" y="715" type="line"/>
      <point x="135" y="796"/>
      <point x="29" y="944"/>
      <point x="29" y="1100" type="curve" smooth="yes"/>
      <point x="29" y="1219"/>
      <point x="107" y="1332"/>
      <point x="316" y="1332" type="curve" smooth="yes"/>
      <point x="610" y="1332"/>
      <point x="748" y="1117"/>
    </contour>
    <contour>
      <point x="944" y="1132" type="line"/>
      <point x="1233" y="1132" type="line"/>
      <point x="1233" y="0" type="line"/>
      <point x="944" y="0" type="line"/>
    </contour>
    <contour>
      <point x="1456" y="1096" type="line"/>
      <point x="831" y="1096" type="line"/>
      <point x="831" y="1288" type="line"/>
      <point x="1456" y="1288" type="line"/>
    </contour>
  </outline>
</glyph>
<glyph name="dadeva" format="1">
  <advance width="1167"/>
  <unicode hex="0926"/>
  <outline>
    <contour>
      <point x="-21" y="1096" type="line"/>
      <point x="-21" y="1288" type="line"/>
      <point x="1182" y="1288" type="line"/>
      <point x="1182" y="1096" type="line"/>
    </contour>
    <contour>
      <point x="693" y="171" type="line"/>
      <point x="904" y="237" type="line"/>
      <point x="1101" y="-137" type="line"/>
      <point x="890" y="-205" type="line"/>
    </contour>
    <contour>
      <point x="636" y="75" type="curve" smooth="yes"/>
      <point x="315" y="75"/>
      <point x="78" y="274"/>
      <point x="78" y="519" type="curve" smooth="yes"/>
      <point x="78" y="733"/>
      <point x="236" y="890"/>
      <point x="557" y="890" type="curve" smooth="yes"/>
      <point x="721" y="890" type="line"/>
      <point x="673" y="837" type="line"/>
      <point x="673" y="1131" type="line"/>
      <point x="947" y="1131" type="line"/>
      <point x="947" y="680" type="line"/>
      <point x="664" y="680" type="line"/>
      <point x="436" y="680"/>
      <point x="354" y="587"/>
      <point x="354" y="469" type="curve" smooth="yes"/>
      <point x="354" y="352"/>
      <point x="471" y="265"/>
      <point x="605" y="265" type="curve" smooth="yes"/>
      <point x="652" y="265"/>
      <point x="705" y="272"/>
      <point x="785" y="299" type="curve"/>
      <point x="677" y="207" type="line"/>
      <point x="643" y="259"/>
      <point x="627" y="316"/>
      <point x="627" y="355" type="curve" smooth="yes"/>
      <point x="627" y="412"/>
      <point x="671" y="474"/>
      <point x="782" y="474" type="curve" smooth="yes"/>
      <point x="952" y="474"/>
      <point x="1075" y="388"/>
      <point x="1075" y="299" type="curve" smooth="yes"/>
      <point x="1075" y="196"/>
      <point x="914" y="75"/>
    </contour>
    <contour>
      <point x="830" y="8" type="move" name="mark0"/>
    </contour>
    <contour>
      <point x="1170" y="8" type="move" name="x43"/>
    </contour>
    <contour>
      <point x="-61" y="8" type="move" name="x42"/>
    </contour>
  </outline>
</glyph>
<glyph name="dhadeva" format="1">
  <advance width="1385"/>
  <unicode hex="0927"/>
  <outline>
    <contour>
      <point x="734" y="674" type="line"/>
      <point x="723" y="673" type="line"/>
      <point x="542" y="663"/>
      <point x="481" y="592"/>
      <point x="481" y="516" type="curve" smooth="yes"/>
      <point x="481" y="449"/>
      <point x="545" y="401"/>
      <point x="627" y="402" type="curve" smooth="yes"/>
      <point x="760" y="405"/>
      <point x="886" y="505"/>
      <point x="953" y="630" type="curve"/>
      <point x="955" y="242" type="line"/>
      <point x="868" y="195"/>
      <point x="763" y="170"/>
      <point x="647" y="170" type="curve" smooth="yes"/>
      <point x="388" y="170"/>
      <point x="221" y="353"/>
      <point x="221" y="549" type="curve" smooth="yes"/>
      <point x="221" y="717"/>
      <point x="341" y="899"/>
      <point x="654" y="899" type="curve" smooth="yes"/>
      <point x="662" y="899" type="line"/>
    </contour>
    <contour>
      <point x="346" y="719" type="line"/>
      <point x="137" y="781"/>
      <point x="8" y="905"/>
      <point x="8" y="1074" type="curve" smooth="yes"/>
      <point x="8" y="1225"/>
      <point x="135" y="1344"/>
      <point x="334" y="1344" type="curve" smooth="yes"/>
      <point x="450" y="1344"/>
      <point x="515" y="1329"/>
      <point x="594" y="1298" type="curve"/>
      <point x="567" y="1112" type="line"/>
      <point x="516" y="1127"/>
      <point x="475" y="1135"/>
      <point x="419" y="1135" type="curve" smooth="yes"/>
      <point x="336" y="1135"/>
      <point x="291" y="1080"/>
      <point x="291" y="1018" type="curve" smooth="yes"/>
      <point x="291" y="938"/>
      <point x="372" y="871"/>
      <point x="540" y="860" type="curve"/>
    </contour>
    <contour>
      <point x="894" y="1132" type="line"/>
      <point x="1183" y="1132" type="line"/>
      <point x="1183" y="-1" type="line"/>
      <point x="894" y="-1" type="line"/>
    </contour>
    <contour>
      <point x="1406" y="1096" type="line"/>
      <point x="812" y="1096" type="line"/>
      <point x="812" y="1288" type="line"/>
      <point x="1406" y="1288" type="line"/>
    </contour>
  </outline>
</glyph>
<glyph name="nadeva" format="1">
  <advance width="1274"/>
  <unicode hex="0928"/>
  <outline>
    <contour>
      <point x="815" y="831" type="line"/>
      <point x="815" y="596" type="line"/>
      <point x="392" y="596" type="line"/>
      <point x="442" y="647" type="line"/>
      <point x="442" y="409" type="line"/>
      <point x="442" y="333"/>
      <point x="407" y="288"/>
      <point x="336" y="288" type="curve" smooth="yes"/>
      <point x="236" y="288"/>
      <point x="83" y="509"/>
      <point x="83" y="686" type="curve" smooth="yes"/>
      <point x="83" y="780"/>
      <point x="129" y="831"/>
      <point x="243" y="831" type="curve" smooth="yes"/>
    </contour>
    <contour>
      <point x="-29" y="1096" type="line"/>
      <point x="-29" y="1288" type="line"/>
      <point x="1295" y="1288" type="line"/>
      <point x="1295" y="1096" type="line"/>
    </contour>
    <contour>
      <point x="784" y="1132" type="line"/>
      <point x="1072" y="1132" type="line"/>
      <point x="1072" y="0" type="line"/>
      <point x="784" y="0" type="line"/>
    </contour>
  </outline>
</glyph>
<glyph name="padeva" format="1">
  <advance width="1261"/>
  <unicode hex="092A"/>
  <outline>
    <contour>
      <point x="1283" y="1096" type="line"/>
      <point x="-43" y="1096" type="line"/>
      <point x="-43" y="1288" type="line"/>
      <point x="1283" y="1288" type="line"/>
    </contour>
    <contour>
      <point x="417" y="1187" type="line"/>
      <point x="417" y="692" type="line"/>
      <point x="417" y="588"/>
      <point x="467" y="532"/>
      <point x="560" y="532" type="curve" smooth="yes"/>
      <point x="648" y="532"/>
      <point x="717" y="561"/>
      <point x="798" y="630" type="curve"/>
      <point x="798" y="341" type="line"/>
      <point x="742" y="320"/>
      <point x="676" y="310"/>
      <point x="608" y="310" type="curve" smooth="yes"/>
      <point x="321" y="310"/>
      <point x="128" y="485"/>
      <point x="128" y="758" type="curve" smooth="yes"/>
      <point x="128" y="1187" type="line"/>
    </contour>
    <contour>
      <point x="770" y="1132" type="line"/>
      <point x="1059" y="1132" type="line"/>
      <point x="1059" y="0" type="line"/>
      <point x="770" y="0" type="line"/>
    </contour>
  </outline>
</glyph>
<glyph name="madeva" format="1">
  <advance width="1341"/>
  <unicode hex="092E"/>
  <outline>
    <contour>
      <point x="-26" y="1096" type="line"/>
      <point x="-26" y="1288" type="line"/>
      <point x="1361" y="1288" type="line"/>
      <point x="1361" y="1096" type="line"/>
    </contour>
    <contour>
      <point x="221" y="1135" type="line"/>
      <point x="509" y="1135" type="line"/>
      <point x="509" y="638" type="line"/>
      <point x="477" y="676" type="line"/>
      <point x="901" y="676" type="line"/>
      <point x="901" y="452" type="line"/>
      <point x="464" y="452" type="line"/>
      <point x="509" y="494" type="line"/>
      <point x="509" y="352" type="line"/>
      <point x="509" y="277"/>
      <point x="481" y="234"/>
      <point x="407" y="234" type="curve" smooth="yes"/>
      <point x="260" y="234"/>
      <point x="65" y="444"/>
      <point x="65" y="565" type="curve" smooth="yes"/>
      <point x="65" y="640"/>
      <point x="104" y="675"/>
      <point x="166" y="675" type="curve" smooth="yes"/>
      <point x="255" y="675" type="line"/>
      <point x="221" y="646" type="line"/>
    </contour>
    <contour>
      <point x="850" y="1132" type="line"/>
      <point x="1139" y="1132" type="line"/>
      <point x="1139" y="0" type="line"/>
      <point x="850" y="0" type="line"/>
    </contour>
  </outline>
</glyph>
<glyph name="radeva" format="1">
  <advance width="997"/>
  <unicode hex="0930"/>
  <outline>
    <contour>
      <point x="808" y="85" type="line"/>
      <point x="612" y="-46" type="line"/>
      <point x="162" y="544" type="line"/>
      <point x="81" y="648"/>
      <point x="51" y="695"/>
      <point x="51" y="755" type="curve" smooth="yes"/>
      <point x="51" y="813"/>
      <point x="101" y="867"/>
      <point x="173" y="867" type="curve" smooth="yes"/>
      <point x="244" y="867"/>
      <point x="293" y="812"/>
      <point x="362" y="719" type="curve" smooth="yes"/>
      <point x="425" y="632" type="line"/>
      <point x="412" y="613" type="line"/>
    </contour>
    <contour>
      <point x="326" y="681" type="line"/>
      <point x="482" y="725"/>
      <point x="538" y="804"/>
      <point x="538" y="942" type="curve" smooth="yes"/>
      <point x="538" y="1147" type="line"/>
      <point x="826" y="1147" type="line"/>
      <point x="826" y="898" type="line"/>
      <point x="826" y="711"/>
      <point x="715" y="527"/>
      <point x="494" y="450" type="curve"/>
    </contour>
    <contour>
      <point x="-15" y="1096" type="line"/>
      <point x="-15" y="1288" type="line"/>
      <point x="1047" y="1288" type="line"/>
      <point x="1047" y="1096" type="line"/>
    </contour>
    <contour>
      <point x="49" y="8" type="move" name="x27"/>
    </contour>
    <contour>
      <point x="563" y="8" type="move" name="mark0"/>
    </contour>
  </outline>
</glyph>
<glyph name="ladeva" format="1">
  <advance width="1545"/>
  <unicode hex="0932"/>
  <outline>
    <contour>
      <point x="1150" y="967" type="line"/>
      <point x="1150" y="634" type="line"/>
      <point x="718" y="232" type="line"/>
      <point x="539" y="405" type="line"/>
    </contour>
    <contour>
      <point x="966" y="643" type="curve"/>
      <point x="798" y="490" type="line"/>
      <point x="692" y="607"/>
      <point x="618" y="646"/>
      <point x="517" y="646" type="curve" smooth="yes"/>
      <point x="410" y="646"/>
      <point x="324" y="557"/>
      <point x="324" y="460" type="curve" smooth="yes"/>
      <point x="323" y="356"/>
      <point x="377" y="256"/>
      <point x="528" y="106" type="curve"/>
      <point x="336" y="-7" type="line"/>
      <point x="180" y="148"/>
      <point x="68" y="320"/>
      <point x="68" y="525" type="curve" smooth="yes"/>
      <point x="68" y="727"/>
      <point x="215" y="896"/>
      <point x="466" y="896" type="curve" smooth="yes"/>
      <point x="650" y="896"/>
      <point x="810" y="798"/>
    </contour>
    <contour>
      <point x="-21" y="1096" type="line"/>
      <point x="-21" y="1288" type="line"/>
      <point x="1565" y="1288" type="line"/>
      <point x="1565" y="1096" type="line"/>
    </contour>
    <contour>
      <point x="1054" y="1132" type="line"/>
      <point x="1342" y="1132" type="line"/>
      <point x="1342" y="0" type="line"/>
      <point x="1054" y="0" type="line"/>
    </contour>
  </outline>
</glyph>
<glyph name="lladeva" format="1">
  <advance width="1607"/>
  <unicode hex="0933"/>
  <outline>
    <contour>
      <point x="1640" y="1096" type="line"/>
      <point x="-18" y="1096" type="line"/>
      <point x="-18" y="1288" type="line"/>
      <point x="1640" y="1288" type="line"/>
    </contour>
    <contour>
      <point x="699" y="552" type="curve" smooth="yes"/>
      <point x="760" y="720"/>
      <point x="891" y="912"/>
      <point x="1151" y="912" type="curve" smooth="yes"/>
      <point x="1432" y="912"/>
      <point x="1561" y="698"/>
      <point x="1561" y="488" type="curve" smooth="yes"/>
      <point x="1561" y="270"/>
      <point x="1407" y="92"/>
      <point x="1167" y="92" type="curve" smooth="yes"/>
      <point x="997" y="92"/>
      <point x="854" y="166"/>
      <point x="702" y="294" type="curve"/>
      <point x="802" y="459" type="line"/>
      <point x="911" y="371"/>
      <point x="1013" y="314"/>
      <point x="1104" y="314" type="curve" smooth="yes"/>
      <point x="1215" y="314"/>
      <point x="1309" y="397"/>
      <point x="1309" y="520" type="curve" smooth="yes"/>
      <point x="1309" y="617"/>
      <point x="1249" y="674"/>
      <point x="1174" y="674" type="curve" smooth="yes"/>
      <point x="1095" y="674"/>
      <point x="1014" y="602"/>
      <point x="965" y="473" type="curve" smooth="yes"/>
      <point x="876" y="253"/>
      <point x="748" y="83"/>
      <point x="515" y="83" type="curve" smooth="yes"/>
      <point x="244" y="83"/>
      <point x="85" y="270"/>
      <point x="85" y="514" type="curve" smooth="yes"/>
      <point x="85" y="734"/>
      <point x="248" y="897"/>
      <point x="483" y="897" type="curve" smooth="yes"/>
      <point x="667" y="897"/>
      <point x="773" y="829"/>
      <point x="919" y="720" type="curve"/>
      <point x="839" y="544" type="line"/>
      <point x="729" y="632"/>
      <point x="634" y="678"/>
      <point x="532" y="678" type="curve" smooth="yes"/>
      <point x="421" y="678"/>
      <point x="342" y="599"/>
      <point x="342" y="471" type="curve" smooth="yes"/>
      <point x="342" y="360"/>
      <point x="409" y="311"/>
      <point x="485" y="311" type="curve" smooth="yes"/>
      <point x="571" y="311"/>
      <point x="643" y="397"/>
    </contour>
    <contour>
      <point x="1290" y="823" type="line"/>
      <point x="1016" y="827" type="line"/>
      <point x="1016" y="1118" type="line"/>
      <point x="1290" y="1118" type="line"/>
    </contour>
    <contour>
      <point x="988" y="-3" type="move" name="mark0"/>
    </contour>
  </outline>
</glyph>
<glyph name="llladeva" format="1">
  <advance width="1607"/>
  <unicode hex="0934"/>
  <outline>
    <component base="nuktadeva" xOffset="1053" yOffset="122"/>
    <component base="lladeva"/>
    <contour>
      <point x="1158" y="0" type="move" name="mark0"/>
    </contour>
  </outline>
</glyph>
<glyph name="vadeva" format="1">
  <advance width="1247"/>
  <unicode hex="0935"/>
  <outline>
    <contour>
      <point x="1268" y="1096" type="line"/>
      <point x="-40" y="1096" type="line"/>
      <point x="-40" y="1288" type="line"/>
      <point x="1268" y="1288" type="line"/>
    </contour>
    <contour>
      <point x="793" y="575" type="curve"/>
      <point x="793" y="269" type="line"/>
      <point x="723" y="217"/>
      <point x="629" y="194"/>
      <point x="535" y="194" type="curve" smooth="yes"/>
      <point x="258" y="194"/>
      <point x="70" y="407"/>
      <point x="70" y="624" type="curve" smooth="yes"/>
      <point x="70" y="806"/>
      <point x="225" y="947"/>
      <point x="444" y="947" type="curve" smooth="yes"/>
      <point x="623" y="947"/>
      <point x="716" y="919"/>
      <point x="842" y="852" type="curve"/>
      <point x="841" y="636" type="line"/>
      <point x="716" y="715"/>
      <point x="643" y="737"/>
      <point x="526" y="737" type="curve" smooth="yes"/>
      <point x="405" y="737"/>
      <point x="334" y="661"/>
      <point x="334" y="571" type="curve" smooth="yes"/>
      <point x="334" y="485"/>
      <point x="399" y="417"/>
      <point x="497" y="417" type="curve" smooth="yes"/>
      <point x="603" y="417"/>
      <point x="699" y="462"/>
    </contour>
    <contour>
      <point x="757" y="1132" type="line"/>
      <point x="1045" y="1132" type="line"/>
      <point x="1045" y="0" type="line"/>
      <point x="757" y="0" type="line"/>
    </contour>
  </outline>
</glyph>
<glyph name="shadeva" format="1">
  <advance width="1634"/>
  <unicode hex="0936"/>
  <outline>
    <contour>
      <point x="578" y="416" type="line"/>
      <point x="906" y="110" type="line"/>
      <point x="739" y="-43" type="line"/>
      <point x="368" y="309" type="line"/>
    </contour>
    <contour>
      <point x="286" y="232" type="curve" smooth="yes"/>
      <point x="167" y="232"/>
      <point x="119" y="308"/>
      <point x="119" y="401" type="curve" smooth="yes"/>
      <point x="119" y="498"/>
      <point x="192" y="610"/>
      <point x="295" y="610" type="curve" smooth="yes"/>
      <point x="369" y="610"/>
      <point x="427" y="569"/>
      <point x="505" y="492" type="curve"/>
      <point x="401" y="503" type="line"/>
      <point x="569" y="562"/>
      <point x="713" y="726"/>
      <point x="713" y="908" type="curve" smooth="yes"/>
      <point x="713" y="1020"/>
      <point x="622" y="1114"/>
      <point x="523" y="1114" type="curve" smooth="yes"/>
      <point x="459" y="1114"/>
      <point x="423" y="1075"/>
      <point x="425" y="1012" type="curve" smooth="yes"/>
      <point x="426" y="938"/>
      <point x="495" y="851"/>
      <point x="779" y="827" type="curve"/>
      <point x="711" y="653" type="line"/>
      <point x="320" y="699"/>
      <point x="164" y="875"/>
      <point x="164" y="1051" type="curve" smooth="yes"/>
      <point x="164" y="1189"/>
      <point x="264" y="1321"/>
      <point x="488" y="1321" type="curve" smooth="yes"/>
      <point x="767" y="1321"/>
      <point x="951" y="1134"/>
      <point x="951" y="869" type="curve" smooth="yes"/>
      <point x="951" y="530"/>
      <point x="531" y="232"/>
    </contour>
    <contour>
      <point x="1143" y="1132" type="line"/>
      <point x="1431" y="1132" type="line"/>
      <point x="1431" y="0" type="line"/>
      <point x="1143" y="0" type="line"/>
    </contour>
    <contour>
      <point x="1655" y="1096" type="line"/>
      <point x="1018" y="1096" type="line"/>
      <point x="1018" y="1288" type="line"/>
      <point x="1655" y="1288" type="line"/>
    </contour>
  </outline>
</glyph>
<glyph name="ssadeva" format="1">
  <advance width="1261"/>
  <unicode hex="0937"/>
  <outline>
    <contour>
      <point x="865" y="596" type="line"/>
      <point x="754" y="515" type="line"/>
      <point x="286" y="1083" type="line"/>
      <point x="396" y="1165" type="line"/>
    </contour>
    <component base="padeva"/>
  </outline>
</glyph>
<glyph name="hadeva" format="1">
  <advance width="1183"/>
  <unicode hex="0939"/>
  <outline>
    <contour>
      <point x="652" y="590" type="curve" smooth="yes"/>
      <point x="942" y="590"/>
      <point x="1097" y="435"/>
      <point x="1097" y="268" type="curve" smooth="yes"/>
      <point x="1097" y="184"/>
      <point x="1068" y="115"/>
      <point x="1026" y="43" type="curve"/>
      <point x="795" y="93" type="line"/>
      <point x="831" y="143"/>
      <point x="846" y="184"/>
      <point x="846" y="249" type="curve" smooth="yes"/>
      <point x="846" y="317"/>
      <point x="784" y="378"/>
      <point x="675" y="378" type="curve" smooth="yes"/>
      <point x="539" y="378"/>
      <point x="451" y="298"/>
      <point x="451" y="188" type="curve" smooth="yes"/>
      <point x="451" y="42"/>
      <point x="564" y="-57"/>
      <point x="1001" y="-113" type="curve"/>
      <point x="931" y="-303" type="line"/>
      <point x="417" y="-243"/>
      <point x="174" y="-64"/>
      <point x="174" y="209" type="curve" smooth="yes"/>
      <point x="174" y="409"/>
      <point x="330" y="590"/>
    </contour>
    <contour>
      <point x="1216" y="1096" type="line"/>
      <point x="-20" y="1096" type="line"/>
      <point x="-20" y="1288" type="line"/>
      <point x="1216" y="1288" type="line"/>
    </contour>
    <contour>
      <point x="704" y="1106" type="line"/>
      <point x="992" y="1106" type="line"/>
      <point x="992" y="750" type="line"/>
      <point x="506" y="750" type="line"/>
      <point x="395" y="750"/>
      <point x="352" y="705"/>
      <point x="352" y="645" type="curve" smooth="yes"/>
      <point x="352" y="588"/>
      <point x="396" y="550"/>
      <point x="500" y="517" type="curve"/>
      <point x="310" y="377" type="line"/>
      <point x="154" y="468"/>
      <point x="74" y="574"/>
      <point x="74" y="705" type="curve" smooth="yes"/>
      <point x="74" y="839"/>
      <point x="179" y="942"/>
      <point x="390" y="942" type="curve" smooth="yes"/>
      <point x="743" y="942" type="line"/>
      <point x="704" y="889" type="line"/>
    </contour>
  </outline>
</glyph>
<glyph name="avagrahadeva" format="1">
  <advance width="1163"/>
  <unicode hex="093D"/>
  <outline>
    <contour>
      <point x="1021" y="376" type="curve" smooth="yes"/>
      <point x="1021" y="159"/>
      <point x="844" y="32"/>
      <point x="616" y="32" type="curve" smooth="yes"/>
      <point x="436" y="32"/>
      <point x="269" y="93"/>
      <point x="90" y="210" type="curve"/>
      <point x="149" y="426" type="line"/>
      <point x="314" y="311"/>
      <point x="435" y="269"/>
      <point x="530" y="269" type="curve" smooth="yes"/>
      <point x="653" y="269"/>
      <point x="729" y="326"/>
      <point x="729" y="419" type="curve" smooth="yes"/>
      <point x="729" y="499"/>
      <point x="662" y="573"/>
      <point x="482" y="674" type="curve" smooth="yes"/>
      <point x="300" y="778"/>
      <point x="197" y="871"/>
      <point x="197" y="1032" type="curve" smooth="yes"/>
      <point x="197" y="1172"/>
      <point x="305" y="1288"/>
      <point x="546" y="1288" type="curve" smooth="yes"/>
      <point x="975" y="1288" type="line"/>
      <point x="975" y="1096" type="line"/>
      <point x="660" y="1096" type="line"/>
      <point x="566" y="1096"/>
      <point x="518" y="1053"/>
      <point x="517" y="993" type="curve" smooth="yes"/>
      <point x="516" y="938"/>
      <point x="565" y="891"/>
      <point x="717" y="802" type="curve" smooth="yes"/>
      <point x="928" y="675"/>
      <point x="1021" y="552"/>
    </contour>
  </outline>
</glyph>
<glyph name="aavowelsigndeva" format="1">
  <advance width="651"/>
  <unicode hex="093E"/>
  <outline>
    <contour>
      <point x="160" y="1132" type="line"/>
      <point x="448" y="1132" type="line"/>
      <point x="448" y="0" type="line"/>
      <point x="160" y="0" type="line"/>
    </contour>
    <contour>
      <point x="671" y="1096" type="line"/>
      <point x="-24" y="1096" type="line"/>
      <point x="-24" y="1288" type="line"/>
      <point x="671" y="1288" type="line"/>
    </contour>
  </outline>
</glyph>
<glyph name="iivowelsigndeva" format="1">
  <advance width="651"/>
  <unicode hex="0940"/>
  <outline>
    <contour>
      <point x="154" y="1239" type="line"/>
      <point x="52" y="1450"/>
      <point x="-76" y="1575"/>
      <point x="-209" y="1575" type="curve" smooth="yes"/>
      <point x="-295" y="1575"/>
      <point x="-337" y="1526"/>
      <point x="-337" y="1457" type="curve" smooth="yes"/>
      <point x="-337" y="1384"/>
      <point x="-299" y="1328"/>
      <point x="-234" y="1253" type="curve"/>
      <point x="-501" y="1253" type="line"/>
      <point x="-558" y="1319"/>
      <point x="-611" y="1422"/>
      <point x="-611" y="1533" type="curve" smooth="yes"/>
      <point x="-611" y="1681"/>
      <point x="-508" y="1819"/>
      <point x="-275" y="1819" type="curve" smooth="yes"/>
      <point x="36" y="1819"/>
      <point x="273" y="1624"/>
      <point x="432" y="1239" type="curve"/>
    </contour>
    <component base="aavowelsigndeva"/>
  </outline>
</glyph>
<glyph name="uuvowelsigndeva" format="1">
  <advance width="0"/>
  <unicode hex="0942"/>
  <outline>
    <contour>
      <point x="-61" y="-576" type="line"/>
      <point x="-174" y="-610"/>
      <point x="-223" y="-618"/>
      <point x="-308" y="-618" type="curve" smooth="yes"/>
      <point x="-518" y="-618"/>
      <point x="-720" y="-483"/>
      <point x="-720" y="-287" type="curve" smooth="yes"/>
      <point x="-720" y="-104"/>
      <point x="-577" y="27"/>
      <point x="-357" y="27" type="curve" smooth="yes"/>
      <point x="-89" y="27"/>
      <point x="60" y="-86"/>
      <point x="320" y="-388" type="curve"/>
      <point x="182" y="-546" type="line"/>
      <point x="-50" y="-270"/>
      <point x="-173" y="-206"/>
      <point x="-309" y="-206" type="curve" smooth="yes"/>
      <point x="-405" y="-206"/>
      <point x="-458" y="-258"/>
      <point x="-458" y="-327" type="curve" smooth="yes"/>
      <point x="-458" y="-385"/>
      <point x="-412" y="-428"/>
      <point x="-321" y="-428" type="curve" smooth="yes"/>
      <point x="-261" y="-428"/>
      <point x="-207" y="-414"/>
      <point x="-125" y="-381" type="curve"/>
    </contour>
    <contour>
      <point x="49" y="8" type="move" name="x24"/>
    </contour>
    <contour>
      <point x="-424" y="8" type="move" name="_mark0"/>
    </contour>
  </outline>
</glyph>
<glyph name="rvocalicvowelsigndeva" format="1">
  <advance width="0"/>
  <unicode hex="0943"/>
  <outline>
    <contour>
      <point x="-126" y="-500" type="line"/>
      <point x="-230" y="-533"/>
      <point x="-278" y="-540"/>
      <point x="-359" y="-540" type="curve" smooth="yes"/>
      <point x="-566" y="-540"/>
      <point x="-739" y="-428"/>
      <point x="-739" y="-240" type="curve" smooth="yes"/>
      <point x="-739" y="-75"/>
      <point x="-591" y="42"/>
      <point x="-371" y="42" type="curve" smooth="yes"/>
      <point x="-298" y="42"/>
      <point x="-243" y="30"/>
      <point x="-202" y="19" type="curve"/>
      <point x="-202" y="-128" type="line"/>
      <point x="-237" y="-128"/>
      <point x="-274" y="-128"/>
      <point x="-311" y="-128" type="curve" smooth="yes"/>
      <point x="-430" y="-128"/>
      <point x="-493" y="-195"/>
      <point x="-493" y="-263" type="curve" smooth="yes"/>
      <point x="-493" y="-318"/>
      <point x="-451" y="-362"/>
      <point x="-359" y="-362" type="curve" smooth="yes"/>
      <point x="-302" y="-362"/>
      <point x="-241" y="-349"/>
      <point x="-157" y="-315" type="curve"/>
    </contour>
    <contour>
      <point x="-403" y="-3" type="move" name="_mark0"/>
    </contour>
  </outline>
</glyph>
<glyph name="eshortvowelsigndeva" format="1">
  <advance width="0"/>
  <unicode hex="0946"/>
  <outline>
    <contour>
      <point x="-490" y="1244" type="line"/>
      <point x="-490" y="1343" type="line"/>
      <point x="-490" y="1416"/>
      <point x="-525" y="1455"/>
      <point x="-601" y="1455" type="curve" smooth="yes"/>
      <point x="-671" y="1455"/>
      <point x="-733" y="1416"/>
      <point x="-858" y="1416" type="curve" smooth="yes"/>
      <point x="-1000" y="1416"/>
      <point x="-1096" y="1479"/>
      <point x="-1186" y="1593" type="curve"/>
      <point x="-1082" y="1759" type="line"/>
      <point x="-991" y="1668"/>
      <point x="-934" y="1639"/>
      <point x="-865" y="1639" type="curve" smooth="yes"/>
      <point x="-763" y="1639"/>
      <point x="-668" y="1696"/>
      <point x="-516" y="1696" type="curve" smooth="yes"/>
      <point x="-345" y="1696"/>
      <point x="-236" y="1575"/>
      <point x="-236" y="1378" type="curve" smooth="yes"/>
      <point x="-236" y="1244" type="line"/>
    </contour>
    <contour>
      <point x="-403" y="1271" type="move" name="_mark0"/>
    </contour>
  </outline>
</glyph>
<glyph name="aivowelsigndeva" format="1">
  <advance width="0"/>
  <unicode hex="0948"/>
  <outline>
    <contour>
      <point x="-752" y="1244" type="line"/>
      <point x="-1194" y="1572" type="line"/>
      <point x="-987" y="1737" type="line"/>
      <point x="-406" y="1244" type="line"/>
    </contour>
    <contour>
      <point x="-445" y="1244" type="line"/>
      <point x="-676" y="1773" type="line"/>
      <point x="-417" y="1836" type="line"/>
      <point x="-192" y="1244" type="line"/>
    </contour>
    <contour>
      <point x="49" y="8" type="move" name="x27"/>
    </contour>
    <contour>
      <point x="-424" y="1282" type="move" name="_mark0"/>
    </contour>
  </outline>
</glyph>
<glyph name="udattadeva" format="1">
  <advance width="71"/>
  <unicode hex="0951"/>
  <outline>
    <contour>
      <point x="-122" y="1782" type="line"/>
      <point x="-122" y="1401" type="line"/>
      <point x="-425" y="1401" type="line"/>
      <point x="-425" y="1782" type="line"/>
    </contour>
    <contour>
      <point x="-403" y="1271" type="move" name="_mark0"/>
    </contour>
    <contour>
      <point x="35" y="-3" type="move" name="x4"/>
    </contour>
  </outline>
</glyph>
<glyph name="anudattadeva" format="1">
  <advance width="71"/>
  <unicode hex="0952"/>
  <outline>
    <contour>
      <point x="-935" y="-319" type="line"/>
      <point x="-935" y="-150" type="line"/>
      <point x="-110" y="-150" type="line"/>
      <point x="-110" y="-319" type="line"/>
    </contour>
  </outline>
</glyph>
<glyph name="uni0953" format="1">
  <advance width="71"/>
  <unicode hex="0953"/>
  <outline>
    <contour>
      <point x="-127" y="1405" type="line"/>
      <point x="-376" y="1405" type="line"/>
      <point x="-395" y="1438"/>
      <point x="-605" y="1772"/>
      <point x="-624" y="1804" type="curve"/>
      <point x="-282" y="1804" type="line"/>
    </contour>
    <contour>
      <point x="-403" y="1271" type="move" name="_mark0"/>
    </contour>
    <contour>
      <point x="35" y="-3" type="move" name="x4"/>
    </contour>
  </outline>
</glyph>
<glyph name="fadeva" format="1">
  <advance width="1673"/>
  <unicode hex="095E"/>
  <outline>
    <component base="phadeva"/>
    <component base="nuktadeva" xOffset="1186" yOffset="259"/>
    <contour>
      <point x="889" y="0" type="move" name="mark0"/>
    </contour>
  </outline>
</glyph>
<glyph name="rrvocalicdeva" format="1">
  <advance width="1657"/>
  <unicode hex="0960"/>
  <outline>
    <contour>
      <point x="918" y="735" type="line"/>
      <point x="958" y="692"/>
      <point x="999" y="674"/>
      <point x="1067" y="674" type="curve" smooth="yes"/>
      <point x="1124" y="674"/>
      <point x="1196" y="686"/>
      <point x="1271" y="732" type="curve"/>
      <point x="1184" y="660" type="line"/>
      <point x="1154" y="710"/>
      <point x="1137" y="747"/>
      <point x="1137" y="788" type="curve" smooth="yes"/>
      <point x="1137" y="845"/>
      <point x="1182" y="903"/>
      <point x="1283" y="903" type="curve" smooth="yes"/>
      <point x="1434" y="903"/>
      <point x="1553" y="823"/>
      <point x="1553" y="732" type="curve" smooth="yes"/>
      <point x="1553" y="619"/>
      <point x="1375" y="471"/>
      <point x="1091" y="472" type="curve" smooth="yes"/>
      <point x="996" y="472"/>
      <point x="905" y="493"/>
      <point x="816" y="540" type="curve"/>
    </contour>
    <contour>
      <point x="865" y="412" type="line"/>
      <point x="290" y="113" type="line"/>
      <point x="149" y="314" type="line"/>
      <point x="734" y="606" type="line"/>
    </contour>
    <contour>
      <point x="-43" y="1096" type="line"/>
      <point x="-43" y="1288" type="line"/>
      <point x="1663" y="1288" type="line"/>
      <point x="1663" y="1096" type="line"/>
    </contour>
    <contour>
      <point x="49" y="843" type="line"/>
      <point x="132" y="882"/>
      <point x="228" y="908"/>
      <point x="316" y="908" type="curve" smooth="yes"/>
      <point x="428" y="908"/>
      <point x="563" y="856"/>
      <point x="741" y="742" type="curve"/>
      <point x="741" y="487" type="line"/>
      <point x="564" y="612"/>
      <point x="456" y="672"/>
      <point x="374" y="672" type="curve" smooth="yes"/>
      <point x="295" y="672"/>
      <point x="194" y="635"/>
      <point x="119" y="603" type="curve"/>
    </contour>
    <contour>
      <point x="700" y="1132" type="line"/>
      <point x="988" y="1132" type="line"/>
      <point x="988" y="0" type="line"/>
      <point x="700" y="0" type="line"/>
    </contour>
    <contour>
      <point x="1400" y="191" type="curve" smooth="yes"/>
      <point x="1400" y="141"/>
      <point x="1448" y="103"/>
      <point x="1525" y="103" type="curve" smooth="yes"/>
      <point x="1582" y="103"/>
      <point x="1626" y="117"/>
      <point x="1702" y="150" type="curve"/>
      <point x="1733" y="-35" type="line"/>
      <point x="1659" y="-62"/>
      <point x="1594" y="-75"/>
      <point x="1512" y="-75" type="curve" smooth="yes"/>
      <point x="1299" y="-75"/>
      <point x="1155" y="36"/>
      <point x="1155" y="195" type="curve" smooth="yes"/>
      <point x="1155" y="325"/>
      <point x="1250" y="421"/>
      <point x="1450" y="476" type="curve"/>
      <point x="1337" y="406" type="line"/>
      <point x="1231" y="555" type="line"/>
      <point x="1423" y="653" type="line"/>
      <point x="1605" y="412" type="line"/>
      <point x="1587" y="346" type="line"/>
      <point x="1452" y="306"/>
      <point x="1400" y="256"/>
    </contour>
    <contour>
      <point x="896" y="1271" type="move" name="mark0"/>
    </contour>
  </outline>
</glyph>
<glyph name="lvocalicvowelsigndeva" format="1">
  <advance width="-2"/>
  <unicode hex="0962"/>
  <outline>
    <contour>
      <point x="-352" y="-244" type="curve"/>
      <point x="-449" y="-320" type="line"/>
      <point x="-499" y="-252"/>
      <point x="-541" y="-224"/>
      <point x="-602" y="-224" type="curve" smooth="yes"/>
      <point x="-658" y="-224"/>
      <point x="-691" y="-264"/>
      <point x="-691" y="-313" type="curve" smooth="yes"/>
      <point x="-691" y="-371"/>
      <point x="-659" y="-420"/>
      <point x="-573" y="-494" type="curve"/>
      <point x="-687" y="-556" type="line"/>
      <point x="-790" y="-469"/>
      <point x="-848" y="-372"/>
      <point x="-848" y="-279" type="curve" smooth="yes"/>
      <point x="-848" y="-172"/>
      <point x="-776" y="-90"/>
      <point x="-642" y="-90" type="curve" smooth="yes"/>
      <point x="-527" y="-90"/>
      <point x="-436" y="-149"/>
    </contour>
    <contour>
      <point x="-188" y="-387" type="curve"/>
      <point x="-250" y="-437" type="line"/>
      <point x="-220" y="-398"/>
      <point x="-204" y="-346"/>
      <point x="-204" y="-306" type="curve" smooth="yes"/>
      <point x="-204" y="-270"/>
      <point x="-229" y="-246"/>
      <point x="-273" y="-246" type="curve" smooth="yes"/>
      <point x="-330" y="-246"/>
      <point x="-382" y="-300"/>
      <point x="-410" y="-413" type="curve"/>
      <point x="-550" y="-366" type="line"/>
      <point x="-516" y="-228"/>
      <point x="-442" y="-114"/>
      <point x="-284" y="-113" type="curve" smooth="yes"/>
      <point x="-153" y="-112"/>
      <point x="-61" y="-205"/>
      <point x="-61" y="-317" type="curve" smooth="yes"/>
      <point x="-61" y="-366"/>
      <point x="-75" y="-420"/>
      <point x="-100" y="-469" type="curve"/>
      <point x="-183" y="-469"/>
      <point x="-214" y="-498"/>
      <point x="-214" y="-527" type="curve" smooth="yes"/>
      <point x="-214" y="-557"/>
      <point x="-196" y="-574"/>
      <point x="-148" y="-574" type="curve" smooth="yes"/>
      <point x="-117" y="-574"/>
      <point x="-90" y="-567"/>
      <point x="-47" y="-549" type="curve"/>
      <point x="-30" y="-652" type="line"/>
      <point x="-76" y="-669"/>
      <point x="-111" y="-674"/>
      <point x="-157" y="-674" type="curve" smooth="yes"/>
      <point x="-274" y="-674"/>
      <point x="-354" y="-610"/>
      <point x="-354" y="-532" type="curve" smooth="yes"/>
      <point x="-354" y="-458"/>
      <point x="-294" y="-399"/>
    </contour>
    <contour>
      <point x="-403" y="-3" type="move" name="_mark0"/>
    </contour>
  </outline>
</glyph>
<glyph name="llvocalicvowelsigndeva" format="1">
  <advance width="-1"/>
  <unicode hex="0963"/>
  <outline>
    <contour>
      <point x="-352" y="-244" type="curve"/>
      <point x="-449" y="-320" type="line"/>
      <point x="-499" y="-251"/>
      <point x="-541" y="-223"/>
      <point x="-603" y="-223" type="curve" smooth="yes"/>
      <point x="-658" y="-223"/>
      <point x="-691" y="-263"/>
      <point x="-691" y="-313" type="curve" smooth="yes"/>
      <point x="-691" y="-372"/>
      <point x="-659" y="-421"/>
      <point x="-574" y="-495" type="curve"/>
      <point x="-687" y="-557" type="line"/>
      <point x="-791" y="-470"/>
      <point x="-848" y="-372"/>
      <point x="-848" y="-279" type="curve" smooth="yes"/>
      <point x="-848" y="-172"/>
      <point x="-778" y="-89"/>
      <point x="-643" y="-89" type="curve" smooth="yes"/>
      <point x="-527" y="-89"/>
      <point x="-437" y="-148"/>
    </contour>
    <contour>
      <point x="26" y="-801" type="line"/>
      <point x="-9" y="-814"/>
      <point x="-62" y="-825"/>
      <point x="-107" y="-825" type="curve" smooth="yes"/>
      <point x="-230" y="-825"/>
      <point x="-280" y="-763"/>
      <point x="-280" y="-702" type="curve" smooth="yes"/>
      <point x="-280" y="-628"/>
      <point x="-201" y="-575"/>
      <point x="-82" y="-575" type="curve"/>
      <point x="-60" y="-637" type="line"/>
      <point x="-120" y="-638"/>
      <point x="-150" y="-667"/>
      <point x="-150" y="-696" type="curve" smooth="yes"/>
      <point x="-150" y="-721"/>
      <point x="-135" y="-739"/>
      <point x="-90" y="-739" type="curve" smooth="yes"/>
      <point x="-60" y="-739"/>
      <point x="-33" y="-732"/>
      <point x="9" y="-717" type="curve"/>
    </contour>
    <contour>
      <point x="-176" y="-382" type="curve"/>
      <point x="-249" y="-438" type="line"/>
      <point x="-219" y="-400"/>
      <point x="-204" y="-346"/>
      <point x="-204" y="-305" type="curve" smooth="yes"/>
      <point x="-204" y="-269"/>
      <point x="-228" y="-246"/>
      <point x="-272" y="-246" type="curve" smooth="yes"/>
      <point x="-330" y="-246"/>
      <point x="-383" y="-300"/>
      <point x="-410" y="-414" type="curve"/>
      <point x="-551" y="-366" type="line"/>
      <point x="-517" y="-227"/>
      <point x="-442" y="-113"/>
      <point x="-284" y="-112" type="curve" smooth="yes"/>
      <point x="-153" y="-111"/>
      <point x="-60" y="-205"/>
      <point x="-60" y="-317" type="curve" smooth="yes"/>
      <point x="-60" y="-366"/>
      <point x="-73" y="-421"/>
      <point x="-99" y="-469" type="curve"/>
      <point x="-104" y="-469"/>
      <point x="-110" y="-469"/>
      <point x="-115" y="-469" type="curve" smooth="yes"/>
      <point x="-179" y="-469"/>
      <point x="-203" y="-497"/>
      <point x="-203" y="-522" type="curve" smooth="yes"/>
      <point x="-203" y="-546"/>
      <point x="-183" y="-566"/>
      <point x="-140" y="-566" type="curve" smooth="yes"/>
      <point x="-110" y="-566"/>
      <point x="-87" y="-563"/>
      <point x="-36" y="-549" type="curve"/>
      <point x="-17" y="-640" type="line"/>
      <point x="-68" y="-652"/>
      <point x="-102" y="-656"/>
      <point x="-144" y="-656" type="curve" smooth="yes"/>
      <point x="-273" y="-656"/>
      <point x="-349" y="-594"/>
      <point x="-349" y="-514" type="curve" smooth="yes"/>
      <point x="-349" y="-447"/>
      <point x="-286" y="-392"/>
    </contour>
    <contour>
      <point x="-403" y="-3" type="move" name="_mark0"/>
    </contour>
  </outline>
</glyph>
<glyph name="zerodeva" format="1">
  <advance width="1219"/>
  <unicode hex="0966"/>
  <outline>
    <contour>
      <point x="572" y="1120" type="curve" smooth="yes"/>
      <point x="899" y="1120"/>
      <point x="1103" y="899"/>
      <point x="1103" y="633" type="curve" smooth="yes"/>
      <point x="1103" y="407"/>
      <point x="928" y="209"/>
      <point x="642" y="209" type="curve" smooth="yes"/>
      <point x="319" y="209"/>
      <point x="108" y="432"/>
      <point x="108" y="698" type="curve" smooth="yes"/>
      <point x="108" y="916"/>
      <point x="288" y="1120"/>
    </contour>
    <contour>
      <point x="595" y="425" type="curve" smooth="yes"/>
      <point x="755" y="425"/>
      <point x="853" y="548"/>
      <point x="853" y="694" type="curve" smooth="yes"/>
      <point x="853" y="809"/>
      <point x="759" y="912"/>
      <point x="632" y="912" type="curve" smooth="yes"/>
      <point x="470" y="912"/>
      <point x="369" y="790"/>
      <point x="369" y="644" type="curve" smooth="yes"/>
      <point x="369" y="518"/>
      <point x="470" y="425"/>
    </contour>
  </outline>
</glyph>
<glyph name="onedeva" format="1">
  <advance width="1025"/>
  <unicode hex="0967"/>
  <outline>
    <contour>
      <point x="256" y="360" type="line"/>
      <point x="513" y="650" type="line"/>
      <point x="617" y="768"/>
      <point x="662" y="837"/>
      <point x="662" y="930" type="curve" smooth="yes"/>
      <point x="662" y="1011"/>
      <point x="599" y="1085"/>
      <point x="494" y="1085" type="curve" smooth="yes"/>
      <point x="398" y="1085"/>
      <point x="344" y="1008"/>
      <point x="344" y="932" type="curve" smooth="yes"/>
      <point x="344" y="836"/>
      <point x="403" y="763"/>
      <point x="594" y="698" type="curve"/>
      <point x="471" y="546" type="line"/>
      <point x="221" y="636"/>
      <point x="79" y="776"/>
      <point x="79" y="963" type="curve" smooth="yes"/>
      <point x="79" y="1127"/>
      <point x="213" y="1292"/>
      <point x="476" y="1292" type="curve" smooth="yes"/>
      <point x="750" y="1292"/>
      <point x="916" y="1100"/>
      <point x="916" y="915" type="curve" smooth="yes"/>
      <point x="916" y="780"/>
      <point x="868" y="698"/>
      <point x="785" y="592" type="curve" smooth="yes"/>
      <point x="549" y="315" type="line"/>
      <point x="521" y="414" type="line"/>
      <point x="776" y="236" type="line"/>
      <point x="872" y="169"/>
      <point x="911" y="101"/>
      <point x="911" y="37" type="curve" smooth="yes"/>
      <point x="912" y="-25"/>
      <point x="887" y="-80"/>
      <point x="848" y="-138" type="curve"/>
      <point x="604" y="-65" type="line"/>
      <point x="623" y="-31"/>
      <point x="635" y="-12"/>
      <point x="634" y="25" type="curve" smooth="yes"/>
      <point x="634" y="66"/>
      <point x="610" y="97"/>
      <point x="567" y="126" type="curve" smooth="yes"/>
      <point x="256" y="334" type="line"/>
    </contour>
  </outline>
</glyph>
<glyph name="twodeva" format="1">
  <advance width="1027"/>
  <unicode hex="0968"/>
  <outline>
    <contour>
      <point x="315" y="453" type="line"/>
      <point x="525" y="540" type="line"/>
      <point x="857" y="58" type="line"/>
      <point x="651" y="-44" type="line"/>
    </contour>
    <contour>
      <point x="313" y="341" type="curve" smooth="yes"/>
      <point x="179" y="341"/>
      <point x="100" y="412"/>
      <point x="100" y="491" type="curve" smooth="yes"/>
      <point x="100" y="594"/>
      <point x="209" y="716"/>
      <point x="320" y="716" type="curve" smooth="yes"/>
      <point x="406" y="716"/>
      <point x="465" y="666"/>
      <point x="516" y="559" type="curve"/>
      <point x="299" y="554" type="line"/>
      <point x="566" y="613"/>
      <point x="675" y="756"/>
      <point x="675" y="893" type="curve" smooth="yes"/>
      <point x="675" y="1004"/>
      <point x="596" y="1077"/>
      <point x="467" y="1077" type="curve" smooth="yes"/>
      <point x="364" y="1077"/>
      <point x="256" y="1043"/>
      <point x="137" y="982" type="curve"/>
      <point x="59" y="1213" type="line"/>
      <point x="173" y="1262"/>
      <point x="300" y="1293"/>
      <point x="450" y="1292" type="curve" smooth="yes"/>
      <point x="752" y="1291"/>
      <point x="930" y="1126"/>
      <point x="930" y="877" type="curve" smooth="yes"/>
      <point x="930" y="588"/>
      <point x="624" y="341"/>
    </contour>
  </outline>
</glyph>
<glyph name="threedeva" format="1">
  <advance width="923"/>
  <unicode hex="0969"/>
  <outline>
    <contour>
      <point x="408" y="203" type="line"/>
      <point x="311" y="-145" type="line"/>
      <point x="94" y="-95" type="line"/>
      <point x="186" y="243" type="line"/>
    </contour>
    <contour>
      <point x="220" y="593" type="curve"/>
      <point x="175" y="800" type="line"/>
      <point x="461" y="825"/>
      <point x="526" y="891"/>
      <point x="526" y="973" type="curve" smooth="yes"/>
      <point x="526" y="1039"/>
      <point x="481" y="1085"/>
      <point x="389" y="1085" type="curve" smooth="yes"/>
      <point x="299" y="1085"/>
      <point x="206" y="1056"/>
      <point x="94" y="1000" type="curve"/>
      <point x="29" y="1217" type="line"/>
      <point x="146" y="1269"/>
      <point x="257" y="1294"/>
      <point x="394" y="1294" type="curve" smooth="yes"/>
      <point x="644" y="1294"/>
      <point x="770" y="1147"/>
      <point x="770" y="962" type="curve" smooth="yes"/>
      <point x="770" y="760"/>
      <point x="608" y="620"/>
    </contour>
    <contour>
      <point x="833" y="439" type="curve" smooth="yes"/>
      <point x="833" y="244"/>
      <point x="685" y="110"/>
      <point x="369" y="110" type="curve" smooth="yes"/>
      <point x="122" y="110"/>
      <point x="41" y="194"/>
      <point x="41" y="283" type="curve" smooth="yes"/>
      <point x="41" y="359"/>
      <point x="141" y="443"/>
      <point x="258" y="443" type="curve" smooth="yes"/>
      <point x="365" y="443"/>
      <point x="424" y="380"/>
      <point x="421" y="277" type="curve"/>
      <point x="183" y="325" type="line"/>
      <point x="256" y="314"/>
      <point x="329" y="308"/>
      <point x="373" y="308" type="curve" smooth="yes"/>
      <point x="507" y="308"/>
      <point x="584" y="371"/>
      <point x="584" y="473" type="curve" smooth="yes"/>
      <point x="584" y="557"/>
      <point x="522" y="616"/>
      <point x="406" y="642" type="curve"/>
      <point x="572" y="764" type="line"/>
      <point x="709" y="717"/>
      <point x="833" y="603"/>
    </contour>
  </outline>
</glyph>
<glyph name="fivedeva" format="1">
  <advance width="1159"/>
  <unicode hex="096B"/>
  <outline>
    <contour>
      <point x="352" y="664" type="curve" smooth="yes"/>
      <point x="352" y="537"/>
      <point x="436" y="437"/>
      <point x="576" y="437" type="curve" smooth="yes"/>
      <point x="673" y="436"/>
      <point x="745" y="481"/>
      <point x="857" y="569" type="curve"/>
      <point x="704" y="425" type="line"/>
      <point x="658" y="495"/>
      <point x="640" y="529"/>
      <point x="640" y="578" type="curve" smooth="yes"/>
      <point x="640" y="652"/>
      <point x="710" y="711"/>
      <point x="837" y="711" type="curve" smooth="yes"/>
      <point x="986" y="711"/>
      <point x="1084" y="635"/>
      <point x="1084" y="560" type="curve" smooth="yes"/>
      <point x="1084" y="426"/>
      <point x="909" y="252"/>
      <point x="604" y="252" type="curve" smooth="yes"/>
      <point x="295" y="252"/>
      <point x="81" y="443"/>
      <point x="81" y="715" type="curve" smooth="yes"/>
      <point x="81" y="912"/>
      <point x="189" y="1127"/>
      <point x="409" y="1291" type="curve"/>
      <point x="634" y="1134" type="line"/>
      <point x="448" y="991"/>
      <point x="352" y="808"/>
    </contour>
    <contour>
      <point x="683" y="463" type="line"/>
      <point x="902" y="535" type="line"/>
      <point x="1187" y="0" type="line"/>
      <point x="974" y="-79" type="line"/>
    </contour>
  </outline>
</glyph>
<glyph name="sevendeva" format="1">
  <advance width="1337"/>
  <unicode hex="096D"/>
  <outline>
    <contour>
      <point x="1116" y="409" type="curve"/>
      <point x="1115" y="408"/>
      <point x="1020" y="279"/>
      <point x="1020" y="279" type="curve"/>
      <point x="665" y="358"/>
      <point x="518" y="532"/>
      <point x="518" y="743" type="curve" smooth="yes"/>
      <point x="518" y="896"/>
      <point x="626" y="1023"/>
      <point x="820" y="1023" type="curve" smooth="yes"/>
      <point x="1077" y="1023"/>
      <point x="1251" y="822"/>
      <point x="1251" y="531" type="curve" smooth="yes"/>
      <point x="1251" y="257"/>
      <point x="1051" y="66"/>
      <point x="780" y="66" type="curve" smooth="yes"/>
      <point x="437" y="66"/>
      <point x="110" y="321"/>
      <point x="110" y="833" type="curve" smooth="yes"/>
      <point x="110" y="969"/>
      <point x="146" y="1161"/>
      <point x="188" y="1288" type="curve"/>
      <point x="432" y="1190" type="line"/>
      <point x="380" y="1037"/>
      <point x="350" y="858"/>
      <point x="350" y="729" type="curve" smooth="yes"/>
      <point x="350" y="391"/>
      <point x="555" y="247"/>
      <point x="738" y="247" type="curve" smooth="yes"/>
      <point x="902" y="247"/>
      <point x="1019" y="407"/>
      <point x="1019" y="600" type="curve" smooth="yes"/>
      <point x="1019" y="739"/>
      <point x="948" y="824"/>
      <point x="863" y="824" type="curve" smooth="yes"/>
      <point x="790" y="824"/>
      <point x="751" y="765"/>
      <point x="751" y="692" type="curve" smooth="yes"/>
      <point x="751" y="588"/>
      <point x="837" y="487"/>
    </contour>
  </outline>
</glyph>
<glyph name="uni0971" format="1">
  <advance width="773"/>
  <unicode hex="0971"/>
  <outline>
    <contour>
      <point x="0" y="0" type="line"/>
      <point x="773" y="0" type="line"/>
      <point x="773" y="20" type="line"/>
      <point x="0" y="20" type="line"/>
    </contour>
  </outline>
</glyph>
<glyph name="uni097D" format="1">
  <advance width="1101"/>
  <unicode hex="097D"/>
  <outline>
    <contour>
      <point x="613" y="545" type="line"/>
      <point x="613" y="1" type="line"/>
      <point x="325" y="1" type="line"/>
      <point x="325" y="689" type="line"/>
      <point x="337" y="690" type="line"/>
      <point x="597" y="705"/>
      <point x="706" y="825"/>
      <point x="706" y="932" type="curve" smooth="yes"/>
      <point x="706" y="1022"/>
      <point x="642" y="1085"/>
      <point x="539" y="1085" type="curve" smooth="yes"/>
      <point x="445" y="1085"/>
      <point x="353" y="1055"/>
      <point x="243" y="998" type="curve"/>
      <point x="177" y="1214" type="line"/>
      <point x="290" y="1267"/>
      <point x="403" y="1297"/>
      <point x="548" y="1297" type="curve" smooth="yes"/>
      <point x="808" y="1297"/>
      <point x="964" y="1133"/>
      <point x="964" y="905" type="curve" smooth="yes"/>
      <point x="964" y="684"/>
      <point x="760" y="529"/>
      <point x="574" y="509" type="curve"/>
    </contour>
  </outline>
</glyph>
<glyph name="endash.deva" format="1">
  <advance width="922"/>
  <unicode hex="2013"/>
  <outline>
    <contour>
      <point x="74" y="392" type="line"/>
      <point x="74" y="599" type="line"/>
      <point x="848" y="599" type="line"/>
      <point x="848" y="392" type="line"/>
    </contour>
  </outline>
</glyph>
<glyph name="quoteright.deva" format="1">
  <advance width="400"/>
  <unicode hex="2019"/>
  <outline>
    <contour>
      <point x="365" y="1316" type="line"/>
      <point x="378" y="1296" type="line"/>
      <point x="348" y="1178"/>
      <point x="295" y="1034"/>
      <point x="220" y="865" type="curve"/>
      <point x="22" y="865" type="line"/>
      <point x="64" y="1042"/>
      <point x="94" y="1193"/>
      <point x="112" y="1316" type="curve"/>
    </contour>
  </outline>
</glyph>
<glyph name="quotedblleft.deva" format="1">
  <advance width="820"/>
  <unicode hex="201C"/>
  <outline>
    <contour>
      <point x="443" y="885" type="line"/>
      <point x="456" y="940"/>
      <point x="478" y="1008"/>
      <point x="508" y="1090" type="curve" smooth="yes"/>
      <point x="538" y="1173"/>
      <point x="569" y="1248"/>
      <point x="601" y="1316" type="curve"/>
      <point x="798" y="1316" type="line"/>
      <point x="759" y="1155"/>
      <point x="728" y="1005"/>
      <point x="707" y="865" type="curve"/>
      <point x="455" y="865" type="line"/>
    </contour>
    <contour>
      <point x="22" y="885" type="line"/>
      <point x="35" y="940"/>
      <point x="57" y="1008"/>
      <point x="87" y="1090" type="curve" smooth="yes"/>
      <point x="118" y="1173"/>
      <point x="149" y="1248"/>
      <point x="181" y="1316" type="curve"/>
      <point x="378" y="1316" type="line"/>
      <point x="339" y="1155"/>
      <point x="308" y="1005"/>
      <point x="287" y="865" type="curve"/>
      <point x="35" y="865" type="line"/>
    </contour>
  </outline>
</glyph>
<glyph name="ellipsis.deva" format="1">
  <advance width="1520"/>
  <unicode hex="2026"/>
  <outline>
    <contour>
      <point x="0" y="0" type="line"/>
      <point x="1520" y="0" type="line"/>
      <point x="1520" y="20" type="line"/>
      <point x="0" y="20" type="line"/>
    </contour>
  </outline>
</glyph>
<glyph name="uni20B9.deva" format="1">
  <advance width="1092"/>
  <unicode hex="20B9"/>
  <outline>
    <contour>
      <point x="108" y="757" type="line"/>
      <point x="108" y="935" type="line"/>
      <point x="1003" y="935" type="line"/>
      <point x="1003" y="757" type="line"/>
    </contour>
    <contour>
      <point x="108" y="1110" type="line"/>
      <point x="108" y="1288" type="line"/>
      <point x="1003" y="1288" type="line"/>
      <point x="1003" y="1110" type="line"/>
    </contour>
    <contour>
      <point x="152" y="479" type="line"/>
      <point x="155" y="560" type="line"/>
      <point x="435" y="575"/>
      <point x="560" y="704"/>
      <point x="560" y="862" type="curve" smooth="yes"/>
      <point x="560" y="1006"/>
      <point x="443" y="1111"/>
      <point x="298" y="1111" type="curve" smooth="yes"/>
      <point x="278" y="1111" type="line"/>
      <point x="280" y="1257" type="line"/>
      <point x="353" y="1257" type="line"/>
      <point x="638" y="1257"/>
      <point x="829" y="1071"/>
      <point x="829" y="847" type="curve" smooth="yes"/>
      <point x="829" y="623"/>
      <point x="675" y="475"/>
      <point x="434" y="410" type="curve"/>
      <point x="434" y="491" type="line"/>
      <point x="842" y="14" type="line"/>
      <point x="843" y="0" type="line"/>
      <point x="555" y="0" type="line"/>
    </contour>
  </outline>
</glyph>
<glyph name="uni25CC" format="1">
  <advance width="1172"/>
  <unicode hex="25CC"/>
  <outline>
    <contour>
      <point x="672" y="996" type="curve" smooth="yes"/>
      <point x="672" y="960"/>
      <point x="644" y="941"/>
      <point x="586" y="941" type="curve" smooth="yes"/>
      <point x="529" y="941"/>
      <point x="502" y="961"/>
      <point x="502" y="996" type="curve" smooth="yes"/>
      <point x="502" y="1032"/>
      <point x="528" y="1052"/>
      <point x="586" y="1052" type="curve" smooth="yes"/>
      <point x="643" y="1052"/>
      <point x="672" y="1032"/>
    </contour>
    <contour>
      <point x="392" y="894" type="curve" smooth="yes"/>
      <point x="392" y="858"/>
      <point x="364" y="838"/>
      <point x="307" y="838" type="curve" smooth="yes"/>
      <point x="251" y="838"/>
      <point x="222" y="858"/>
      <point x="222" y="894" type="curve" smooth="yes"/>
      <point x="222" y="930"/>
      <point x="251" y="950"/>
      <point x="307" y="950" type="curve" smooth="yes"/>
      <point x="364" y="950"/>
      <point x="392" y="930"/>
    </contour>
    <contour>
      <point x="953" y="894" type="curve" smooth="yes"/>
      <point x="953" y="858"/>
      <point x="925" y="838"/>
      <point x="868" y="838" type="curve" smooth="yes"/>
      <point x="812" y="838"/>
      <point x="784" y="858"/>
      <point x="784" y="894" type="curve" smooth="yes"/>
      <point x="784" y="930"/>
      <point x="812" y="950"/>
      <point x="868" y="950" type="curve" smooth="yes"/>
      <point x="925" y="950"/>
      <point x="953" y="930"/>
    </contour>
    <contour>
      <point x="1050" y="638" type="curve" smooth="yes"/>
      <point x="1050" y="602"/>
      <point x="1022" y="582"/>
      <point x="964" y="582" type="curve" smooth="yes"/>
      <point x="909" y="582"/>
      <point x="881" y="603"/>
      <point x="881" y="638" type="curve" smooth="yes"/>
      <point x="881" y="673"/>
      <point x="909" y="694"/>
      <point x="964" y="694" type="curve" smooth="yes"/>
      <point x="1022" y="694"/>
      <point x="1050" y="674"/>
    </contour>
    <contour>
      <point x="294" y="638" type="curve" smooth="yes"/>
      <point x="294" y="603"/>
      <point x="264" y="582"/>
      <point x="210" y="582" type="curve" smooth="yes"/>
      <point x="153" y="582"/>
      <point x="125" y="603"/>
      <point x="125" y="638" type="curve" smooth="yes"/>
      <point x="125" y="673"/>
      <point x="153" y="694"/>
      <point x="210" y="694" type="curve" smooth="yes"/>
      <point x="264" y="694"/>
      <point x="294" y="673"/>
    </contour>
    <contour>
      <point x="392" y="382" type="curve" smooth="yes"/>
      <point x="392" y="346"/>
      <point x="364" y="326"/>
      <point x="307" y="326" type="curve" smooth="yes"/>
      <point x="251" y="326"/>
      <point x="222" y="346"/>
      <point x="222" y="382" type="curve" smooth="yes"/>
      <point x="222" y="418"/>
      <point x="251" y="438"/>
      <point x="307" y="438" type="curve" smooth="yes"/>
      <point x="364" y="438"/>
      <point x="392" y="418"/>
    </contour>
    <contour>
      <point x="953" y="382" type="curve" smooth="yes"/>
      <point x="953" y="346"/>
      <point x="925" y="326"/>
      <point x="868" y="326" type="curve" smooth="yes"/>
      <point x="812" y="326"/>
      <point x="784" y="346"/>
      <point x="784" y="382" type="curve" smooth="yes"/>
      <point x="784" y="418"/>
      <point x="812" y="438"/>
      <point x="868" y="438" type="curve" smooth="yes"/>
      <point x="925" y="438"/>
      <point x="953" y="418"/>
    </contour>
    <contour>
      <point x="672" y="280" type="curve" smooth="yes"/>
      <point x="672" y="242"/>
      <point x="644" y="223"/>
      <point x="586" y="223" type="curve" smooth="yes"/>
      <point x="529" y="223"/>
      <point x="502" y="243"/>
      <point x="502" y="280" type="curve" smooth="yes"/>
      <point x="502" y="315"/>
      <point x="529" y="335"/>
      <point x="586" y="335" type="curve" smooth="yes"/>
      <point x="644" y="335"/>
      <point x="672" y="316"/>
    </contour>
  </outline>
</glyph>
<glyph name="bharaprehalfdeva" format="1">
  <advance width="844"/>
  <outline>
    <contour>
      <point x="1131" y="294" type="line"/>
      <point x="534" y="-138" type="line"/>
      <point x="382" y="41" type="line"/>
      <point x="997" y="487" type="line"/>
    </contour>
    <contour>
      <point x="340" y="1003" type="line"/>
      <point x="340" y="1101"/>
      <point x="296" y="1160"/>
      <point x="230" y="1160" type="curve" smooth="yes"/>
      <point x="169" y="1160"/>
      <point x="141" y="1119"/>
      <point x="141" y="1065" type="curve" smooth="yes"/>
      <point x="141" y="992"/>
      <point x="208" y="926"/>
      <point x="394" y="918" type="curve"/>
      <point x="376" y="779" type="line"/>
      <point x="96" y="783"/>
      <point x="-110" y="895"/>
      <point x="-110" y="1117" type="curve" smooth="yes"/>
      <point x="-110" y="1244"/>
      <point x="-16" y="1362"/>
      <point x="208" y="1362" type="curve" smooth="yes"/>
      <point x="469" y="1362"/>
      <point x="629" y="1204"/>
      <point x="629" y="964" type="curve" smooth="yes"/>
      <point x="629" y="652" type="line"/>
      <point x="596" y="691" type="line"/>
      <point x="1145" y="691" type="line"/>
      <point x="1145" y="466" type="line"/>
      <point x="583" y="466" type="line"/>
      <point x="629" y="509" type="line"/>
      <point x="629" y="381" type="line"/>
      <point x="629" y="306"/>
      <point x="600" y="263"/>
      <point x="526" y="263" type="curve" smooth="yes"/>
      <point x="394" y="263"/>
      <point x="184" y="473"/>
      <point x="184" y="579" type="curve" smooth="yes"/>
      <point x="184" y="655"/>
      <point x="223" y="690"/>
      <point x="285" y="690" type="curve" smooth="yes"/>
      <point x="374" y="690" type="line"/>
      <point x="340" y="661" type="line"/>
    </contour>
  </outline>
</glyph>
<glyph name="candrabindusmalldeva" format="1">
  <advance width="0"/>
  <outline>
    <contour>
      <point x="-365" y="1826" type="curve" smooth="yes"/>
      <point x="-293" y="1835"/>
      <point x="-255" y="1795"/>
      <point x="-245" y="1754" type="curve" smooth="yes"/>
      <point x="-235" y="1713"/>
      <point x="-259" y="1654"/>
      <point x="-331" y="1645" type="curve" smooth="yes"/>
      <point x="-399" y="1635"/>
      <point x="-441" y="1674"/>
      <point x="-451" y="1717" type="curve" smooth="yes"/>
      <point x="-461" y="1759"/>
      <point x="-434" y="1816"/>
    </contour>
    <contour>
      <point x="47" y="1558" type="line"/>
      <point x="-52" y="1412"/>
      <point x="-168" y="1334"/>
      <point x="-335" y="1334" type="curve" smooth="yes"/>
      <point x="-493" y="1334"/>
      <point x="-617" y="1417"/>
      <point x="-731" y="1557" type="curve"/>
      <point x="-636" y="1726" type="line"/>
      <point x="-538" y="1605"/>
      <point x="-468" y="1538"/>
      <point x="-340" y="1538" type="curve" smooth="yes"/>
      <point x="-211" y="1538"/>
      <point x="-142" y="1606"/>
      <point x="-64" y="1722" type="curve"/>
    </contour>
    <contour>
      <point x="-403" y="1271" type="move" name="_mark0"/>
    </contour>
  </outline>
</glyph>
<glyph name="chanuktaprehalfdeva" format="1">
  <advance width="1577"/>
  <outline>
    <contour>
      <point x="0" y="0" type="line"/>
      <point x="1577" y="0" type="line"/>
      <point x="1577" y="20" type="line"/>
      <point x="0" y="20" type="line"/>
    </contour>
  </outline>
</glyph>
<glyph name="chaprehalfdeva" format="1">
  <advance width="1555"/>
  <outline>
    <contour>
      <point x="670" y="796" type="curve"/>
      <point x="742" y="573" type="line"/>
      <point x="741" y="573"/>
      <point x="739" y="573"/>
      <point x="738" y="573" type="curve" smooth="yes"/>
      <point x="548" y="561"/>
      <point x="488" y="480"/>
      <point x="488" y="401" type="curve" smooth="yes"/>
      <point x="488" y="311"/>
      <point x="567" y="239"/>
      <point x="719" y="239" type="curve" smooth="yes"/>
      <point x="984" y="239"/>
      <point x="1251" y="472"/>
      <point x="1251" y="666" type="curve" smooth="yes"/>
      <point x="1251" y="753"/>
      <point x="1203" y="801"/>
      <point x="1143" y="801" type="curve" smooth="yes"/>
      <point x="1087" y="801"/>
      <point x="1047" y="751"/>
      <point x="1047" y="682" type="curve" smooth="yes"/>
      <point x="1047" y="592"/>
      <point x="1103" y="507"/>
      <point x="1288" y="369" type="curve"/>
      <point x="1155" y="246" type="line"/>
      <point x="905" y="417"/>
      <point x="809" y="555"/>
      <point x="809" y="735" type="curve" smooth="yes"/>
      <point x="809" y="860"/>
      <point x="902" y="1001"/>
      <point x="1110" y="1001" type="curve" smooth="yes"/>
      <point x="1338" y="1001"/>
      <point x="1487" y="854"/>
      <point x="1487" y="633" type="curve" smooth="yes"/>
      <point x="1487" y="360"/>
      <point x="1178" y="22"/>
      <point x="727" y="22" type="curve" smooth="yes"/>
      <point x="383" y="22"/>
      <point x="202" y="224"/>
      <point x="202" y="441" type="curve" smooth="yes"/>
      <point x="202" y="628"/>
      <point x="352" y="790"/>
      <point x="665" y="796" type="curve" smooth="yes"/>
      <point x="667" y="796"/>
      <point x="668" y="796"/>
    </contour>
    <contour>
      <point x="577" y="757" type="curve"/>
      <point x="387" y="609" type="line"/>
      <point x="167" y="676"/>
      <point x="81" y="801"/>
      <point x="81" y="961" type="curve" smooth="yes"/>
      <point x="81" y="1091"/>
      <point x="204" y="1247"/>
      <point x="490" y="1264" type="curve"/>
      <point x="586" y="1116" type="line"/>
      <point x="431" y="1100"/>
      <point x="364" y="1010"/>
      <point x="364" y="932" type="curve" smooth="yes"/>
      <point x="364" y="852"/>
      <point x="414" y="784"/>
    </contour>
    <contour>
      <point x="1597" y="1096" type="line"/>
      <point x="-49" y="1096" type="line"/>
      <point x="-49" y="1288" type="line"/>
      <point x="1597" y="1288" type="line"/>
    </contour>
  </outline>
</glyph>
<glyph name="dabhadeva" format="1">
  <advance width="1646"/>
  <outline>
    <contour>
      <point x="-45" y="1096" type="line"/>
      <point x="-45" y="1288" type="line"/>
      <point x="1664" y="1288" type="line"/>
      <point x="1664" y="1096" type="line"/>
    </contour>
    <contour>
      <point x="1172" y="171" type="line"/>
      <point x="1384" y="237" type="line"/>
      <point x="1656" y="-280" type="line"/>
      <point x="1453" y="-365" type="line"/>
    </contour>
    <contour>
      <point x="1115" y="75" type="curve" smooth="yes"/>
      <point x="794" y="75"/>
      <point x="557" y="274"/>
      <point x="557" y="519" type="curve" smooth="yes"/>
      <point x="557" y="733"/>
      <point x="715" y="890"/>
      <point x="1036" y="890" type="curve" smooth="yes"/>
      <point x="1200" y="890" type="line"/>
      <point x="1153" y="837" type="line"/>
      <point x="1153" y="1131" type="line"/>
      <point x="1426" y="1131" type="line"/>
      <point x="1426" y="680" type="line"/>
      <point x="1143" y="680" type="line"/>
      <point x="915" y="680"/>
      <point x="834" y="587"/>
      <point x="834" y="469" type="curve" smooth="yes"/>
      <point x="834" y="352"/>
      <point x="950" y="265"/>
      <point x="1084" y="265" type="curve" smooth="yes"/>
      <point x="1131" y="265"/>
      <point x="1185" y="272"/>
      <point x="1264" y="299" type="curve"/>
      <point x="1156" y="207" type="line"/>
      <point x="1122" y="259"/>
      <point x="1106" y="316"/>
      <point x="1106" y="355" type="curve" smooth="yes"/>
      <point x="1106" y="412"/>
      <point x="1150" y="474"/>
      <point x="1261" y="474" type="curve" smooth="yes"/>
      <point x="1431" y="474"/>
      <point x="1555" y="388"/>
      <point x="1555" y="299" type="curve" smooth="yes"/>
      <point x="1555" y="196"/>
      <point x="1393" y="75"/>
    </contour>
    <contour>
      <point x="379" y="101" type="line"/>
      <point x="338" y="176"/>
      <point x="301" y="203"/>
      <point x="246" y="203" type="curve" smooth="yes"/>
      <point x="188" y="203"/>
      <point x="148" y="161"/>
      <point x="148" y="110" type="curve" smooth="yes"/>
      <point x="148" y="52"/>
      <point x="193" y="12"/>
      <point x="260" y="11" type="curve" smooth="yes"/>
      <point x="314" y="9"/>
      <point x="377" y="26"/>
      <point x="441" y="74" type="curve"/>
      <point x="508" y="-69" type="line"/>
      <point x="426" y="-123"/>
      <point x="361" y="-148"/>
      <point x="258" y="-148" type="curve" smooth="yes"/>
      <point x="74" y="-148"/>
      <point x="-70" y="-41"/>
      <point x="-70" y="131" type="curve" smooth="yes"/>
      <point x="-70" y="272"/>
      <point x="56" y="396"/>
      <point x="244" y="396" type="curve" smooth="yes"/>
      <point x="423" y="396"/>
      <point x="535" y="299"/>
      <point x="604" y="172" type="curve" smooth="yes"/>
      <point x="764" y="-119" type="line"/>
      <point x="717" y="-101" type="line"/>
      <point x="1224" y="163" type="line"/>
      <point x="1327" y="-27" type="line"/>
      <point x="808" y="-297" type="line"/>
      <point x="828" y="-239" type="line"/>
      <point x="880" y="-335" type="line"/>
      <point x="896" y="-364"/>
      <point x="903" y="-389"/>
      <point x="902" y="-412" type="curve" smooth="yes"/>
      <point x="899" y="-459"/>
      <point x="853" y="-491"/>
      <point x="767" y="-491" type="curve" smooth="yes"/>
      <point x="589" y="-491"/>
      <point x="413" y="-391"/>
      <point x="413" y="-313" type="curve" smooth="yes"/>
      <point x="413" y="-282"/>
      <point x="431" y="-252"/>
      <point x="465" y="-234" type="curve" smooth="yes"/>
      <point x="575" y="-174" type="line"/>
      <point x="552" y="-216" type="line"/>
    </contour>
    <contour>
      <point x="1773" y="-3" type="move" name="mark0"/>
    </contour>
  </outline>
</glyph>
<glyph name="dadadeva" format="1">
  <advance width="1167"/>
  <outline>
    <contour>
      <point x="814" y="-88" type="line"/>
      <point x="1026" y="-21" type="line"/>
      <point x="1222" y="-396" type="line"/>
      <point x="1011" y="-464" type="line"/>
    </contour>
    <contour>
      <point x="1234" y="1096" type="line"/>
      <point x="-43" y="1096" type="line"/>
      <point x="-43" y="1288" type="line"/>
      <point x="1234" y="1288" type="line"/>
    </contour>
    <contour>
      <point x="483" y="202" type="curve" smooth="yes"/>
      <point x="483" y="84"/>
      <point x="592" y="7"/>
      <point x="726" y="7" type="curve" smooth="yes"/>
      <point x="773" y="7"/>
      <point x="827" y="13"/>
      <point x="906" y="40" type="curve"/>
      <point x="798" y="-51" type="line"/>
      <point x="764" y="1"/>
      <point x="748" y="58"/>
      <point x="748" y="97" type="curve" smooth="yes"/>
      <point x="748" y="154"/>
      <point x="792" y="216"/>
      <point x="903" y="216" type="curve" smooth="yes"/>
      <point x="1073" y="216"/>
      <point x="1197" y="130"/>
      <point x="1197" y="41" type="curve" smooth="yes"/>
      <point x="1197" y="-63"/>
      <point x="1032" y="-183"/>
      <point x="757" y="-183" type="curve" smooth="yes"/>
      <point x="431" y="-183"/>
      <point x="214" y="-2"/>
      <point x="214" y="243" type="curve" smooth="yes"/>
      <point x="214" y="479"/>
      <point x="440" y="596"/>
      <point x="709" y="595" type="curve" smooth="yes"/>
      <point x="829" y="594"/>
      <point x="916" y="578"/>
      <point x="1024" y="545" type="curve"/>
      <point x="989" y="365" type="line"/>
      <point x="899" y="385"/>
      <point x="848" y="392"/>
      <point x="752" y="392" type="curve" smooth="yes"/>
      <point x="577" y="392"/>
      <point x="483" y="315"/>
    </contour>
    <contour>
      <point x="525" y="542" type="curve"/>
      <point x="387" y="395" type="line"/>
      <point x="209" y="481"/>
      <point x="136" y="594"/>
      <point x="136" y="719" type="curve" smooth="yes"/>
      <point x="136" y="837"/>
      <point x="226" y="947"/>
      <point x="454" y="947" type="curve" smooth="yes"/>
      <point x="765" y="947" type="line"/>
      <point x="705" y="888" type="line"/>
      <point x="705" y="1121" type="line"/>
      <point x="978" y="1121" type="line"/>
      <point x="978" y="758" type="line"/>
      <point x="527" y="758" type="line"/>
      <point x="435" y="758"/>
      <point x="400" y="719"/>
      <point x="400" y="670" type="curve" smooth="yes"/>
      <point x="400" y="621"/>
      <point x="436" y="579"/>
    </contour>
    <contour>
      <point x="940" y="-3" type="move" name="mark0"/>
    </contour>
  </outline>
</glyph>
<glyph name="dadhadeva" format="1">
  <advance width="1504"/>
  <outline>
    <contour>
      <point x="1029" y="171" type="line"/>
      <point x="1240" y="237" type="line"/>
      <point x="1512" y="-280" type="line"/>
      <point x="1310" y="-365" type="line"/>
    </contour>
    <contour>
      <point x="838" y="122" type="line"/>
      <point x="710" y="70"/>
      <point x="668" y="-15"/>
      <point x="667" y="-70" type="curve" smooth="yes"/>
      <point x="666" y="-130"/>
      <point x="709" y="-175"/>
      <point x="774" y="-174" type="curve" smooth="yes"/>
      <point x="916" y="-172"/>
      <point x="1039" y="-23"/>
      <point x="1033" y="194" type="curve"/>
      <point x="1203" y="-122" type="line"/>
      <point x="1111" y="-279"/>
      <point x="961" y="-377"/>
      <point x="790" y="-377" type="curve" smooth="yes"/>
      <point x="564" y="-377"/>
      <point x="431" y="-247"/>
      <point x="431" y="-73" type="curve" smooth="yes"/>
      <point x="431" y="45"/>
      <point x="492" y="162"/>
      <point x="675" y="271" type="curve"/>
    </contour>
    <contour>
      <point x="-31" y="1096" type="line"/>
      <point x="-31" y="1288" type="line"/>
      <point x="1521" y="1288" type="line"/>
      <point x="1521" y="1096" type="line"/>
    </contour>
    <contour>
      <point x="972" y="75" type="curve" smooth="yes"/>
      <point x="651" y="75"/>
      <point x="414" y="274"/>
      <point x="414" y="519" type="curve" smooth="yes"/>
      <point x="414" y="733"/>
      <point x="572" y="890"/>
      <point x="893" y="890" type="curve" smooth="yes"/>
      <point x="1057" y="890" type="line"/>
      <point x="1009" y="837" type="line"/>
      <point x="1009" y="1131" type="line"/>
      <point x="1283" y="1131" type="line"/>
      <point x="1283" y="680" type="line"/>
      <point x="1000" y="680" type="line"/>
      <point x="772" y="680"/>
      <point x="690" y="587"/>
      <point x="690" y="469" type="curve" smooth="yes"/>
      <point x="690" y="352"/>
      <point x="807" y="265"/>
      <point x="941" y="265" type="curve" smooth="yes"/>
      <point x="988" y="265"/>
      <point x="1041" y="272"/>
      <point x="1121" y="299" type="curve"/>
      <point x="1013" y="207" type="line"/>
      <point x="979" y="259"/>
      <point x="963" y="316"/>
      <point x="963" y="355" type="curve" smooth="yes"/>
      <point x="963" y="412"/>
      <point x="1007" y="474"/>
      <point x="1118" y="474" type="curve" smooth="yes"/>
      <point x="1288" y="474"/>
      <point x="1411" y="388"/>
      <point x="1411" y="299" type="curve" smooth="yes"/>
      <point x="1411" y="196"/>
      <point x="1250" y="75"/>
    </contour>
    <contour>
      <point x="516" y="22" type="line"/>
      <point x="451" y="-7"/>
      <point x="392" y="-18"/>
      <point x="319" y="-18" type="curve" smooth="yes"/>
      <point x="110" y="-18"/>
      <point x="-23" y="110"/>
      <point x="-23" y="271" type="curve" smooth="yes"/>
      <point x="-23" y="392"/>
      <point x="30" y="498"/>
      <point x="131" y="578" type="curve"/>
      <point x="296" y="456" type="line"/>
      <point x="248" y="390"/>
      <point x="230" y="346"/>
      <point x="230" y="288" type="curve" smooth="yes"/>
      <point x="230" y="211"/>
      <point x="289" y="161"/>
      <point x="386" y="163" type="curve" smooth="yes"/>
      <point x="472" y="164"/>
      <point x="541" y="186"/>
      <point x="606" y="217" type="curve"/>
    </contour>
    <contour>
      <point x="1673" y="-3" type="move" name="mark0"/>
    </contour>
  </outline>
</glyph>
<glyph name="dadhayadeva" format="1">
  <advance width="2325"/>
  <outline>
    <contour>
      <point x="937" y="122" type="line"/>
      <point x="809" y="70"/>
      <point x="766" y="-15"/>
      <point x="766" y="-70" type="curve" smooth="yes"/>
      <point x="765" y="-130"/>
      <point x="808" y="-175"/>
      <point x="873" y="-174" type="curve" smooth="yes"/>
      <point x="1015" y="-172"/>
      <point x="1138" y="-23"/>
      <point x="1132" y="194" type="curve"/>
      <point x="1349" y="-29" type="line"/>
      <point x="1265" y="-220"/>
      <point x="1126" y="-377"/>
      <point x="889" y="-377" type="curve" smooth="yes"/>
      <point x="662" y="-377"/>
      <point x="530" y="-247"/>
      <point x="530" y="-73" type="curve" smooth="yes"/>
      <point x="530" y="45"/>
      <point x="591" y="162"/>
      <point x="774" y="271" type="curve"/>
    </contour>
    <contour>
      <point x="-34" y="1096" type="line"/>
      <point x="-34" y="1288" type="line"/>
      <point x="2349" y="1288" type="line"/>
      <point x="2349" y="1096" type="line"/>
    </contour>
    <contour>
      <point x="1071" y="75" type="curve" smooth="yes"/>
      <point x="750" y="75"/>
      <point x="513" y="274"/>
      <point x="513" y="519" type="curve" smooth="yes"/>
      <point x="513" y="733"/>
      <point x="671" y="890"/>
      <point x="992" y="890" type="curve" smooth="yes"/>
      <point x="1156" y="890" type="line"/>
      <point x="1108" y="837" type="line"/>
      <point x="1108" y="1131" type="line"/>
      <point x="1382" y="1131" type="line"/>
      <point x="1382" y="680" type="line"/>
      <point x="1099" y="680" type="line"/>
      <point x="871" y="680"/>
      <point x="789" y="587"/>
      <point x="789" y="469" type="curve" smooth="yes"/>
      <point x="789" y="352"/>
      <point x="906" y="265"/>
      <point x="1040" y="265" type="curve" smooth="yes"/>
      <point x="1086" y="265"/>
      <point x="1140" y="272"/>
      <point x="1219" y="299" type="curve"/>
      <point x="1111" y="207" type="line"/>
      <point x="1078" y="259"/>
      <point x="1062" y="316"/>
      <point x="1062" y="355" type="curve" smooth="yes"/>
      <point x="1062" y="412"/>
      <point x="1106" y="474"/>
      <point x="1217" y="474" type="curve" smooth="yes"/>
      <point x="1387" y="474"/>
      <point x="1510" y="388"/>
      <point x="1510" y="299" type="curve" smooth="yes"/>
      <point x="1510" y="196"/>
      <point x="1349" y="75"/>
    </contour>
    <contour>
      <point x="615" y="22" type="line"/>
      <point x="550" y="-7"/>
      <point x="491" y="-18"/>
      <point x="418" y="-18" type="curve" smooth="yes"/>
      <point x="209" y="-18"/>
      <point x="76" y="110"/>
      <point x="76" y="271" type="curve" smooth="yes"/>
      <point x="76" y="392"/>
      <point x="129" y="498"/>
      <point x="230" y="578" type="curve"/>
      <point x="395" y="456" type="line"/>
      <point x="347" y="390"/>
      <point x="329" y="346"/>
      <point x="329" y="288" type="curve" smooth="yes"/>
      <point x="329" y="211"/>
      <point x="388" y="161"/>
      <point x="485" y="163" type="curve" smooth="yes"/>
      <point x="571" y="164"/>
      <point x="640" y="186"/>
      <point x="705" y="217" type="curve"/>
    </contour>
    <contour>
      <point x="1270" y="196" type="line"/>
      <point x="1355" y="38"/>
      <point x="1436" y="-23"/>
      <point x="1573" y="-23" type="curve" smooth="yes"/>
      <point x="1700" y="-23"/>
      <point x="1821" y="52"/>
      <point x="1884" y="172" type="curve"/>
      <point x="1884" y="-205" type="line"/>
      <point x="1823" y="-236"/>
      <point x="1756" y="-253"/>
      <point x="1646" y="-253" type="curve" smooth="yes"/>
      <point x="1449" y="-253"/>
      <point x="1225" y="-156"/>
      <point x="1093" y="150" type="curve"/>
    </contour>
    <contour>
      <point x="1838" y="1132" type="line"/>
      <point x="2126" y="1132" type="line"/>
      <point x="2126" y="-455" type="line"/>
      <point x="1838" y="-455" type="line"/>
    </contour>
  </outline>
</glyph>
<glyph name="dagadeva" format="1">
  <advance width="1168"/>
  <outline>
    <contour>
      <point x="472" y="254" type="line"/>
      <point x="532" y="-272" type="line"/>
      <point x="541" y="-351"/>
      <point x="522" y="-393"/>
      <point x="441" y="-393" type="curve" smooth="yes"/>
      <point x="311" y="-393"/>
      <point x="107" y="-267"/>
      <point x="107" y="-164" type="curve" smooth="yes"/>
      <point x="107" y="-120"/>
      <point x="135" y="-89"/>
      <point x="197" y="-81" type="curve" smooth="yes"/>
      <point x="301" y="-69" type="line"/>
      <point x="270" y="-107" type="line"/>
      <point x="232" y="228" type="line"/>
    </contour>
    <contour>
      <point x="-119" y="1096" type="line"/>
      <point x="-119" y="1288" type="line"/>
      <point x="1187" y="1288" type="line"/>
      <point x="1187" y="1096" type="line"/>
    </contour>
    <contour>
      <point x="694" y="171" type="line"/>
      <point x="906" y="237" type="line"/>
      <point x="1073" y="-308" type="line"/>
      <point x="862" y="-373" type="line"/>
    </contour>
    <contour>
      <point x="638" y="75" type="curve" smooth="yes"/>
      <point x="317" y="75"/>
      <point x="79" y="274"/>
      <point x="79" y="519" type="curve" smooth="yes"/>
      <point x="79" y="733"/>
      <point x="237" y="890"/>
      <point x="558" y="890" type="curve" smooth="yes"/>
      <point x="722" y="890" type="line"/>
      <point x="675" y="837" type="line"/>
      <point x="675" y="1131" type="line"/>
      <point x="949" y="1131" type="line"/>
      <point x="949" y="680" type="line"/>
      <point x="665" y="680" type="line"/>
      <point x="437" y="680"/>
      <point x="356" y="587"/>
      <point x="356" y="469" type="curve" smooth="yes"/>
      <point x="356" y="352"/>
      <point x="472" y="265"/>
      <point x="606" y="265" type="curve" smooth="yes"/>
      <point x="653" y="265"/>
      <point x="707" y="272"/>
      <point x="786" y="299" type="curve"/>
      <point x="678" y="207" type="line"/>
      <point x="645" y="259"/>
      <point x="631" y="316"/>
      <point x="631" y="355" type="curve" smooth="yes"/>
      <point x="631" y="412"/>
      <point x="675" y="474"/>
      <point x="786" y="474" type="curve" smooth="yes"/>
      <point x="956" y="474"/>
      <point x="1077" y="388"/>
      <point x="1077" y="299" type="curve" smooth="yes"/>
      <point x="1077" y="196"/>
      <point x="916" y="75"/>
    </contour>
    <contour>
      <point x="949" y="-3" type="move" name="mark0"/>
    </contour>
  </outline>
</glyph>
<glyph name="damadeva" format="1">
  <advance width="1764"/>
  <outline>
    <contour>
      <point x="1274" y="1132" type="line"/>
      <point x="1562" y="1132" type="line"/>
      <point x="1562" y="0" type="line"/>
      <point x="1274" y="0" type="line"/>
    </contour>
    <contour>
      <point x="1325" y="420" type="line"/>
      <point x="1325" y="203" type="line"/>
      <point x="958" y="203" type="line"/>
      <point x="1004" y="246" type="line"/>
      <point x="1004" y="140" type="line"/>
      <point x="1004" y="65"/>
      <point x="976" y="22"/>
      <point x="901" y="22" type="curve" smooth="yes"/>
      <point x="755" y="22"/>
      <point x="603" y="210"/>
      <point x="603" y="309" type="curve" smooth="yes"/>
      <point x="603" y="385"/>
      <point x="637" y="420"/>
      <point x="704" y="420" type="curve" smooth="yes"/>
    </contour>
    <contour>
      <point x="1785" y="1096" type="line"/>
      <point x="-52" y="1096" type="line"/>
      <point x="-52" y="1288" type="line"/>
      <point x="1785" y="1288" type="line"/>
    </contour>
    <contour>
      <point x="630" y="1121" type="line"/>
      <point x="903" y="1121" type="line"/>
      <point x="903" y="773" type="line"/>
      <point x="510" y="773" type="line"/>
      <point x="417" y="773"/>
      <point x="384" y="743"/>
      <point x="384" y="697" type="curve" smooth="yes"/>
      <point x="384" y="653"/>
      <point x="422" y="627"/>
      <point x="492" y="627" type="curve" smooth="yes"/>
      <point x="649" y="627" type="line"/>
      <point x="899" y="627"/>
      <point x="998" y="492"/>
      <point x="1002" y="349" type="curve" smooth="yes"/>
      <point x="1004" y="272" type="line"/>
      <point x="738" y="265" type="line"/>
      <point x="738" y="348" type="line"/>
      <point x="738" y="399"/>
      <point x="711" y="429"/>
      <point x="626" y="429" type="curve" smooth="yes"/>
      <point x="453" y="429" type="line"/>
      <point x="242" y="429"/>
      <point x="121" y="567"/>
      <point x="121" y="712" type="curve" smooth="yes"/>
      <point x="121" y="858"/>
      <point x="211" y="962"/>
      <point x="439" y="962" type="curve" smooth="yes"/>
      <point x="690" y="962" type="line"/>
      <point x="630" y="902" type="line"/>
    </contour>
  </outline>
</glyph>
<glyph name="danuktarvocalicdeva" format="1">
  <advance width="1266"/>
  <outline>
    <component base="darvocalicdeva"/>
    <component base="nuktadeva" xOffset="996" yOffset="142"/>
    <contour>
      <point x="644" y="1274" type="move" name="mark0"/>
    </contour>
  </outline>
</glyph>
<glyph name="daradeva" format="1">
  <advance width="1167"/>
  <outline>
    <contour>
      <point x="916" y="144" type="line"/>
      <point x="208" y="-225" type="line"/>
      <point x="72" y="-30" type="line"/>
      <point x="791" y="329" type="line"/>
    </contour>
    <component base="dadeva"/>
    <contour>
      <point x="931" y="-3" type="move" name="mark0"/>
    </contour>
  </outline>
</glyph>
<glyph name="darvocalicdeva" format="1">
  <advance width="1167"/>
  <outline>
    <contour>
      <point x="-21" y="1096" type="line"/>
      <point x="-21" y="1288" type="line"/>
      <point x="1182" y="1288" type="line"/>
      <point x="1182" y="1096" type="line"/>
    </contour>
    <contour>
      <point x="636" y="75" type="curve" smooth="yes"/>
      <point x="315" y="75"/>
      <point x="78" y="274"/>
      <point x="78" y="519" type="curve" smooth="yes"/>
      <point x="78" y="733"/>
      <point x="236" y="890"/>
      <point x="557" y="890" type="curve" smooth="yes"/>
      <point x="721" y="890" type="line"/>
      <point x="673" y="837" type="line"/>
      <point x="673" y="1131" type="line"/>
      <point x="947" y="1131" type="line"/>
      <point x="947" y="680" type="line"/>
      <point x="664" y="680" type="line"/>
      <point x="436" y="680"/>
      <point x="354" y="587"/>
      <point x="354" y="469" type="curve" smooth="yes"/>
      <point x="354" y="352"/>
      <point x="471" y="265"/>
      <point x="605" y="265" type="curve" smooth="yes"/>
      <point x="652" y="265"/>
      <point x="705" y="272"/>
      <point x="785" y="299" type="curve"/>
      <point x="677" y="207" type="line"/>
      <point x="643" y="259"/>
      <point x="627" y="316"/>
      <point x="627" y="355" type="curve" smooth="yes"/>
      <point x="627" y="412"/>
      <point x="671" y="474"/>
      <point x="782" y="474" type="curve" smooth="yes"/>
      <point x="952" y="474"/>
      <point x="1075" y="388"/>
      <point x="1075" y="299" type="curve" smooth="yes"/>
      <point x="1075" y="196"/>
      <point x="914" y="75"/>
    </contour>
    <contour>
      <point x="1113" y="-159" type="line"/>
      <point x="1106" y="-183" type="line"/>
      <point x="1077" y="-183"/>
      <point x="1001" y="-183"/>
      <point x="971" y="-183" type="curve"/>
      <point x="852" y="-183"/>
      <point x="789" y="-250"/>
      <point x="789" y="-318" type="curve" smooth="yes"/>
      <point x="789" y="-373"/>
      <point x="831" y="-417"/>
      <point x="923" y="-417" type="curve" smooth="yes"/>
      <point x="980" y="-417"/>
      <point x="1041" y="-404"/>
      <point x="1125" y="-371" type="curve"/>
      <point x="1156" y="-556" type="line"/>
      <point x="1052" y="-588"/>
      <point x="1004" y="-595"/>
      <point x="923" y="-595" type="curve" smooth="yes"/>
      <point x="716" y="-595"/>
      <point x="544" y="-483"/>
      <point x="544" y="-295" type="curve" smooth="yes"/>
      <point x="544" y="-135"/>
      <point x="680" y="-32"/>
      <point x="840" y="-20" type="curve"/>
      <point x="808" y="-51" type="line"/>
      <point x="693" y="171" type="line"/>
      <point x="904" y="237" type="line"/>
    </contour>
    <contour>
      <point x="644" y="1271" type="move" name="mark0"/>
    </contour>
  </outline>
</glyph>
<glyph name="davadeva" format="1">
  <advance width="1168"/>
  <outline>
    <contour>
      <point x="694" y="171" type="line"/>
      <point x="906" y="237" type="line"/>
      <point x="1178" y="-280" type="line"/>
      <point x="976" y="-365" type="line"/>
    </contour>
    <contour>
      <point x="488" y="156" type="line"/>
      <point x="358" y="108"/>
      <point x="305" y="14"/>
      <point x="304" y="-57" type="curve" smooth="yes"/>
      <point x="304" y="-132"/>
      <point x="361" y="-178"/>
      <point x="438" y="-178" type="curve" smooth="yes"/>
      <point x="575" y="-178"/>
      <point x="719" y="-24"/>
      <point x="720" y="180" type="curve"/>
      <point x="883" y="-143" type="line"/>
      <point x="776" y="-284"/>
      <point x="639" y="-371"/>
      <point x="445" y="-371" type="curve" smooth="yes"/>
      <point x="252" y="-371"/>
      <point x="60" y="-231"/>
      <point x="60" y="-43" type="curve" smooth="yes"/>
      <point x="60" y="93"/>
      <point x="124" y="206"/>
      <point x="289" y="299" type="curve"/>
    </contour>
    <contour>
      <point x="-119" y="1096" type="line"/>
      <point x="-119" y="1288" type="line"/>
      <point x="1187" y="1288" type="line"/>
      <point x="1187" y="1096" type="line"/>
    </contour>
    <contour>
      <point x="638" y="75" type="curve" smooth="yes"/>
      <point x="317" y="75"/>
      <point x="79" y="274"/>
      <point x="79" y="519" type="curve" smooth="yes"/>
      <point x="79" y="733"/>
      <point x="237" y="890"/>
      <point x="558" y="890" type="curve" smooth="yes"/>
      <point x="722" y="890" type="line"/>
      <point x="675" y="837" type="line"/>
      <point x="675" y="1131" type="line"/>
      <point x="949" y="1131" type="line"/>
      <point x="949" y="680" type="line"/>
      <point x="665" y="680" type="line"/>
      <point x="437" y="680"/>
      <point x="356" y="587"/>
      <point x="356" y="469" type="curve" smooth="yes"/>
      <point x="356" y="352"/>
      <point x="472" y="265"/>
      <point x="606" y="265" type="curve" smooth="yes"/>
      <point x="653" y="265"/>
      <point x="707" y="272"/>
      <point x="786" y="299" type="curve"/>
      <point x="678" y="207" type="line"/>
      <point x="644" y="259"/>
      <point x="628" y="316"/>
      <point x="628" y="355" type="curve" smooth="yes"/>
      <point x="628" y="412"/>
      <point x="672" y="474"/>
      <point x="783" y="474" type="curve" smooth="yes"/>
      <point x="953" y="474"/>
      <point x="1077" y="388"/>
      <point x="1077" y="299" type="curve" smooth="yes"/>
      <point x="1077" y="196"/>
      <point x="916" y="75"/>
    </contour>
    <contour>
      <point x="963" y="-3" type="move" name="mark0"/>
    </contour>
  </outline>
</glyph>
<glyph name="dayadeva" format="1">
  <advance width="1446"/>
  <outline>
    <contour>
      <point x="374" y="1138" type="line"/>
      <point x="662" y="1138" type="line"/>
      <point x="662" y="883" type="line"/>
      <point x="374" y="883" type="line"/>
    </contour>
    <contour>
      <point x="795" y="494" type="line"/>
      <point x="784" y="494" type="line"/>
      <point x="599" y="483"/>
      <point x="542" y="433"/>
      <point x="542" y="371" type="curve" smooth="yes"/>
      <point x="542" y="315"/>
      <point x="593" y="277"/>
      <point x="681" y="277" type="curve" smooth="yes"/>
      <point x="814" y="279"/>
      <point x="947" y="365"/>
      <point x="1014" y="472" type="curve"/>
      <point x="1016" y="146" type="line"/>
      <point x="929" y="105"/>
      <point x="825" y="82"/>
      <point x="708" y="82" type="curve" smooth="yes"/>
      <point x="445" y="82"/>
      <point x="282" y="236"/>
      <point x="282" y="398" type="curve" smooth="yes"/>
      <point x="282" y="535"/>
      <point x="402" y="680"/>
      <point x="715" y="680" type="curve" smooth="yes"/>
      <point x="723" y="680" type="line"/>
    </contour>
    <contour>
      <point x="364" y="479" type="line"/>
      <point x="155" y="522"/>
      <point x="23" y="634"/>
      <point x="23" y="772" type="curve" smooth="yes"/>
      <point x="23" y="906"/>
      <point x="158" y="991"/>
      <point x="367" y="991" type="curve" smooth="yes"/>
      <point x="489" y="991"/>
      <point x="576" y="991"/>
      <point x="662" y="980" type="curve"/>
      <point x="662" y="833" type="line"/>
      <point x="605" y="833"/>
      <point x="530" y="833"/>
      <point x="474" y="833" type="curve" smooth="yes"/>
      <point x="356" y="833"/>
      <point x="306" y="790"/>
      <point x="306" y="730" type="curve" smooth="yes"/>
      <point x="306" y="667"/>
      <point x="390" y="616"/>
      <point x="557" y="613" type="curve"/>
    </contour>
    <contour>
      <point x="955" y="1132" type="line"/>
      <point x="1244" y="1132" type="line"/>
      <point x="1244" y="-1" type="line"/>
      <point x="955" y="-1" type="line"/>
    </contour>
    <contour>
      <point x="1467" y="1096" type="line"/>
      <point x="-44" y="1096" type="line"/>
      <point x="-44" y="1288" type="line"/>
      <point x="1467" y="1288" type="line"/>
    </contour>
  </outline>
</glyph>
<glyph name="ddaddadeva" format="1">
  <advance width="1179"/>
  <outline>
    <contour>
      <point x="669" y="213" type="line"/>
      <point x="922" y="213" type="line"/>
      <point x="922" y="-113" type="line"/>
      <point x="529" y="-113" type="line"/>
      <point x="449" y="-113"/>
      <point x="415" y="-146"/>
      <point x="415" y="-187" type="curve" smooth="yes"/>
      <point x="415" y="-225"/>
      <point x="445" y="-251"/>
      <point x="516" y="-282" type="curve"/>
      <point x="430" y="-269" type="line"/>
      <point x="530" y="-228"/>
      <point x="593" y="-215"/>
      <point x="701" y="-215" type="curve" smooth="yes"/>
      <point x="926" y="-215"/>
      <point x="1038" y="-331"/>
      <point x="1038" y="-470" type="curve" smooth="yes"/>
      <point x="1038" y="-612"/>
      <point x="912" y="-739"/>
      <point x="618" y="-739" type="curve" smooth="yes"/>
      <point x="439" y="-739"/>
      <point x="305" y="-693"/>
      <point x="125" y="-601" type="curve"/>
      <point x="168" y="-422" type="line"/>
      <point x="343" y="-520"/>
      <point x="487" y="-564"/>
      <point x="599" y="-564" type="curve" smooth="yes"/>
      <point x="729" y="-564"/>
      <point x="794" y="-517"/>
      <point x="794" y="-469" type="curve" smooth="yes"/>
      <point x="794" y="-428"/>
      <point x="755" y="-399"/>
      <point x="680" y="-399" type="curve" smooth="yes"/>
      <point x="603" y="-399"/>
      <point x="549" y="-414"/>
      <point x="476" y="-443" type="curve"/>
      <point x="458" y="-443" type="line"/>
      <point x="253" y="-360"/>
      <point x="171" y="-258"/>
      <point x="171" y="-143" type="curve" smooth="yes"/>
      <point x="171" y="-41"/>
      <point x="255" y="52"/>
      <point x="463" y="52" type="curve" smooth="yes"/>
      <point x="725" y="52" type="line"/>
      <point x="669" y="0" type="line"/>
    </contour>
    <contour>
      <point x="698" y="1177" type="line"/>
      <point x="960" y="1177" type="line"/>
      <point x="960" y="787" type="line"/>
      <point x="535" y="787" type="line"/>
      <point x="448" y="787"/>
      <point x="419" y="754"/>
      <point x="419" y="709" type="curve" smooth="yes"/>
      <point x="419" y="668"/>
      <point x="452" y="638"/>
      <point x="524" y="606" type="curve"/>
      <point x="435" y="619" type="line"/>
      <point x="539" y="661"/>
      <point x="604" y="674"/>
      <point x="713" y="674" type="curve" smooth="yes"/>
      <point x="947" y="674"/>
      <point x="1065" y="554"/>
      <point x="1065" y="405" type="curve" smooth="yes"/>
      <point x="1065" y="254"/>
      <point x="932" y="125"/>
      <point x="630" y="125" type="curve" smooth="yes"/>
      <point x="444" y="125"/>
      <point x="305" y="173"/>
      <point x="118" y="267" type="curve"/>
      <point x="163" y="452" type="line"/>
      <point x="344" y="353"/>
      <point x="495" y="305"/>
      <point x="611" y="305" type="curve" smooth="yes"/>
      <point x="743" y="305"/>
      <point x="814" y="354"/>
      <point x="814" y="407" type="curve" smooth="yes"/>
      <point x="814" y="455"/>
      <point x="773" y="483"/>
      <point x="694" y="483" type="curve" smooth="yes"/>
      <point x="614" y="483"/>
      <point x="558" y="468"/>
      <point x="482" y="439" type="curve"/>
      <point x="464" y="438" type="line"/>
      <point x="253" y="525"/>
      <point x="168" y="635"/>
      <point x="168" y="754" type="curve" smooth="yes"/>
      <point x="168" y="861"/>
      <point x="253" y="956"/>
      <point x="467" y="956" type="curve" smooth="yes"/>
      <point x="757" y="956" type="line"/>
      <point x="698" y="903" type="line"/>
    </contour>
    <contour>
      <point x="1209" y="1096" type="line"/>
      <point x="-33" y="1096" type="line"/>
      <point x="-33" y="1288" type="line"/>
      <point x="1209" y="1288" type="line"/>
    </contour>
    <contour>
      <point x="981" y="1271" type="move" name="mark0"/>
    </contour>
  </outline>
</glyph>
<glyph name="ddhaddhadeva" format="1">
  <advance width="1178"/>
  <outline>
    <contour>
      <point x="624" y="220" type="line"/>
      <point x="878" y="220" type="line"/>
      <point x="878" y="-129" type="line"/>
      <point x="591" y="-129" type="line"/>
      <point x="379" y="-129"/>
      <point x="302" y="-220"/>
      <point x="302" y="-334" type="curve" smooth="yes"/>
      <point x="302" y="-452"/>
      <point x="440" y="-554"/>
      <point x="635" y="-554" type="curve" smooth="yes"/>
      <point x="774" y="-554"/>
      <point x="843" y="-502"/>
      <point x="843" y="-443" type="curve" smooth="yes"/>
      <point x="843" y="-401"/>
      <point x="809" y="-378"/>
      <point x="763" y="-378" type="curve" smooth="yes"/>
      <point x="689" y="-378"/>
      <point x="633" y="-428"/>
      <point x="633" y="-494" type="curve" smooth="yes"/>
      <point x="633" y="-534"/>
      <point x="647" y="-572"/>
      <point x="665" y="-609" type="curve"/>
      <point x="472" y="-629" type="line"/>
      <point x="435" y="-573"/>
      <point x="424" y="-529"/>
      <point x="424" y="-466" type="curve" smooth="yes"/>
      <point x="424" y="-345"/>
      <point x="534" y="-229"/>
      <point x="745" y="-229" type="curve" smooth="yes"/>
      <point x="943" y="-229"/>
      <point x="1057" y="-318"/>
      <point x="1057" y="-453" type="curve" smooth="yes"/>
      <point x="1057" y="-574"/>
      <point x="933" y="-696"/>
      <point x="644" y="-696" type="curve" smooth="yes"/>
      <point x="270" y="-696"/>
      <point x="57" y="-484"/>
      <point x="57" y="-286" type="curve" smooth="yes"/>
      <point x="57" y="-105"/>
      <point x="181" y="40"/>
      <point x="504" y="40" type="curve" smooth="yes"/>
      <point x="661" y="40" type="line"/>
      <point x="624" y="10" type="line"/>
    </contour>
    <contour>
      <point x="673" y="1134" type="line"/>
      <point x="936" y="1134" type="line"/>
      <point x="936" y="758" type="line"/>
      <point x="638" y="758" type="line"/>
      <point x="419" y="758"/>
      <point x="339" y="657"/>
      <point x="339" y="537" type="curve" smooth="yes"/>
      <point x="339" y="414"/>
      <point x="478" y="308"/>
      <point x="686" y="308" type="curve" smooth="yes"/>
      <point x="830" y="308"/>
      <point x="901" y="362"/>
      <point x="901" y="421" type="curve" smooth="yes"/>
      <point x="901" y="467"/>
      <point x="866" y="492"/>
      <point x="818" y="492" type="curve" smooth="yes"/>
      <point x="741" y="492"/>
      <point x="683" y="438"/>
      <point x="683" y="371" type="curve" smooth="yes"/>
      <point x="683" y="329"/>
      <point x="697" y="290"/>
      <point x="714" y="252" type="curve"/>
      <point x="518" y="230" type="line"/>
      <point x="479" y="288"/>
      <point x="468" y="334"/>
      <point x="468" y="401" type="curve" smooth="yes"/>
      <point x="468" y="525"/>
      <point x="582" y="646"/>
      <point x="799" y="646" type="curve" smooth="yes"/>
      <point x="1003" y="646"/>
      <point x="1122" y="555"/>
      <point x="1122" y="412" type="curve" smooth="yes"/>
      <point x="1122" y="287"/>
      <point x="994" y="159"/>
      <point x="696" y="159" type="curve" smooth="yes"/>
      <point x="308" y="159"/>
      <point x="86" y="381"/>
      <point x="86" y="588" type="curve" smooth="yes"/>
      <point x="86" y="779"/>
      <point x="216" y="931"/>
      <point x="549" y="931" type="curve" smooth="yes"/>
      <point x="714" y="931" type="line"/>
      <point x="673" y="901" type="line"/>
    </contour>
    <contour>
      <point x="1206" y="1096" type="line"/>
      <point x="-43" y="1096" type="line"/>
      <point x="-43" y="1288" type="line"/>
      <point x="1206" y="1288" type="line"/>
    </contour>
    <contour>
      <point x="705" y="1271" type="move" name="mark0"/>
    </contour>
  </outline>
</glyph>
<glyph name="ddhayadeva" format="1">
  <advance width="2521"/>
  <outline>
    <contour>
      <point x="2030" y="1132" type="line"/>
      <point x="2318" y="1132" type="line"/>
      <point x="2318" y="0" type="line"/>
      <point x="2030" y="0" type="line"/>
    </contour>
    <contour>
      <point x="894" y="720" type="line"/>
      <point x="894" y="913" type="line"/>
      <point x="1467" y="913" type="line"/>
      <point x="1678" y="913"/>
      <point x="1793" y="788"/>
      <point x="1793" y="659" type="curve" smooth="yes"/>
      <point x="1793" y="515"/>
      <point x="1684" y="427"/>
      <point x="1464" y="387" type="curve"/>
      <point x="1465" y="468" type="line"/>
      <point x="1534" y="375"/>
      <point x="1631" y="311"/>
      <point x="1743" y="311" type="curve" smooth="yes"/>
      <point x="1889" y="311"/>
      <point x="2014" y="397"/>
      <point x="2077" y="530" type="curve"/>
      <point x="2077" y="151" type="line"/>
      <point x="2015" y="107"/>
      <point x="1948" y="81"/>
      <point x="1825" y="81" type="curve" smooth="yes"/>
      <point x="1548" y="81"/>
      <point x="1321" y="256"/>
      <point x="1213" y="504" type="curve"/>
      <point x="1213" y="510" type="line"/>
      <point x="1429" y="548"/>
      <point x="1520" y="590"/>
      <point x="1520" y="655" type="curve" smooth="yes"/>
      <point x="1520" y="698"/>
      <point x="1480" y="720"/>
      <point x="1376" y="720" type="curve" smooth="yes"/>
    </contour>
    <contour>
      <point x="2542" y="1096" type="line"/>
      <point x="-46" y="1096" type="line"/>
      <point x="-46" y="1288" type="line"/>
      <point x="2542" y="1288" type="line"/>
    </contour>
    <contour>
      <point x="689" y="1126" type="line"/>
      <point x="963" y="1126" type="line"/>
      <point x="963" y="720" type="line"/>
      <point x="648" y="720" type="line"/>
      <point x="413" y="720"/>
      <point x="325" y="585"/>
      <point x="325" y="451" type="curve" smooth="yes"/>
      <point x="325" y="315"/>
      <point x="477" y="194"/>
      <point x="698" y="194" type="curve" smooth="yes"/>
      <point x="852" y="194"/>
      <point x="929" y="254"/>
      <point x="929" y="324" type="curve" smooth="yes"/>
      <point x="929" y="373"/>
      <point x="890" y="402"/>
      <point x="837" y="402" type="curve" smooth="yes"/>
      <point x="756" y="402"/>
      <point x="692" y="343"/>
      <point x="692" y="264" type="curve" smooth="yes"/>
      <point x="692" y="217"/>
      <point x="708" y="176"/>
      <point x="729" y="133" type="curve"/>
      <point x="521" y="109" type="line"/>
      <point x="480" y="174"/>
      <point x="468" y="224"/>
      <point x="468" y="297" type="curve" smooth="yes"/>
      <point x="468" y="438"/>
      <point x="590" y="594"/>
      <point x="817" y="594" type="curve" smooth="yes"/>
      <point x="1035" y="594"/>
      <point x="1160" y="469"/>
      <point x="1160" y="312" type="curve" smooth="yes"/>
      <point x="1160" y="173"/>
      <point x="1025" y="31"/>
      <point x="709" y="31" type="curve" smooth="yes"/>
      <point x="296" y="31"/>
      <point x="61" y="276"/>
      <point x="61" y="507" type="curve" smooth="yes"/>
      <point x="61" y="719"/>
      <point x="199" y="913"/>
      <point x="554" y="913" type="curve" smooth="yes"/>
      <point x="730" y="913" type="line"/>
      <point x="689" y="879" type="line"/>
    </contour>
  </outline>
</glyph>
<glyph name="ecandraanusvaradeva" format="1">
  <advance width="1315"/>
  <outline>
    <contour>
      <point x="0" y="0" type="line"/>
      <point x="1315" y="0" type="line"/>
      <point x="1315" y="20" type="line"/>
      <point x="0" y="20" type="line"/>
    </contour>
  </outline>
</glyph>
<glyph name="ecandravowelsignrephanusvardeva" format="1">
  <advance width="-1"/>
  <outline>
    <component base="rephanusvaradeva"/>
    <component base="ecandravowelsigndeva" xOffset="-481" yOffset="-1"/>
    <contour>
      <point x="49" y="8" type="move" name="x41"/>
    </contour>
    <contour>
      <point x="-424" y="1282" type="move" name="_mark0"/>
    </contour>
  </outline>
</glyph>
<glyph name="garadeva" format="1">
  <advance width="1407"/>
  <outline>
    <contour>
      <point x="1098" y="281" type="line"/>
      <point x="410" y="-112" type="line"/>
      <point x="281" y="94" type="line"/>
      <point x="965" y="473" type="line"/>
    </contour>
    <contour>
      <point x="582" y="1129" type="line"/>
      <point x="582" y="471" type="line" smooth="yes"/>
      <point x="582" y="386"/>
      <point x="561" y="339"/>
      <point x="483" y="339" type="curve" smooth="yes"/>
      <point x="340" y="339"/>
      <point x="93" y="519"/>
      <point x="90" y="641" type="curve" smooth="yes"/>
      <point x="89" y="703"/>
      <point x="123" y="745"/>
      <point x="207" y="745" type="curve" smooth="yes"/>
      <point x="336" y="745" type="line"/>
      <point x="294" y="706" type="line"/>
      <point x="294" y="1129" type="line"/>
    </contour>
    <contour>
      <point x="923" y="1132" type="line"/>
      <point x="1212" y="1132" type="line"/>
      <point x="1212" y="0" type="line"/>
      <point x="923" y="0" type="line"/>
    </contour>
    <contour>
      <point x="1435" y="1096" type="line"/>
      <point x="-30" y="1096" type="line"/>
      <point x="-30" y="1288" type="line"/>
      <point x="1435" y="1288" type="line"/>
    </contour>
  </outline>
</glyph>
<glyph name="ghaprehalfdeva" format="1">
  <advance width="825"/>
  <outline>
    <contour>
      <point x="354" y="710" type="line"/>
      <point x="146" y="768"/>
      <point x="44" y="898"/>
      <point x="44" y="1037" type="curve" smooth="yes"/>
      <point x="44" y="1105"/>
      <point x="62" y="1167"/>
      <point x="111" y="1219" type="curve"/>
      <point x="389" y="1151" type="line"/>
      <point x="346" y="1104"/>
      <point x="335" y="1067"/>
      <point x="335" y="1015" type="curve" smooth="yes"/>
      <point x="335" y="942"/>
      <point x="390" y="874"/>
      <point x="562" y="865" type="curve"/>
    </contour>
    <contour>
      <point x="-52" y="1096" type="line"/>
      <point x="-52" y="1288" type="line"/>
      <point x="1002" y="1288" type="line"/>
      <point x="1002" y="1096" type="line"/>
    </contour>
    <contour>
      <point x="926" y="697" type="curve"/>
      <point x="1075" y="500" type="line"/>
      <point x="912" y="381"/>
      <point x="781" y="282"/>
      <point x="598" y="247" type="curve" smooth="yes"/>
      <point x="391" y="214"/>
      <point x="295" y="342"/>
      <point x="329" y="489" type="curve" smooth="yes"/>
      <point x="370" y="617"/>
      <point x="498" y="779"/>
      <point x="775" y="814" type="curve"/>
      <point x="777" y="814"/>
      <point x="792" y="797"/>
      <point x="794" y="797" type="curve"/>
      <point x="747" y="757"/>
      <point x="777" y="531"/>
      <point x="733" y="531" type="curve" smooth="yes"/>
      <point x="680" y="531"/>
      <point x="643" y="563"/>
      <point x="642" y="612" type="curve" smooth="yes"/>
      <point x="555" y="652"/>
      <point x="513" y="654"/>
      <point x="588" y="601" type="curve" smooth="yes"/>
      <point x="588" y="567"/>
      <point x="619" y="542"/>
      <point x="667" y="542" type="curve"/>
      <point x="768" y="542"/>
      <point x="868" y="589"/>
    </contour>
  </outline>
</glyph>
<glyph name="hamadeva" format="1">
  <advance width="1870"/>
  <outline>
    <contour>
      <point x="405" y="119" type="curve" smooth="yes"/>
      <point x="405" y="-16"/>
      <point x="474" y="-133"/>
      <point x="728" y="-333" type="curve"/>
      <point x="565" y="-461" type="line"/>
      <point x="282" y="-247"/>
      <point x="165" y="-47"/>
      <point x="165" y="166" type="curve" smooth="yes"/>
      <point x="165" y="391"/>
      <point x="319" y="588"/>
      <point x="627" y="588" type="curve" smooth="yes"/>
      <point x="916" y="588"/>
      <point x="1114" y="420"/>
      <point x="1114" y="154" type="curve" smooth="yes"/>
      <point x="1114" y="97" type="line"/>
      <point x="1046" y="181" type="line"/>
      <point x="1448" y="181" type="line"/>
      <point x="1448" y="-43" type="line"/>
      <point x="1069" y="-43" type="line"/>
      <point x="1114" y="-1" type="line"/>
      <point x="1114" y="-121" type="line"/>
      <point x="1114" y="-196"/>
      <point x="1081" y="-239"/>
      <point x="1007" y="-239" type="curve" smooth="yes"/>
      <point x="896" y="-239"/>
      <point x="692" y="-56"/>
      <point x="692" y="75" type="curve" smooth="yes"/>
      <point x="692" y="138"/>
      <point x="733" y="181"/>
      <point x="808" y="181" type="curve" smooth="yes"/>
      <point x="893" y="181" type="line"/>
      <point x="868" y="126" type="line"/>
      <point x="868" y="190" type="line"/>
      <point x="868" y="310"/>
      <point x="787" y="378"/>
      <point x="645" y="378" type="curve" smooth="yes"/>
      <point x="511" y="378"/>
      <point x="405" y="285"/>
    </contour>
    <contour>
      <point x="769" y="1106" type="line"/>
      <point x="1057" y="1106" type="line"/>
      <point x="1057" y="750" type="line"/>
      <point x="504" y="750" type="line"/>
      <point x="392" y="750"/>
      <point x="350" y="705"/>
      <point x="350" y="645" type="curve" smooth="yes"/>
      <point x="350" y="588"/>
      <point x="394" y="550"/>
      <point x="498" y="517" type="curve"/>
      <point x="307" y="377" type="line"/>
      <point x="152" y="468"/>
      <point x="71" y="574"/>
      <point x="71" y="705" type="curve" smooth="yes"/>
      <point x="71" y="839"/>
      <point x="177" y="942"/>
      <point x="387" y="942" type="curve" smooth="yes"/>
      <point x="808" y="942" type="line"/>
      <point x="769" y="889" type="line"/>
    </contour>
    <contour>
      <point x="-22" y="1096" type="line"/>
      <point x="-22" y="1288" type="line"/>
      <point x="1894" y="1288" type="line"/>
      <point x="1894" y="1096" type="line"/>
    </contour>
    <contour>
      <point x="1383" y="1132" type="line"/>
      <point x="1671" y="1132" type="line"/>
      <point x="1671" y="-347" type="line"/>
      <point x="1383" y="-347" type="line"/>
    </contour>
  </outline>
</glyph>
<glyph name="hannadeva" format="1">
  <advance width="1616"/>
  <outline>
    <contour>
      <point x="936" y="438" type="line"/>
      <point x="1148" y="438" type="line"/>
      <point x="1148" y="163" type="line"/>
      <point x="1148" y="-16"/>
      <point x="1079" y="-139"/>
      <point x="871" y="-140" type="curve" smooth="yes"/>
      <point x="661" y="-140"/>
      <point x="563" y="-6"/>
      <point x="563" y="178" type="curve" smooth="yes"/>
      <point x="563" y="438" type="line"/>
      <point x="775" y="438" type="line"/>
      <point x="775" y="127" type="line"/>
      <point x="775" y="61"/>
      <point x="791" y="18"/>
      <point x="847" y="18" type="curve" smooth="yes"/>
      <point x="914" y="18"/>
      <point x="936" y="71"/>
      <point x="936" y="156" type="curve" smooth="yes"/>
    </contour>
    <contour>
      <point x="1697" y="1096" type="line"/>
      <point x="-20" y="1096" type="line"/>
      <point x="-20" y="1288" type="line"/>
      <point x="1697" y="1288" type="line"/>
    </contour>
    <contour>
      <point x="1208" y="1106" type="line"/>
      <point x="1495" y="1106" type="line"/>
      <point x="1495" y="750" type="line"/>
      <point x="502" y="750" type="line"/>
      <point x="393" y="750"/>
      <point x="352" y="702"/>
      <point x="352" y="646" type="curve" smooth="yes"/>
      <point x="352" y="593"/>
      <point x="396" y="551"/>
      <point x="501" y="517" type="curve"/>
      <point x="310" y="375" type="line"/>
      <point x="150" y="471"/>
      <point x="75" y="576"/>
      <point x="75" y="704" type="curve" smooth="yes"/>
      <point x="75" y="834"/>
      <point x="176" y="942"/>
      <point x="389" y="942" type="curve" smooth="yes"/>
      <point x="1247" y="942" type="line"/>
      <point x="1208" y="889" type="line"/>
    </contour>
    <contour>
      <point x="814" y="387" type="curve" smooth="yes"/>
      <point x="509" y="387"/>
      <point x="403" y="234"/>
      <point x="403" y="78" type="curve" smooth="yes"/>
      <point x="403" y="-59"/>
      <point x="465" y="-174"/>
      <point x="748" y="-385" type="curve"/>
      <point x="585" y="-512" type="line"/>
      <point x="268" y="-286"/>
      <point x="162" y="-81"/>
      <point x="162" y="131" type="curve" smooth="yes"/>
      <point x="162" y="360"/>
      <point x="326" y="600"/>
      <point x="801" y="600" type="curve" smooth="yes"/>
      <point x="1275" y="600"/>
      <point x="1517" y="409"/>
      <point x="1517" y="120" type="curve" smooth="yes"/>
      <point x="1517" y="-310" type="line"/>
      <point x="1264" y="-310" type="line"/>
      <point x="1264" y="134" type="line"/>
      <point x="1264" y="292"/>
      <point x="1131" y="387"/>
    </contour>
    <contour>
      <point x="1221" y="1271" type="move" name="mark0"/>
    </contour>
  </outline>
</glyph>
<glyph name="haprehalfdeva" format="1">
  <advance width="1072"/>
  <outline>
    <contour>
      <point x="667" y="590" type="curve" smooth="yes"/>
      <point x="1341" y="590" type="line"/>
      <point x="1344" y="378" type="line"/>
      <point x="690" y="378" type="line"/>
      <point x="529" y="378"/>
      <point x="451" y="298"/>
      <point x="451" y="188" type="curve" smooth="yes"/>
      <point x="451" y="42"/>
      <point x="564" y="-57"/>
      <point x="1001" y="-113" type="curve"/>
      <point x="931" y="-303" type="line"/>
      <point x="417" y="-243"/>
      <point x="174" y="-64"/>
      <point x="174" y="209" type="curve" smooth="yes"/>
      <point x="174" y="409"/>
      <point x="321" y="590"/>
    </contour>
    <contour>
      <point x="1314" y="1096" type="line"/>
      <point x="-20" y="1096" type="line"/>
      <point x="-20" y="1288" type="line"/>
      <point x="1314" y="1288" type="line"/>
    </contour>
    <contour>
      <point x="654" y="1106" type="line"/>
      <point x="942" y="1106" type="line"/>
      <point x="942" y="750" type="line"/>
      <point x="506" y="750" type="line"/>
      <point x="395" y="750"/>
      <point x="352" y="705"/>
      <point x="352" y="645" type="curve" smooth="yes"/>
      <point x="352" y="588"/>
      <point x="396" y="550"/>
      <point x="500" y="517" type="curve"/>
      <point x="310" y="377" type="line"/>
      <point x="154" y="468"/>
      <point x="74" y="574"/>
      <point x="74" y="705" type="curve" smooth="yes"/>
      <point x="74" y="839"/>
      <point x="179" y="942"/>
      <point x="390" y="942" type="curve" smooth="yes"/>
      <point x="693" y="942" type="line"/>
      <point x="654" y="889" type="line"/>
    </contour>
  </outline>
</glyph>
<glyph name="harvocalicdeva" format="1">
  <advance width="1183"/>
  <outline>
    <contour>
      <point x="1216" y="1096" type="line"/>
      <point x="-20" y="1096" type="line"/>
      <point x="-20" y="1288" type="line"/>
      <point x="1216" y="1288" type="line"/>
    </contour>
    <contour>
      <point x="704" y="1106" type="line"/>
      <point x="992" y="1106" type="line"/>
      <point x="992" y="750" type="line"/>
      <point x="506" y="750" type="line"/>
      <point x="395" y="750"/>
      <point x="352" y="705"/>
      <point x="352" y="645" type="curve" smooth="yes"/>
      <point x="352" y="588"/>
      <point x="396" y="550"/>
      <point x="500" y="517" type="curve"/>
      <point x="310" y="377" type="line"/>
      <point x="154" y="468"/>
      <point x="74" y="574"/>
      <point x="74" y="705" type="curve" smooth="yes"/>
      <point x="74" y="839"/>
      <point x="179" y="942"/>
      <point x="390" y="942" type="curve" smooth="yes"/>
      <point x="743" y="942" type="line"/>
      <point x="704" y="889" type="line"/>
    </contour>
    <contour>
      <point x="1172" y="164" type="curve"/>
      <point x="1068" y="164" type="line"/>
      <point x="965" y="164"/>
      <point x="911" y="110"/>
      <point x="911" y="52" type="curve" smooth="yes"/>
      <point x="911" y="-1"/>
      <point x="955" y="-33"/>
      <point x="1028" y="-33" type="curve" smooth="yes"/>
      <point x="1085" y="-33"/>
      <point x="1135" y="-21"/>
      <point x="1219" y="8" type="curve"/>
      <point x="1250" y="-153" type="line"/>
      <point x="1146" y="-182"/>
      <point x="1098" y="-189"/>
      <point x="1018" y="-189" type="curve" smooth="yes"/>
      <point x="839" y="-189"/>
      <point x="674" y="-97"/>
      <point x="674" y="69" type="curve" smooth="yes"/>
      <point x="674" y="215"/>
      <point x="812" y="299"/>
      <point x="1004" y="299" type="curve"/>
      <point x="944" y="264" type="line"/>
      <point x="944" y="331"/>
      <point x="866" y="380"/>
      <point x="698" y="380" type="curve" smooth="yes"/>
      <point x="527" y="380"/>
      <point x="436" y="275"/>
      <point x="436" y="152" type="curve" smooth="yes"/>
      <point x="436" y="7"/>
      <point x="518" y="-101"/>
      <point x="773" y="-254" type="curve"/>
      <point x="648" y="-406" type="line"/>
      <point x="357" y="-233"/>
      <point x="174" y="-28"/>
      <point x="174" y="209" type="curve" smooth="yes"/>
      <point x="174" y="409"/>
      <point x="329" y="590"/>
      <point x="671" y="590" type="curve" smooth="yes"/>
      <point x="991" y="590"/>
      <point x="1179" y="437"/>
      <point x="1179" y="267" type="curve" smooth="yes"/>
      <point x="1179" y="227"/>
      <point x="1176" y="195"/>
    </contour>
  </outline>
</glyph>
<glyph name="hauudeva" format="1">
  <advance width="1183"/>
  <outline>
    <contour>
      <point x="652" y="590" type="curve" smooth="yes"/>
      <point x="942" y="590"/>
      <point x="1097" y="435"/>
      <point x="1097" y="268" type="curve" smooth="yes"/>
      <point x="1097" y="184"/>
      <point x="1068" y="115"/>
      <point x="1026" y="43" type="curve"/>
      <point x="795" y="93" type="line"/>
      <point x="831" y="143"/>
      <point x="846" y="184"/>
      <point x="846" y="249" type="curve" smooth="yes"/>
      <point x="846" y="317"/>
      <point x="784" y="378"/>
      <point x="675" y="378" type="curve" smooth="yes"/>
      <point x="539" y="378"/>
      <point x="451" y="298"/>
      <point x="451" y="188" type="curve" smooth="yes"/>
      <point x="451" y="42"/>
      <point x="578" y="-31"/>
      <point x="788" y="-77" type="curve"/>
      <point x="878" y="-293" type="line"/>
      <point x="415" y="-230"/>
      <point x="174" y="-64"/>
      <point x="174" y="209" type="curve" smooth="yes"/>
      <point x="174" y="409"/>
      <point x="330" y="590"/>
    </contour>
    <contour>
      <point x="1216" y="1096" type="line"/>
      <point x="-20" y="1096" type="line"/>
      <point x="-20" y="1288" type="line"/>
      <point x="1216" y="1288" type="line"/>
    </contour>
    <contour>
      <point x="704" y="1106" type="line"/>
      <point x="992" y="1106" type="line"/>
      <point x="992" y="750" type="line"/>
      <point x="506" y="750" type="line"/>
      <point x="395" y="750"/>
      <point x="352" y="705"/>
      <point x="352" y="645" type="curve" smooth="yes"/>
      <point x="352" y="588"/>
      <point x="396" y="550"/>
      <point x="500" y="517" type="curve"/>
      <point x="310" y="377" type="line"/>
      <point x="154" y="468"/>
      <point x="74" y="574"/>
      <point x="74" y="705" type="curve" smooth="yes"/>
      <point x="74" y="839"/>
      <point x="179" y="942"/>
      <point x="390" y="942" type="curve" smooth="yes"/>
      <point x="743" y="942" type="line"/>
      <point x="704" y="889" type="line"/>
    </contour>
    <component base="uuvowelsigndeva" xOffset="998" yOffset="-90"/>
  </outline>
</glyph>
<glyph name="hayadeva" format="1">
  <advance width="1910"/>
  <outline>
    <contour>
      <point x="408" y="119" type="curve" smooth="yes"/>
      <point x="408" y="-16"/>
      <point x="478" y="-134"/>
      <point x="732" y="-335" type="curve"/>
      <point x="569" y="-463" type="line"/>
      <point x="281" y="-242"/>
      <point x="167" y="-46"/>
      <point x="167" y="166" type="curve" smooth="yes"/>
      <point x="167" y="393"/>
      <point x="337" y="592"/>
      <point x="695" y="592" type="curve" smooth="yes"/>
      <point x="1022" y="592"/>
      <point x="1165" y="419"/>
      <point x="1165" y="285" type="curve" smooth="yes"/>
      <point x="1165" y="167"/>
      <point x="1087" y="76"/>
      <point x="877" y="19" type="curve"/>
      <point x="880" y="94" type="line"/>
      <point x="949" y="-1"/>
      <point x="1018" y="-42"/>
      <point x="1138" y="-42" type="curve" smooth="yes"/>
      <point x="1285" y="-42"/>
      <point x="1407" y="43"/>
      <point x="1470" y="177" type="curve"/>
      <point x="1470" y="-203" type="line"/>
      <point x="1408" y="-247"/>
      <point x="1344" y="-272"/>
      <point x="1221" y="-272" type="curve" smooth="yes"/>
      <point x="963" y="-272"/>
      <point x="727" y="-113"/>
      <point x="614" y="136" type="curve"/>
      <point x="614" y="142" type="line"/>
      <point x="837" y="173"/>
      <point x="907" y="221"/>
      <point x="907" y="279" type="curve" smooth="yes"/>
      <point x="907" y="336"/>
      <point x="846" y="391"/>
      <point x="704" y="391" type="curve" smooth="yes"/>
      <point x="524" y="391"/>
      <point x="408" y="281"/>
    </contour>
    <contour>
      <point x="1933" y="1096" type="line"/>
      <point x="-20" y="1096" type="line"/>
      <point x="-20" y="1288" type="line"/>
      <point x="1933" y="1288" type="line"/>
    </contour>
    <contour>
      <point x="830" y="1106" type="line"/>
      <point x="1118" y="1106" type="line"/>
      <point x="1118" y="750" type="line"/>
      <point x="506" y="750" type="line"/>
      <point x="395" y="750"/>
      <point x="352" y="705"/>
      <point x="352" y="645" type="curve" smooth="yes"/>
      <point x="352" y="588"/>
      <point x="396" y="550"/>
      <point x="500" y="517" type="curve"/>
      <point x="310" y="377" type="line"/>
      <point x="154" y="468"/>
      <point x="74" y="574"/>
      <point x="74" y="705" type="curve" smooth="yes"/>
      <point x="74" y="839"/>
      <point x="179" y="942"/>
      <point x="390" y="942" type="curve" smooth="yes"/>
      <point x="869" y="942" type="line"/>
      <point x="830" y="889" type="line"/>
    </contour>
    <contour>
      <point x="1423" y="1132" type="line"/>
      <point x="1711" y="1132" type="line"/>
      <point x="1711" y="-454" type="line"/>
      <point x="1423" y="-454" type="line"/>
    </contour>
  </outline>
</glyph>
<glyph name="ivowelsign00deva" format="1">
  <advance width="651"/>
  <outline>
    <contour>
      <point x="160" y="1254" type="line"/>
      <point x="160" y="1344" type="line"/>
      <point x="160" y="1599"/>
      <point x="349" y="1802"/>
      <point x="896" y="1802" type="curve" smooth="yes"/>
      <point x="1653" y="1802"/>
      <point x="2397" y="1557"/>
      <point x="2868" y="1255" type="curve"/>
      <point x="2487" y="1255" type="line"/>
      <point x="1996" y="1461"/>
      <point x="1529" y="1564"/>
      <point x="959" y="1564" type="curve" smooth="yes"/>
      <point x="531" y="1564"/>
      <point x="448" y="1454"/>
      <point x="448" y="1322" type="curve" smooth="yes"/>
      <point x="448" y="1254" type="line"/>
    </contour>
    <component base="aavowelsigndeva"/>
  </outline>
</glyph>
<glyph name="ivowelsign03deva" format="1">
  <advance width="641"/>
  <outline>
    <contour>
      <point x="153" y="1254" type="line"/>
      <point x="153" y="1352" type="line"/>
      <point x="153" y="1595"/>
      <point x="310" y="1798"/>
      <point x="651" y="1798" type="curve" smooth="yes"/>
      <point x="1050" y="1798"/>
      <point x="1430" y="1593"/>
      <point x="1702" y="1255" type="curve"/>
      <point x="1396" y="1255" type="line"/>
      <point x="1161" y="1460"/>
      <point x="936" y="1546"/>
      <point x="707" y="1546" type="curve" smooth="yes"/>
      <point x="525" y="1546"/>
      <point x="442" y="1451"/>
      <point x="442" y="1329" type="curve" smooth="yes"/>
      <point x="442" y="1254" type="line"/>
    </contour>
    <component base="aavowelsigndeva"/>
  </outline>
</glyph>
<glyph name="ivowelsign04deva" format="1">
  <advance width="651"/>
  <outline>
    <contour>
      <point x="160" y="1254" type="line"/>
      <point x="160" y="1344" type="line"/>
      <point x="160" y="1599"/>
      <point x="316" y="1802"/>
      <point x="741" y="1802" type="curve" smooth="yes"/>
      <point x="1143" y="1802"/>
      <point x="1574" y="1583"/>
      <point x="1857" y="1255" type="curve"/>
      <point x="1534" y="1255" type="line"/>
      <point x="1286" y="1451"/>
      <point x="1030" y="1549"/>
      <point x="765" y="1549" type="curve" smooth="yes"/>
      <point x="531" y="1549"/>
      <point x="448" y="1442"/>
      <point x="448" y="1322" type="curve" smooth="yes"/>
      <point x="448" y="1254" type="line"/>
    </contour>
    <component base="aavowelsigndeva"/>
  </outline>
</glyph>
<glyph name="ivowelsign06deva" format="1">
  <advance width="651"/>
  <outline>
    <contour>
      <point x="160" y="1254" type="line"/>
      <point x="160" y="1343" type="line"/>
      <point x="160" y="1595"/>
      <point x="310" y="1802"/>
      <point x="784" y="1802" type="curve" smooth="yes"/>
      <point x="1249" y="1802"/>
      <point x="1740" y="1573"/>
      <point x="2115" y="1255" type="curve"/>
      <point x="1773" y="1255" type="line"/>
      <point x="1443" y="1449"/>
      <point x="1151" y="1564"/>
      <point x="818" y="1564" type="curve" smooth="yes"/>
      <point x="540" y="1564"/>
      <point x="448" y="1446"/>
      <point x="448" y="1320" type="curve" smooth="yes"/>
      <point x="448" y="1254" type="line"/>
    </contour>
    <component base="aavowelsigndeva"/>
  </outline>
</glyph>
<glyph name="ivowelsign08deva" format="1">
  <advance width="651"/>
  <outline>
    <contour>
      <point x="160" y="1254" type="line"/>
      <point x="160" y="1344" type="line"/>
      <point x="160" y="1598"/>
      <point x="338" y="1802"/>
      <point x="801" y="1802" type="curve" smooth="yes"/>
      <point x="1391" y="1802"/>
      <point x="1931" y="1596"/>
      <point x="2379" y="1255" type="curve"/>
      <point x="2032" y="1255" type="line"/>
      <point x="1671" y="1472"/>
      <point x="1253" y="1576"/>
      <point x="864" y="1576" type="curve" smooth="yes"/>
      <point x="555" y="1576"/>
      <point x="448" y="1455"/>
      <point x="448" y="1322" type="curve" smooth="yes"/>
      <point x="448" y="1254" type="line"/>
    </contour>
    <component base="aavowelsigndeva"/>
  </outline>
</glyph>
<glyph name="ivowelsign10deva" format="1">
  <advance width="651"/>
  <outline>
    <contour>
      <point x="160" y="1254" type="line"/>
      <point x="160" y="1344" type="line"/>
      <point x="160" y="1598"/>
      <point x="338" y="1802"/>
      <point x="877" y="1802" type="curve" smooth="yes"/>
      <point x="1502" y="1802"/>
      <point x="2119" y="1596"/>
      <point x="2621" y="1255" type="curve"/>
      <point x="2250" y="1255" type="line"/>
      <point x="1837" y="1470"/>
      <point x="1340" y="1576"/>
      <point x="926" y="1576" type="curve" smooth="yes"/>
      <point x="555" y="1576"/>
      <point x="448" y="1455"/>
      <point x="448" y="1322" type="curve" smooth="yes"/>
      <point x="448" y="1254" type="line"/>
    </contour>
    <component base="aavowelsigndeva"/>
  </outline>
</glyph>
<glyph name="japrehalfdeva" format="1">
  <advance width="947"/>
  <outline>
    <contour>
      <point x="655" y="657" type="line"/>
      <point x="688" y="713" type="line"/>
      <point x="809" y="636"/>
      <point x="884" y="522"/>
      <point x="884" y="392" type="curve" smooth="yes"/>
      <point x="884" y="207"/>
      <point x="761" y="78"/>
      <point x="559" y="78" type="curve" smooth="yes"/>
      <point x="371" y="78"/>
      <point x="185" y="192"/>
      <point x="-13" y="446" type="curve"/>
      <point x="123" y="641" type="line"/>
      <point x="310" y="405"/>
      <point x="405" y="334"/>
      <point x="493" y="334" type="curve" smooth="yes"/>
      <point x="573" y="334"/>
      <point x="624" y="382"/>
      <point x="624" y="456" type="curve" smooth="yes"/>
      <point x="624" y="543"/>
      <point x="545" y="642"/>
      <point x="367" y="685" type="curve"/>
      <point x="367" y="885" type="line"/>
      <point x="1325" y="885" type="line"/>
      <point x="1325" y="657" type="line"/>
    </contour>
    <contour>
      <point x="-73" y="1096" type="line"/>
      <point x="-73" y="1288" type="line"/>
      <point x="1313" y="1288" type="line"/>
      <point x="1313" y="1096" type="line"/>
    </contour>
  </outline>
</glyph>
<glyph name="jhaprehalfdeva" format="1">
  <advance width="1081"/>
  <outline>
    <contour>
      <point x="1483" y="412" type="line"/>
      <point x="1367" y="344"/>
      <point x="1237" y="306"/>
      <point x="1058" y="306" type="curve" smooth="yes"/>
      <point x="960" y="306"/>
      <point x="868" y="320"/>
      <point x="830" y="328" type="curve"/>
      <point x="830" y="382"/>
      <point x="822" y="450"/>
      <point x="822" y="539" type="curve"/>
      <point x="856" y="525"/>
      <point x="923" y="517"/>
      <point x="974" y="517" type="curve" smooth="yes"/>
      <point x="1101" y="517"/>
      <point x="1241" y="550"/>
      <point x="1366" y="645" type="curve"/>
    </contour>
    <contour>
      <point x="520" y="151" type="curve" smooth="yes"/>
      <point x="821" y="-169" type="line"/>
      <point x="632" y="-270" type="line"/>
      <point x="303" y="91" type="line"/>
      <point x="438" y="19" type="line"/>
      <point x="182" y="19"/>
      <point x="90" y="110"/>
      <point x="90" y="190" type="curve" smooth="yes"/>
      <point x="90" y="261"/>
      <point x="147" y="319"/>
      <point x="237" y="319" type="curve" smooth="yes"/>
      <point x="320" y="319"/>
      <point x="409" y="269"/>
    </contour>
    <contour>
      <point x="586" y="1121" type="line"/>
      <point x="859" y="1121" type="line"/>
      <point x="859" y="758" type="line"/>
      <point x="452" y="758" type="line"/>
      <point x="351" y="758"/>
      <point x="317" y="718"/>
      <point x="317" y="671" type="curve" smooth="yes"/>
      <point x="318" y="625"/>
      <point x="351" y="594"/>
      <point x="432" y="559" type="curve"/>
      <point x="338" y="572" type="line"/>
      <point x="444" y="616"/>
      <point x="516" y="634"/>
      <point x="636" y="634" type="curve" smooth="yes"/>
      <point x="837" y="634"/>
      <point x="967" y="515"/>
      <point x="967" y="346" type="curve" smooth="yes"/>
      <point x="967" y="182"/>
      <point x="783" y="21"/>
      <point x="477" y="21" type="curve"/>
      <point x="436" y="223" type="line"/>
      <point x="589" y="223"/>
      <point x="697" y="276"/>
      <point x="697" y="345" type="curve" smooth="yes"/>
      <point x="697" y="394"/>
      <point x="660" y="425"/>
      <point x="602" y="425" type="curve" smooth="yes"/>
      <point x="542" y="425"/>
      <point x="459" y="407"/>
      <point x="383" y="379" type="curve"/>
      <point x="363" y="378" type="line"/>
      <point x="136" y="476"/>
      <point x="55" y="588"/>
      <point x="55" y="721" type="curve" smooth="yes"/>
      <point x="55" y="842"/>
      <point x="145" y="947"/>
      <point x="381" y="947" type="curve" smooth="yes"/>
      <point x="646" y="947" type="line"/>
      <point x="586" y="888" type="line"/>
    </contour>
    <contour>
      <point x="1435" y="1096" type="line"/>
      <point x="-22" y="1096" type="line"/>
      <point x="-22" y="1288" type="line"/>
      <point x="1435" y="1288" type="line"/>
    </contour>
  </outline>
</glyph>
<glyph name="jharaprehalfdeva" format="1">
  <advance width="1081"/>
  <outline>
    <contour>
      <point x="1435" y="1096" type="line"/>
      <point x="-21" y="1096" type="line"/>
      <point x="-21" y="1288" type="line"/>
      <point x="1435" y="1288" type="line"/>
    </contour>
    <contour>
      <point x="1394" y="334" type="line"/>
      <point x="985" y="-163" type="line"/>
      <point x="815" y="-27" type="line"/>
      <point x="1237" y="450" type="line"/>
    </contour>
    <contour>
      <point x="1329" y="412" type="line"/>
      <point x="1269" y="365"/>
      <point x="1138" y="335"/>
      <point x="1040" y="335" type="curve" smooth="yes"/>
      <point x="962" y="335"/>
      <point x="898" y="338"/>
      <point x="847" y="350" type="curve"/>
      <point x="847" y="403"/>
      <point x="839" y="457"/>
      <point x="839" y="547" type="curve"/>
      <point x="897" y="534"/>
      <point x="958" y="531"/>
      <point x="1018" y="531" type="curve" smooth="yes"/>
      <point x="1112" y="531"/>
      <point x="1242" y="577"/>
      <point x="1322" y="663" type="curve"/>
    </contour>
    <contour>
      <point x="519" y="151" type="curve" smooth="yes"/>
      <point x="763" y="-169" type="line"/>
      <point x="574" y="-270" type="line"/>
      <point x="303" y="91" type="line"/>
      <point x="438" y="19" type="line"/>
      <point x="182" y="19"/>
      <point x="90" y="110"/>
      <point x="90" y="190" type="curve" smooth="yes"/>
      <point x="90" y="261"/>
      <point x="147" y="319"/>
      <point x="237" y="319" type="curve" smooth="yes"/>
      <point x="320" y="319"/>
      <point x="421" y="280"/>
    </contour>
    <contour>
      <point x="586" y="1121" type="line"/>
      <point x="859" y="1121" type="line"/>
      <point x="859" y="758" type="line"/>
      <point x="452" y="758" type="line"/>
      <point x="351" y="758"/>
      <point x="317" y="718"/>
      <point x="317" y="671" type="curve" smooth="yes"/>
      <point x="318" y="625"/>
      <point x="351" y="594"/>
      <point x="432" y="559" type="curve"/>
      <point x="338" y="572" type="line"/>
      <point x="443" y="616"/>
      <point x="516" y="634"/>
      <point x="636" y="634" type="curve" smooth="yes"/>
      <point x="837" y="634"/>
      <point x="938" y="517"/>
      <point x="938" y="348" type="curve" smooth="yes"/>
      <point x="938" y="184"/>
      <point x="736" y="21"/>
      <point x="477" y="21" type="curve"/>
      <point x="436" y="223" type="line"/>
      <point x="589" y="223"/>
      <point x="675" y="276"/>
      <point x="675" y="345" type="curve" smooth="yes"/>
      <point x="675" y="396"/>
      <point x="635" y="425"/>
      <point x="582" y="425" type="curve" smooth="yes"/>
      <point x="515" y="425"/>
      <point x="452" y="406"/>
      <point x="382" y="380" type="curve"/>
      <point x="362" y="379" type="line"/>
      <point x="135" y="477"/>
      <point x="55" y="588"/>
      <point x="55" y="721" type="curve" smooth="yes"/>
      <point x="55" y="842"/>
      <point x="145" y="947"/>
      <point x="381" y="947" type="curve" smooth="yes"/>
      <point x="646" y="947" type="line"/>
      <point x="586" y="888" type="line"/>
    </contour>
  </outline>
</glyph>
<glyph name="kaprehalfdeva" format="1">
  <advance width="1254"/>
  <outline>
    <contour>
      <point x="946" y="391" type="curve"/>
      <point x="942" y="779" type="line"/>
      <point x="1000" y="820"/>
      <point x="1090" y="850"/>
      <point x="1200" y="850" type="curve" smooth="yes"/>
      <point x="1331" y="850"/>
      <point x="1462" y="808"/>
      <point x="1579" y="708" type="curve"/>
      <point x="1532" y="496" type="line"/>
      <point x="1446" y="566"/>
      <point x="1356" y="602"/>
      <point x="1246" y="602" type="curve" smooth="yes"/>
      <point x="1124" y="602"/>
      <point x="1005" y="522"/>
    </contour>
    <contour>
      <point x="-38" y="1096" type="line"/>
      <point x="-38" y="1288" type="line"/>
      <point x="1381" y="1288" type="line"/>
      <point x="1381" y="1096" type="line"/>
    </contour>
    <contour>
      <point x="720" y="611" type="curve"/>
      <point x="720" y="291" type="line"/>
      <point x="645" y="241"/>
      <point x="581" y="213"/>
      <point x="473" y="213" type="curve" smooth="yes"/>
      <point x="228" y="213"/>
      <point x="62" y="399"/>
      <point x="62" y="618" type="curve" smooth="yes"/>
      <point x="62" y="792"/>
      <point x="194" y="922"/>
      <point x="404" y="922" type="curve" smooth="yes"/>
      <point x="544" y="922"/>
      <point x="634" y="894"/>
      <point x="735" y="842" type="curve"/>
      <point x="735" y="638" type="line"/>
      <point x="642" y="690"/>
      <point x="574" y="710"/>
      <point x="487" y="710" type="curve" smooth="yes"/>
      <point x="370" y="710"/>
      <point x="311" y="645"/>
      <point x="311" y="565" type="curve" smooth="yes"/>
      <point x="311" y="492"/>
      <point x="369" y="438"/>
      <point x="452" y="439" type="curve" smooth="yes"/>
      <point x="554" y="440"/>
      <point x="649" y="502"/>
    </contour>
    <contour>
      <point x="698" y="1132" type="line"/>
      <point x="986" y="1132" type="line"/>
      <point x="986" y="0" type="line"/>
      <point x="698" y="0" type="line"/>
    </contour>
  </outline>
</glyph>
<glyph name="kassaraprehalfdeva" format="1">
  <advance width="920"/>
  <outline>
    <contour>
      <point x="311" y="135" type="line"/>
      <point x="508" y="202" type="line"/>
      <point x="641" y="-106" type="line"/>
      <point x="430" y="-174" type="line"/>
    </contour>
    <contour>
      <point x="453" y="613" type="curve" smooth="yes"/>
      <point x="187" y="494"/>
      <point x="139" y="430"/>
      <point x="139" y="354" type="curve" smooth="yes"/>
      <point x="139" y="274"/>
      <point x="192" y="233"/>
      <point x="268" y="233" type="curve" smooth="yes"/>
      <point x="317" y="233"/>
      <point x="335" y="237"/>
      <point x="409" y="264" type="curve"/>
      <point x="294" y="171" type="line"/>
      <point x="276" y="217"/>
      <point x="270" y="241"/>
      <point x="270" y="281" type="curve" smooth="yes"/>
      <point x="270" y="329"/>
      <point x="334" y="383"/>
      <point x="415" y="383" type="curve" smooth="yes"/>
      <point x="558" y="383"/>
      <point x="649" y="305"/>
      <point x="649" y="227" type="curve" smooth="yes"/>
      <point x="649" y="142"/>
      <point x="499" y="48"/>
      <point x="291" y="48" type="curve" smooth="yes"/>
      <point x="69" y="48"/>
      <point x="-121" y="156"/>
      <point x="-121" y="378" type="curve" smooth="yes"/>
      <point x="-121" y="521"/>
      <point x="-19" y="649"/>
      <point x="284" y="772" type="curve" smooth="yes"/>
      <point x="519" y="869"/>
      <point x="585" y="933"/>
      <point x="585" y="1008" type="curve" smooth="yes"/>
      <point x="585" y="1071"/>
      <point x="538" y="1114"/>
      <point x="472" y="1114" type="curve" smooth="yes"/>
      <point x="400" y="1114"/>
      <point x="356" y="1065"/>
      <point x="356" y="996" type="curve" smooth="yes"/>
      <point x="356" y="869"/>
      <point x="611" y="741"/>
      <point x="1010" y="741" type="curve" smooth="yes"/>
      <point x="1074" y="741"/>
      <point x="1177" y="755"/>
      <point x="1230" y="770" type="curve"/>
      <point x="1247" y="551" type="line"/>
      <point x="1176" y="532"/>
      <point x="1086" y="522"/>
      <point x="1014" y="522" type="curve" smooth="yes"/>
      <point x="459" y="522"/>
      <point x="112" y="772"/>
      <point x="112" y="1039" type="curve" smooth="yes"/>
      <point x="112" y="1195"/>
      <point x="230" y="1318"/>
      <point x="446" y="1318" type="curve" smooth="yes"/>
      <point x="691" y="1318"/>
      <point x="813" y="1173"/>
      <point x="813" y="1013" type="curve" smooth="yes"/>
      <point x="813" y="853"/>
      <point x="693" y="719"/>
    </contour>
    <contour>
      <point x="1164" y="552" type="line"/>
      <point x="895" y="46" type="line"/>
      <point x="685" y="156" type="line"/>
      <point x="983" y="669" type="line"/>
    </contour>
  </outline>
</glyph>
<glyph name="katadeva" format="1">
  <advance width="1805"/>
  <outline>
    <contour>
      <point x="1109" y="427" type="curve"/>
      <point x="1098" y="807" type="line"/>
      <point x="1161" y="825"/>
      <point x="1238" y="841"/>
      <point x="1326" y="841" type="curve" smooth="yes"/>
      <point x="1578" y="841"/>
      <point x="1740" y="676"/>
      <point x="1740" y="473" type="curve" smooth="yes"/>
      <point x="1740" y="348"/>
      <point x="1692" y="234"/>
      <point x="1621" y="130" type="curve"/>
      <point x="1384" y="214" type="line"/>
      <point x="1455" y="318"/>
      <point x="1491" y="402"/>
      <point x="1491" y="489" type="curve" smooth="yes"/>
      <point x="1491" y="562"/>
      <point x="1442" y="608"/>
      <point x="1362" y="608" type="curve" smooth="yes"/>
      <point x="1284" y="608"/>
      <point x="1188" y="548"/>
    </contour>
    <contour>
      <point x="1061" y="1096" type="line"/>
      <point x="1061" y="1288" type="line"/>
      <point x="1840" y="1288" type="line"/>
      <point x="1840" y="1096" type="line"/>
    </contour>
    <component base="tatadeva"/>
    <contour>
      <point x="1139" y="-3" type="move" name="mark0"/>
    </contour>
  </outline>
</glyph>
<glyph name="khaprehalfdeva" format="1">
  <advance width="1258"/>
  <outline>
    <contour>
      <point x="225" y="701" type="line"/>
      <point x="376" y="751"/>
      <point x="414" y="828"/>
      <point x="414" y="959" type="curve" smooth="yes"/>
      <point x="414" y="1169" type="line"/>
      <point x="702" y="1169" type="line"/>
      <point x="702" y="943" type="line"/>
      <point x="702" y="742"/>
      <point x="649" y="567"/>
      <point x="393" y="449" type="curve"/>
    </contour>
    <contour>
      <point x="-49" y="1096" type="line"/>
      <point x="-49" y="1288" type="line"/>
      <point x="1363" y="1288" type="line"/>
      <point x="1363" y="1096" type="line"/>
    </contour>
    <contour>
      <point x="330" y="630" type="line"/>
      <point x="531" y="287"/>
      <point x="756" y="180"/>
      <point x="1003" y="180" type="curve" smooth="yes"/>
      <point x="1237" y="180"/>
      <point x="1435" y="280"/>
      <point x="1627" y="470" type="curve"/>
      <point x="1757" y="307" type="line"/>
      <point x="1534" y="100"/>
      <point x="1287" y="-6"/>
      <point x="1005" y="-6" type="curve" smooth="yes"/>
      <point x="764" y="-6"/>
      <point x="501" y="74"/>
      <point x="305" y="270" type="curve" smooth="yes"/>
      <point x="102" y="473"/>
      <point x="16" y="643"/>
      <point x="16" y="721" type="curve" smooth="yes"/>
      <point x="16" y="794"/>
      <point x="67" y="839"/>
      <point x="147" y="839" type="curve" smooth="yes"/>
      <point x="205" y="839"/>
      <point x="252" y="804"/>
      <point x="316" y="727" type="curve" smooth="yes"/>
      <point x="365" y="662" type="line"/>
    </contour>
    <contour>
      <point x="1277" y="661" type="curve" smooth="yes"/>
      <point x="1277" y="715"/>
      <point x="1203" y="762"/>
      <point x="1091" y="762" type="curve" smooth="yes"/>
      <point x="991" y="762"/>
      <point x="946" y="699"/>
      <point x="946" y="637" type="curve" smooth="yes"/>
      <point x="946" y="577"/>
      <point x="994" y="530"/>
      <point x="1070" y="530" type="curve" smooth="yes"/>
      <point x="1189" y="530"/>
      <point x="1277" y="602"/>
    </contour>
    <contour>
      <point x="1471" y="635" type="curve" smooth="yes"/>
      <point x="1471" y="484"/>
      <point x="1319" y="339"/>
      <point x="1100" y="339" type="curve" smooth="yes"/>
      <point x="903" y="339"/>
      <point x="715" y="476"/>
      <point x="715" y="676" type="curve" smooth="yes"/>
      <point x="715" y="829"/>
      <point x="832" y="955"/>
      <point x="1041" y="955" type="curve" smooth="yes"/>
      <point x="1318" y="955"/>
      <point x="1471" y="785"/>
    </contour>
  </outline>
</glyph>
<glyph name="kharaprehalfdeva" format="1">
  <advance width="1258"/>
  <outline>
    <contour>
      <point x="1419" y="345" type="line"/>
      <point x="746" y="-182" type="line"/>
      <point x="554" y="-25" type="line"/>
      <point x="1260" y="503" type="line"/>
    </contour>
    <contour>
      <point x="333" y="634" type="line"/>
      <point x="479" y="350"/>
      <point x="744" y="231"/>
      <point x="1050" y="231" type="curve"/>
      <point x="897" y="46" type="line"/>
      <point x="682" y="46"/>
      <point x="401" y="177"/>
      <point x="254" y="324" type="curve" smooth="yes"/>
      <point x="120" y="457"/>
      <point x="15" y="636"/>
      <point x="15" y="722" type="curve" smooth="yes"/>
      <point x="15" y="789"/>
      <point x="66" y="839"/>
      <point x="141" y="839" type="curve" smooth="yes"/>
      <point x="206" y="839"/>
      <point x="256" y="802"/>
      <point x="318" y="725" type="curve" smooth="yes"/>
      <point x="364" y="662" type="line"/>
    </contour>
    <contour>
      <point x="225" y="701" type="line"/>
      <point x="376" y="751"/>
      <point x="414" y="828"/>
      <point x="414" y="959" type="curve" smooth="yes"/>
      <point x="414" y="1169" type="line"/>
      <point x="702" y="1169" type="line"/>
      <point x="702" y="943" type="line"/>
      <point x="702" y="742"/>
      <point x="649" y="567"/>
      <point x="393" y="449" type="curve"/>
    </contour>
    <contour>
      <point x="-49" y="1096" type="line"/>
      <point x="-49" y="1288" type="line"/>
      <point x="1363" y="1288" type="line"/>
      <point x="1363" y="1096" type="line"/>
    </contour>
    <contour>
      <point x="1277" y="661" type="curve" smooth="yes"/>
      <point x="1277" y="715"/>
      <point x="1203" y="762"/>
      <point x="1091" y="762" type="curve" smooth="yes"/>
      <point x="991" y="762"/>
      <point x="946" y="699"/>
      <point x="946" y="637" type="curve" smooth="yes"/>
      <point x="946" y="577"/>
      <point x="994" y="530"/>
      <point x="1070" y="530" type="curve" smooth="yes"/>
      <point x="1189" y="530"/>
      <point x="1277" y="602"/>
    </contour>
    <contour>
      <point x="1471" y="635" type="curve" smooth="yes"/>
      <point x="1471" y="484"/>
      <point x="1319" y="339"/>
      <point x="1100" y="339" type="curve" smooth="yes"/>
      <point x="903" y="339"/>
      <point x="715" y="476"/>
      <point x="715" y="676" type="curve" smooth="yes"/>
      <point x="715" y="829"/>
      <point x="832" y="955"/>
      <point x="1041" y="955" type="curve" smooth="yes"/>
      <point x="1318" y="955"/>
      <point x="1471" y="785"/>
    </contour>
  </outline>
</glyph>
<glyph name="laprehalfdeva" format="1">
  <advance width="945"/>
  <outline>
    <contour>
      <point x="1201" y="829" type="line"/>
      <point x="1284" y="600" type="line"/>
      <point x="691" y="216" type="line"/>
      <point x="538" y="406" type="line"/>
    </contour>
    <contour>
      <point x="962" y="594" type="curve"/>
      <point x="774" y="459" type="line"/>
      <point x="684" y="591"/>
      <point x="602" y="640"/>
      <point x="499" y="640" type="curve" smooth="yes"/>
      <point x="401" y="640"/>
      <point x="324" y="559"/>
      <point x="324" y="461" type="curve" smooth="yes"/>
      <point x="323" y="356"/>
      <point x="377" y="256"/>
      <point x="528" y="106" type="curve"/>
      <point x="336" y="-7" type="line"/>
      <point x="180" y="148"/>
      <point x="68" y="320"/>
      <point x="68" y="525" type="curve" smooth="yes"/>
      <point x="68" y="727"/>
      <point x="221" y="891"/>
      <point x="461" y="891" type="curve" smooth="yes"/>
      <point x="642" y="891"/>
      <point x="804" y="798"/>
    </contour>
    <contour>
      <point x="-21" y="1096" type="line"/>
      <point x="-21" y="1288" type="line"/>
      <point x="1272" y="1288" type="line"/>
      <point x="1272" y="1096" type="line"/>
    </contour>
  </outline>
</glyph>
<glyph name="laradeva" format="1">
  <advance width="1518"/>
  <outline>
    <contour>
      <point x="1219" y="238" type="line"/>
      <point x="608" y="-174" type="line"/>
      <point x="465" y="-3" type="line"/>
      <point x="1099" y="416" type="line"/>
    </contour>
    <contour>
      <point x="1150" y="981" type="line"/>
      <point x="1150" y="670" type="line"/>
      <point x="682" y="289" type="line"/>
      <point x="532" y="463" type="line"/>
    </contour>
    <contour>
      <point x="966" y="686" type="curve"/>
      <point x="798" y="533" type="line"/>
      <point x="692" y="650"/>
      <point x="618" y="690"/>
      <point x="517" y="690" type="curve" smooth="yes"/>
      <point x="410" y="690"/>
      <point x="324" y="600"/>
      <point x="324" y="503" type="curve" smooth="yes"/>
      <point x="323" y="399"/>
      <point x="363" y="321"/>
      <point x="514" y="170" type="curve"/>
      <point x="322" y="58" type="line"/>
      <point x="165" y="212"/>
      <point x="68" y="363"/>
      <point x="68" y="568" type="curve" smooth="yes"/>
      <point x="68" y="771"/>
      <point x="215" y="939"/>
      <point x="466" y="939" type="curve" smooth="yes"/>
      <point x="650" y="939"/>
      <point x="810" y="841"/>
    </contour>
    <contour>
      <point x="-21" y="1096" type="line"/>
      <point x="-21" y="1288" type="line"/>
      <point x="1565" y="1288" type="line"/>
      <point x="1565" y="1096" type="line"/>
    </contour>
    <contour>
      <point x="1054" y="1132" type="line"/>
      <point x="1342" y="1132" type="line"/>
      <point x="1342" y="0" type="line"/>
      <point x="1054" y="0" type="line"/>
    </contour>
  </outline>
</glyph>
<glyph name="maprehalfdeva" format="1">
  <advance width="786"/>
  <outline>
    <contour>
      <point x="-26" y="1096" type="line"/>
      <point x="-26" y="1288" type="line"/>
      <point x="1007" y="1288" type="line"/>
      <point x="1007" y="1096" type="line"/>
    </contour>
    <contour>
      <point x="221" y="1135" type="line"/>
      <point x="509" y="1135" type="line"/>
      <point x="509" y="638" type="line"/>
      <point x="477" y="676" type="line"/>
      <point x="1036" y="676" type="line"/>
      <point x="1036" y="452" type="line"/>
      <point x="464" y="452" type="line"/>
      <point x="509" y="494" type="line"/>
      <point x="509" y="352" type="line"/>
      <point x="509" y="277"/>
      <point x="481" y="234"/>
      <point x="407" y="234" type="curve" smooth="yes"/>
      <point x="260" y="234"/>
      <point x="65" y="444"/>
      <point x="65" y="565" type="curve" smooth="yes"/>
      <point x="65" y="640"/>
      <point x="104" y="675"/>
      <point x="166" y="675" type="curve" smooth="yes"/>
      <point x="255" y="675" type="line"/>
      <point x="221" y="646" type="line"/>
    </contour>
  </outline>
</glyph>
<glyph name="maraprehalfdeva" format="1">
  <advance width="786"/>
  <outline>
    <contour>
      <point x="1051" y="294" type="line"/>
      <point x="453" y="-138" type="line"/>
      <point x="302" y="41" type="line"/>
      <point x="916" y="487" type="line"/>
    </contour>
    <contour>
      <point x="-26" y="1096" type="line"/>
      <point x="-26" y="1288" type="line"/>
      <point x="1007" y="1288" type="line"/>
      <point x="1007" y="1096" type="line"/>
    </contour>
    <contour>
      <point x="221" y="1135" type="line"/>
      <point x="509" y="1135" type="line"/>
      <point x="509" y="659" type="line"/>
      <point x="477" y="698" type="line"/>
      <point x="1036" y="698" type="line"/>
      <point x="1036" y="473" type="line"/>
      <point x="464" y="473" type="line"/>
      <point x="509" y="516" type="line"/>
      <point x="509" y="374" type="line"/>
      <point x="509" y="299"/>
      <point x="481" y="256"/>
      <point x="407" y="256" type="curve" smooth="yes"/>
      <point x="260" y="256"/>
      <point x="65" y="465"/>
      <point x="65" y="586" type="curve" smooth="yes"/>
      <point x="65" y="662"/>
      <point x="104" y="697"/>
      <point x="166" y="697" type="curve" smooth="yes"/>
      <point x="255" y="697" type="line"/>
      <point x="221" y="668" type="line"/>
    </contour>
  </outline>
</glyph>
<glyph name="nyaprehalfdeva" format="1">
  <advance width="1077"/>
  <outline>
    <contour>
      <point x="830" y="452" type="curve"/>
      <point x="830" y="677" type="line"/>
      <point x="872" y="666"/>
      <point x="933" y="661"/>
      <point x="998" y="661" type="curve" smooth="yes"/>
      <point x="1129" y="661"/>
      <point x="1287" y="706"/>
      <point x="1371" y="761" type="curve"/>
      <point x="1414" y="499" type="line"/>
      <point x="1336" y="461"/>
      <point x="1191" y="428"/>
      <point x="1058" y="428" type="curve" smooth="yes"/>
      <point x="971" y="428"/>
      <point x="884" y="440"/>
    </contour>
    <contour>
      <point x="926" y="530" type="curve" smooth="yes"/>
      <point x="926" y="279"/>
      <point x="759" y="133"/>
      <point x="542" y="133" type="curve" smooth="yes"/>
      <point x="336" y="133"/>
      <point x="177" y="220"/>
      <point x="-24" y="404" type="curve"/>
      <point x="61" y="601" type="line"/>
      <point x="242" y="433"/>
      <point x="367" y="377"/>
      <point x="478" y="377" type="curve" smooth="yes"/>
      <point x="606" y="377"/>
      <point x="678" y="450"/>
      <point x="677" y="550" type="curve" smooth="yes"/>
      <point x="677" y="639"/>
      <point x="599" y="707"/>
      <point x="491" y="707" type="curve" smooth="yes"/>
      <point x="419" y="707"/>
      <point x="348" y="681"/>
      <point x="281" y="637" type="curve"/>
      <point x="182" y="838" type="line"/>
      <point x="255" y="892"/>
      <point x="361" y="935"/>
      <point x="475" y="935" type="curve" smooth="yes"/>
      <point x="710" y="935"/>
      <point x="926" y="776"/>
    </contour>
    <contour>
      <point x="-55" y="1096" type="line"/>
      <point x="-55" y="1288" type="line"/>
      <point x="1213" y="1288" type="line"/>
      <point x="1213" y="1096" type="line"/>
    </contour>
  </outline>
</glyph>
<glyph name="nyaradeva" format="1">
  <advance width="1651"/>
  <outline>
    <contour>
      <point x="1345" y="238" type="line"/>
      <point x="664" y="-160" type="line"/>
      <point x="529" y="4" type="line"/>
      <point x="1227" y="415" type="line"/>
    </contour>
    <contour>
      <point x="856" y="474" type="curve"/>
      <point x="856" y="699" type="line"/>
      <point x="890" y="687"/>
      <point x="972" y="682"/>
      <point x="1017" y="682" type="curve" smooth="yes"/>
      <point x="1081" y="682"/>
      <point x="1149" y="696"/>
      <point x="1227" y="733" type="curve"/>
      <point x="1227" y="472" type="line"/>
      <point x="1193" y="461"/>
      <point x="1131" y="450"/>
      <point x="1077" y="450" type="curve" smooth="yes"/>
      <point x="1009" y="450"/>
      <point x="911" y="461"/>
    </contour>
    <contour>
      <point x="952" y="552" type="curve" smooth="yes"/>
      <point x="952" y="322"/>
      <point x="772" y="176"/>
      <point x="562" y="176" type="curve" smooth="yes"/>
      <point x="377" y="176"/>
      <point x="211" y="243"/>
      <point x="3" y="425" type="curve"/>
      <point x="87" y="622" type="line"/>
      <point x="268" y="462"/>
      <point x="386" y="412"/>
      <point x="497" y="412" type="curve" smooth="yes"/>
      <point x="619" y="412"/>
      <point x="705" y="476"/>
      <point x="704" y="572" type="curve" smooth="yes"/>
      <point x="703" y="661"/>
      <point x="626" y="728"/>
      <point x="518" y="728" type="curve" smooth="yes"/>
      <point x="446" y="728"/>
      <point x="375" y="703"/>
      <point x="307" y="658" type="curve"/>
      <point x="208" y="860" type="line"/>
      <point x="282" y="913"/>
      <point x="388" y="957"/>
      <point x="502" y="957" type="curve" smooth="yes"/>
      <point x="737" y="957"/>
      <point x="952" y="798"/>
    </contour>
    <contour>
      <point x="-29" y="1096" type="line"/>
      <point x="-29" y="1288" type="line"/>
      <point x="1689" y="1288" type="line"/>
      <point x="1689" y="1096" type="line"/>
    </contour>
    <contour>
      <point x="1177" y="1132" type="line"/>
      <point x="1465" y="1132" type="line"/>
      <point x="1465" y="0" type="line"/>
      <point x="1177" y="0" type="line"/>
    </contour>
  </outline>
</glyph>
<glyph name="nyaraprehalfdeva" format="1">
  <advance width="1077"/>
  <outline>
    <contour>
      <point x="1316" y="238" type="line"/>
      <point x="635" y="-160" type="line"/>
      <point x="500" y="4" type="line"/>
      <point x="1198" y="415" type="line"/>
    </contour>
    <contour>
      <point x="827" y="474" type="curve"/>
      <point x="827" y="699" type="line"/>
      <point x="861" y="687"/>
      <point x="943" y="682"/>
      <point x="988" y="682" type="curve" smooth="yes"/>
      <point x="1104" y="682"/>
      <point x="1256" y="718"/>
      <point x="1371" y="782" type="curve"/>
      <point x="1413" y="520" type="line"/>
      <point x="1313" y="476"/>
      <point x="1165" y="450"/>
      <point x="1048" y="450" type="curve" smooth="yes"/>
      <point x="981" y="450"/>
      <point x="882" y="461"/>
    </contour>
    <contour>
      <point x="924" y="552" type="curve" smooth="yes"/>
      <point x="924" y="322"/>
      <point x="743" y="176"/>
      <point x="533" y="176" type="curve" smooth="yes"/>
      <point x="348" y="176"/>
      <point x="182" y="243"/>
      <point x="-26" y="425" type="curve"/>
      <point x="59" y="622" type="line"/>
      <point x="240" y="462"/>
      <point x="357" y="412"/>
      <point x="468" y="412" type="curve" smooth="yes"/>
      <point x="591" y="412"/>
      <point x="676" y="476"/>
      <point x="675" y="572" type="curve" smooth="yes"/>
      <point x="675" y="661"/>
      <point x="597" y="728"/>
      <point x="489" y="728" type="curve" smooth="yes"/>
      <point x="417" y="728"/>
      <point x="346" y="703"/>
      <point x="279" y="658" type="curve"/>
      <point x="179" y="860" type="line"/>
      <point x="253" y="913"/>
      <point x="359" y="957"/>
      <point x="473" y="957" type="curve" smooth="yes"/>
      <point x="708" y="957"/>
      <point x="924" y="798"/>
    </contour>
    <contour>
      <point x="-55" y="1096" type="line"/>
      <point x="-55" y="1288" type="line"/>
      <point x="1213" y="1288" type="line"/>
      <point x="1213" y="1096" type="line"/>
    </contour>
  </outline>
</glyph>
<glyph name="oshortvowelsignrephdeva" format="1">
  <advance width="635"/>
  <outline>
    <contour>
      <point x="0" y="0" type="line"/>
      <point x="635" y="0" type="line"/>
      <point x="635" y="20" type="line"/>
      <point x="0" y="20" type="line"/>
    </contour>
  </outline>
</glyph>
<glyph name="phanuktaradeva" format="1">
  <advance width="1828"/>
  <outline>
    <component base="pharadeva"/>
    <component base="nuktadeva" xOffset="1121" yOffset="71"/>
    <contour>
      <point x="862" y="0" type="move" name="mark0"/>
    </contour>
  </outline>
</glyph>
<glyph name="ranuktaudeva" format="1">
  <advance width="1401"/>
  <outline>
    <contour>
      <point x="0" y="0" type="line"/>
      <point x="1401" y="0" type="line"/>
      <point x="1401" y="20" type="line"/>
      <point x="0" y="20" type="line"/>
    </contour>
  </outline>
</glyph>
<glyph name="raprehalfdeva" format="1">
  <advance width="438"/>
  <outline>
    <contour>
      <point x="-147" y="1096" type="line"/>
      <point x="-147" y="1288" type="line"/>
      <point x="758" y="1288" type="line"/>
      <point x="758" y="1096" type="line"/>
    </contour>
    <contour>
      <point x="805" y="511" type="line"/>
      <point x="697" y="450"/>
      <point x="576" y="417"/>
      <point x="420" y="417" type="curve" smooth="yes"/>
      <point x="277" y="417"/>
      <point x="101" y="473"/>
      <point x="-19" y="562" type="curve"/>
      <point x="44" y="753" type="line"/>
      <point x="149" y="697"/>
      <point x="280" y="670"/>
      <point x="372" y="670" type="curve" smooth="yes"/>
      <point x="496" y="670"/>
      <point x="609" y="706"/>
      <point x="725" y="772" type="curve"/>
    </contour>
  </outline>
</glyph>
<glyph name="raudeva" format="1">
  <advance width="1303"/>
  <outline>
    <contour>
      <point x="581" y="1096" type="line"/>
      <point x="581" y="1288" type="line"/>
      <point x="1325" y="1288" type="line"/>
      <point x="1325" y="1096" type="line"/>
    </contour>
    <contour>
      <point x="662" y="545" type="curve"/>
      <point x="617" y="829" type="line"/>
      <point x="686" y="855"/>
      <point x="771" y="877"/>
      <point x="863" y="877" type="curve" smooth="yes"/>
      <point x="1106" y="877"/>
      <point x="1254" y="721"/>
      <point x="1254" y="540" type="curve" smooth="yes"/>
      <point x="1254" y="426"/>
      <point x="1193" y="313"/>
      <point x="1115" y="237" type="curve"/>
      <point x="893" y="328" type="line"/>
      <point x="970" y="417"/>
      <point x="1007" y="488"/>
      <point x="1007" y="559" type="curve" smooth="yes"/>
      <point x="1007" y="618"/>
      <point x="966" y="663"/>
      <point x="895" y="663" type="curve" smooth="yes"/>
      <point x="829" y="663"/>
      <point x="758" y="630"/>
    </contour>
    <component base="radeva"/>
    <contour>
      <point x="534" y="1271" type="move" name="mark0"/>
    </contour>
  </outline>
</glyph>
<glyph name="rephanusvaradeva" format="1">
  <advance width="-1"/>
  <outline>
    <contour>
      <point x="-118" y="1561" type="curve" smooth="yes"/>
      <point x="-37" y="1561"/>
      <point x="-1" y="1511"/>
      <point x="-1" y="1459" type="curve" smooth="yes"/>
      <point x="-1" y="1410"/>
      <point x="-37" y="1358"/>
      <point x="-118" y="1358" type="curve" smooth="yes"/>
      <point x="-194" y="1358"/>
      <point x="-233" y="1407"/>
      <point x="-233" y="1459" type="curve" smooth="yes"/>
      <point x="-233" y="1512"/>
      <point x="-195" y="1561"/>
    </contour>
    <contour>
      <point x="-465" y="1244" type="line"/>
      <point x="-519" y="1319"/>
      <point x="-562" y="1418"/>
      <point x="-562" y="1515" type="curve" smooth="yes"/>
      <point x="-562" y="1667"/>
      <point x="-430" y="1807"/>
      <point x="-195" y="1807" type="curve" smooth="yes"/>
      <point x="-131" y="1807"/>
      <point x="-82" y="1799"/>
      <point x="-32" y="1787" type="curve"/>
      <point x="-42" y="1637" type="line"/>
      <point x="-74" y="1642"/>
      <point x="-99" y="1644"/>
      <point x="-142" y="1644" type="curve" smooth="yes"/>
      <point x="-252" y="1644"/>
      <point x="-322" y="1565"/>
      <point x="-322" y="1465" type="curve" smooth="yes"/>
      <point x="-322" y="1395"/>
      <point x="-293" y="1324"/>
      <point x="-237" y="1244" type="curve"/>
    </contour>
    <contour>
      <point x="49" y="8" type="move" name="x29"/>
    </contour>
    <contour>
      <point x="-424" y="1282" type="move" name="_mark0"/>
    </contour>
  </outline>
</glyph>
<glyph name="rvocalicnuktadeva" format="1">
  <advance width="1670"/>
  <outline>
    <component base="nuktadeva" xOffset="1166" yOffset="38"/>
    <component base="rvocalicdeva"/>
    <contour>
      <point x="874" y="1274" type="move" name="mark0"/>
    </contour>
  </outline>
</glyph>
<glyph name="saprehalfdeva" format="1">
  <advance width="937"/>
  <outline>
    <contour>
      <point x="803" y="85" type="line"/>
      <point x="605" y="-46" type="line"/>
      <point x="145" y="558" type="line"/>
      <point x="73" y="651"/>
      <point x="46" y="701"/>
      <point x="46" y="755" type="curve" smooth="yes"/>
      <point x="46" y="817"/>
      <point x="99" y="867"/>
      <point x="168" y="867" type="curve" smooth="yes"/>
      <point x="229" y="867"/>
      <point x="274" y="828"/>
      <point x="345" y="731" type="curve" smooth="yes"/>
      <point x="407" y="645" type="line"/>
      <point x="398" y="626" type="line"/>
    </contour>
    <contour>
      <point x="262" y="686" type="line"/>
      <point x="404" y="729"/>
      <point x="461" y="804"/>
      <point x="461" y="949" type="curve" smooth="yes"/>
      <point x="461" y="1147" type="line"/>
      <point x="750" y="1147" type="line"/>
      <point x="750" y="905" type="line"/>
      <point x="750" y="718"/>
      <point x="644" y="556"/>
      <point x="416" y="464" type="curve"/>
    </contour>
    <contour>
      <point x="2" y="1096" type="line"/>
      <point x="2" y="1288" type="line"/>
      <point x="1243" y="1288" type="line"/>
      <point x="1243" y="1096" type="line"/>
    </contour>
    <contour>
      <point x="514" y="537" type="curve"/>
      <point x="622" y="732" type="line"/>
      <point x="702" y="702"/>
      <point x="791" y="688"/>
      <point x="863" y="688" type="curve" smooth="yes"/>
      <point x="988" y="688"/>
      <point x="1095" y="706"/>
      <point x="1214" y="735" type="curve"/>
      <point x="1217" y="484" type="line"/>
      <point x="1134" y="466"/>
      <point x="1017" y="452"/>
      <point x="901" y="452" type="curve" smooth="yes"/>
      <point x="792" y="452"/>
      <point x="650" y="481"/>
    </contour>
  </outline>
</glyph>
<glyph name="saradeva" format="1">
  <advance width="1642"/>
  <outline>
    <contour>
      <point x="1275" y="532" type="line"/>
      <point x="917" y="55" type="line"/>
      <point x="735" y="195" type="line"/>
      <point x="1120" y="655" type="line"/>
    </contour>
    <contour>
      <point x="693" y="70" type="line"/>
      <point x="502" y="-46" type="line"/>
      <point x="128" y="551" type="line"/>
      <point x="66" y="652"/>
      <point x="35" y="702"/>
      <point x="35" y="756" type="curve" smooth="yes"/>
      <point x="35" y="818"/>
      <point x="88" y="867"/>
      <point x="155" y="867" type="curve" smooth="yes"/>
      <point x="219" y="867"/>
      <point x="270" y="815"/>
      <point x="325" y="707" type="curve" smooth="yes"/>
      <point x="377" y="622" type="line"/>
      <point x="360" y="604" type="line"/>
    </contour>
    <contour>
      <point x="252" y="686" type="line"/>
      <point x="394" y="729"/>
      <point x="452" y="804"/>
      <point x="452" y="949" type="curve" smooth="yes"/>
      <point x="452" y="1147" type="line"/>
      <point x="740" y="1147" type="line"/>
      <point x="740" y="905" type="line"/>
      <point x="740" y="718"/>
      <point x="635" y="556"/>
      <point x="406" y="464" type="curve"/>
    </contour>
    <contour>
      <point x="-43" y="1096" type="line"/>
      <point x="-43" y="1288" type="line"/>
      <point x="1684" y="1288" type="line"/>
      <point x="1684" y="1096" type="line"/>
    </contour>
    <contour>
      <point x="504" y="552" type="curve"/>
      <point x="612" y="746" type="line"/>
      <point x="694" y="716"/>
      <point x="811" y="703"/>
      <point x="891" y="703" type="curve" smooth="yes"/>
      <point x="1000" y="703"/>
      <point x="1101" y="717"/>
      <point x="1197" y="740" type="curve"/>
      <point x="1197" y="503" type="line"/>
      <point x="1133" y="482"/>
      <point x="1033" y="473"/>
      <point x="932" y="473" type="curve" smooth="yes"/>
      <point x="805" y="473"/>
      <point x="640" y="495"/>
    </contour>
    <contour>
      <point x="1172" y="1132" type="line"/>
      <point x="1460" y="1132" type="line"/>
      <point x="1460" y="0" type="line"/>
      <point x="1172" y="0" type="line"/>
    </contour>
  </outline>
</glyph>
<glyph name="saraprehalfdeva" format="1">
  <advance width="937"/>
  <outline>
    <contour>
      <point x="1283" y="532" type="line"/>
      <point x="927" y="55" type="line"/>
      <point x="744" y="195" type="line"/>
      <point x="1129" y="655" type="line"/>
    </contour>
    <contour>
      <point x="703" y="70" type="line"/>
      <point x="512" y="-46" type="line"/>
      <point x="137" y="551" type="line"/>
      <point x="76" y="652"/>
      <point x="44" y="702"/>
      <point x="44" y="756" type="curve" smooth="yes"/>
      <point x="44" y="818"/>
      <point x="98" y="867"/>
      <point x="164" y="867" type="curve" smooth="yes"/>
      <point x="228" y="867"/>
      <point x="279" y="815"/>
      <point x="334" y="707" type="curve" smooth="yes"/>
      <point x="387" y="622" type="line"/>
      <point x="369" y="604" type="line"/>
    </contour>
    <contour>
      <point x="262" y="686" type="line"/>
      <point x="404" y="729"/>
      <point x="461" y="804"/>
      <point x="461" y="949" type="curve" smooth="yes"/>
      <point x="461" y="1147" type="line"/>
      <point x="750" y="1147" type="line"/>
      <point x="750" y="905" type="line"/>
      <point x="750" y="718"/>
      <point x="644" y="556"/>
      <point x="416" y="464" type="curve"/>
    </contour>
    <contour>
      <point x="-34" y="1096" type="line"/>
      <point x="-34" y="1288" type="line"/>
      <point x="1246" y="1288" type="line"/>
      <point x="1246" y="1096" type="line"/>
    </contour>
    <contour>
      <point x="514" y="552" type="curve"/>
      <point x="622" y="746" type="line"/>
      <point x="702" y="717"/>
      <point x="820" y="703"/>
      <point x="906" y="703" type="curve" smooth="yes"/>
      <point x="1014" y="703"/>
      <point x="1101" y="713"/>
      <point x="1214" y="738" type="curve"/>
      <point x="1217" y="502" type="line"/>
      <point x="1150" y="482"/>
      <point x="1037" y="473"/>
      <point x="945" y="473" type="curve" smooth="yes"/>
      <point x="812" y="473"/>
      <point x="650" y="496"/>
    </contour>
  </outline>
</glyph>
<glyph name="shacadeva" format="1">
  <advance width="1496"/>
  <outline>
    <contour>
      <point x="319" y="2" type="line"/>
      <point x="206" y="172" type="line"/>
      <point x="740" y="467" type="line"/>
      <point x="849" y="303" type="line"/>
    </contour>
    <contour>
      <point x="1035" y="346" type="curve"/>
      <point x="1159" y="48" type="line"/>
      <point x="1091" y="-78"/>
      <point x="972" y="-178"/>
      <point x="792" y="-178" type="curve" smooth="yes"/>
      <point x="608" y="-178"/>
      <point x="476" y="-49"/>
      <point x="476" y="119" type="curve" smooth="yes"/>
      <point x="476" y="230"/>
      <point x="546" y="339"/>
      <point x="708" y="419" type="curve"/>
      <point x="809" y="281" type="line"/>
      <point x="734" y="243"/>
      <point x="699" y="186"/>
      <point x="699" y="130" type="curve" smooth="yes"/>
      <point x="699" y="71"/>
      <point x="733" y="26"/>
      <point x="800" y="26" type="curve" smooth="yes"/>
      <point x="905" y="26"/>
      <point x="1035" y="142"/>
    </contour>
    <contour>
      <point x="133" y="383" type="line"/>
      <point x="7" y="578" type="line"/>
      <point x="317" y="743" type="line"/>
      <point x="511" y="844"/>
      <point x="588" y="918"/>
      <point x="588" y="1001" type="curve" smooth="yes"/>
      <point x="588" y="1064"/>
      <point x="543" y="1113"/>
      <point x="479" y="1113" type="curve" smooth="yes"/>
      <point x="401" y="1113"/>
      <point x="362" y="1064"/>
      <point x="362" y="1003" type="curve" smooth="yes"/>
      <point x="362" y="878"/>
      <point x="571" y="769"/>
      <point x="1153" y="705" type="curve"/>
      <point x="1093" y="507" type="line"/>
      <point x="352" y="569"/>
      <point x="112" y="805"/>
      <point x="112" y="1038" type="curve" smooth="yes"/>
      <point x="112" y="1185"/>
      <point x="233" y="1321"/>
      <point x="450" y="1321" type="curve" smooth="yes"/>
      <point x="677" y="1321"/>
      <point x="818" y="1178"/>
      <point x="818" y="994" type="curve" smooth="yes"/>
      <point x="818" y="818"/>
      <point x="708" y="687"/>
      <point x="430" y="541" type="curve" smooth="yes"/>
    </contour>
    <contour>
      <point x="1003" y="1132" type="line"/>
      <point x="1291" y="1132" type="line"/>
      <point x="1291" y="-302" type="line"/>
      <point x="1003" y="-302" type="line"/>
    </contour>
    <contour>
      <point x="1517" y="1096" type="line"/>
      <point x="892" y="1096" type="line"/>
      <point x="892" y="1288" type="line"/>
      <point x="1517" y="1288" type="line"/>
    </contour>
  </outline>
</glyph>
<glyph name="shacaprehalfdeva" format="1">
  <advance width="1002"/>
  <outline>
    <contour>
      <point x="319" y="2" type="line"/>
      <point x="206" y="172" type="line"/>
      <point x="740" y="467" type="line"/>
      <point x="849" y="303" type="line"/>
    </contour>
    <contour>
      <point x="1035" y="346" type="curve"/>
      <point x="1159" y="48" type="line"/>
      <point x="1091" y="-78"/>
      <point x="972" y="-178"/>
      <point x="792" y="-178" type="curve" smooth="yes"/>
      <point x="608" y="-178"/>
      <point x="476" y="-49"/>
      <point x="476" y="119" type="curve" smooth="yes"/>
      <point x="476" y="230"/>
      <point x="546" y="339"/>
      <point x="708" y="419" type="curve"/>
      <point x="809" y="281" type="line"/>
      <point x="734" y="243"/>
      <point x="699" y="186"/>
      <point x="699" y="130" type="curve" smooth="yes"/>
      <point x="699" y="71"/>
      <point x="733" y="26"/>
      <point x="800" y="26" type="curve" smooth="yes"/>
      <point x="905" y="26"/>
      <point x="1035" y="142"/>
    </contour>
    <contour>
      <point x="133" y="383" type="line"/>
      <point x="7" y="578" type="line"/>
      <point x="317" y="743" type="line"/>
      <point x="511" y="844"/>
      <point x="588" y="918"/>
      <point x="588" y="1001" type="curve" smooth="yes"/>
      <point x="588" y="1064"/>
      <point x="543" y="1113"/>
      <point x="479" y="1113" type="curve" smooth="yes"/>
      <point x="401" y="1113"/>
      <point x="362" y="1064"/>
      <point x="362" y="1003" type="curve" smooth="yes"/>
      <point x="362" y="878"/>
      <point x="571" y="769"/>
      <point x="1153" y="705" type="curve"/>
      <point x="1093" y="507" type="line"/>
      <point x="352" y="569"/>
      <point x="112" y="805"/>
      <point x="112" y="1038" type="curve" smooth="yes"/>
      <point x="112" y="1185"/>
      <point x="233" y="1321"/>
      <point x="450" y="1321" type="curve" smooth="yes"/>
      <point x="677" y="1321"/>
      <point x="818" y="1178"/>
      <point x="818" y="994" type="curve" smooth="yes"/>
      <point x="818" y="818"/>
      <point x="708" y="687"/>
      <point x="430" y="541" type="curve" smooth="yes"/>
    </contour>
    <contour>
      <point x="1517" y="1096" type="line"/>
      <point x="892" y="1096" type="line"/>
      <point x="892" y="1288" type="line"/>
      <point x="1517" y="1288" type="line"/>
    </contour>
  </outline>
</glyph>
